<svg xmlns="http://www.w3.org/2000/svg" width="533.333" height="194.667" version="1.0" viewBox="0 0 400 146">
    <path fill="#fff" d="M60.7 3.2C59.9 5 46.5 36.4 31 73c-15.6 36.6-28.9 68-29.7 69.7L0 146h42.5l5-12.8 5.1-12.7h56.6l5.1 12.7 5.2 12.8H199V94l22.1-.2 22-.3 6.5-16.5c3.5-9.1 6.4-16.6 6.4-16.8 0-.1-12.8-.2-28.5-.2h-28.6l.3-12.3.3-12.2 36.3-.3c19.9-.1 36.2.1 36.2.4 0 .4-1.1 3.1-2.6 6.1-6.6 14-8.4 35.1-4.4 50.7 5.6 21.9 21.9 40 43.4 48.1 13.9 5.2 31.3 6.7 46.7 4 14.7-2.5 25.6-6.9 38.2-15.2l6.7-4.5V61h-51.8l-6.1 13.6c-3.3 7.4-6.1 13.9-6.1 14.5 0 .5 5.8.9 13.5.9H363v17.1l-4.4 1.9c-6.3 2.8-17.1 4.1-24.2 3-17.2-2.8-28.5-14.5-31.4-32.5-2.7-16.6 5-33 19.2-40.5 5.4-2.9 7.5-3.5 15-3.8 10.9-.5 19.6 1.9 28.8 8.1l6.5 4.3 11.3-13.5 11.3-13.6-3.8-3.2c-5.6-4.8-20.1-12.1-29-14.5-11.7-3.2-34.7-3.2-45.7 0-13.3 3.8-22.9 9.5-32.8 19.3l-8.8 8.6V0H159l-.2 67.7c-.2 42.6-.6 67.1-1.2 65.8-.5-1.1-13.5-31.5-28.7-67.5L101.1.5 81.6.2 62 0l-1.3 3.2zm35.9 84c.5 1.7-.7 1.8-15.5 1.8-8.9 0-16.1-.2-16.1-.5s3.2-8.5 7.1-18.2c3.9-9.8 7.5-18.9 8.1-20.3.8-2.2 1.8-.3 8.4 16.5 4.1 10.5 7.7 19.8 8 20.7z"/>
</svg>
