<svg xmlns="http://www.w3.org/2000/svg" width="1775" height="533" fill="none">
    <path fill="#fff" d="M192.067 42.8c-31.6 4.267-61.333 14.934-87.333 30.934C76.2 91.467 50.6 117.067 33.667 144.667c-11.6 18.8-24.267 49.467-27.333 66.267l-.934 4.933 8.534-2.8c16.933-5.466 46.666-4.8 67.066 1.6 23.2 7.067 40.934 18.267 86.134 54.134 36.266 28.933 56.533 37.733 84.266 36.666l4.934-.133v-7.733c0-7.467-1.6-15.2-3.867-18.8-.933-1.467-2.667-1.334-10.533.666-8.134 2.134-10.8 2.267-18.267.934-11.733-2-22.133-7.467-32-16.667-16.133-14.933-22.667-35.733-17.467-55.2 4.534-17.2 16.8-32.267 31.467-38.933 11.2-5.067 28.667-5.467 45.467-1.2 25.333 6.533 38.799 14.933 82.933 51.466 11.6 9.6 24.8 20.134 29.466 23.467 9.467 6.8 26.8 15.733 34.8 17.867 8.534 2.533 25.467 4.133 32.8 3.2l6.934-.8-.8-15.067c-1.867-34-13.2-72-29.734-99.6-32.8-54.4-85.066-91.333-147.199-103.733-15.867-3.2-53.067-4.534-68.267-2.4Z"/>
    <path fill="#fff" d="M183.934 217.067c-.934 4.8.8 16.667 3.2 22 1.2 2.667 2.266 3.467 3.733 2.8 11.6-4.933 22.133-5.067 35.733-.4 19.734 6.8 36.8 26.533 40.534 46.933 4.133 22.934-10.4 50.667-31.734 60.667-6.533 3.066-10 3.733-21.333 4-15.6.533-28.8-2.133-45.6-9.467-15.733-6.8-17.2-7.866-76.667-56.133-27.2-22-46.933-31.333-68.8-32.533-6.533-.267-13.733.133-17.066.933l-5.734 1.6.8 11.6c3.734 53.333 21.734 97.467 55.2 135.466 54.134 61.6 141.867 87.334 221.467 65.2 25.333-7.066 47.333-17.6 70-33.6 14.266-10.133 38-34 49.066-49.466 14.934-21.067 32-58.933 35.2-77.867.8-4.8.534-5.2-1.733-4.133-8.267 3.467-18.667 4.933-34.533 4.933-38.534.134-62.8-11.333-118.8-56.4-36.133-29.066-54.4-38.133-79.333-39.466l-12.8-.8-.8 4.133ZM1768.73 280.335c0 3.308-.6 6.202-1.8 8.682-1.2 2.481-2.94 4.568-5.21 6.263-2.23 1.654-4.94 2.894-8.12 3.721-3.19.827-6.76 1.24-10.73 1.24-4.51 0-8.37-.372-11.6-1.116-3.22-.703-6.05-1.757-8.49-3.163v-10.294c1.28.662 2.71 1.323 4.28 1.985a53.17 53.17 0 0 0 4.96 1.674c1.73.496 3.51.91 5.33 1.24 1.86.29 3.7.434 5.52.434 2.69 0 4.96-.227 6.82-.682 1.9-.454 3.43-1.095 4.59-1.922 1.2-.868 2.07-1.902 2.6-3.101.54-1.24.81-2.604.81-4.092 0-1.282-.21-2.44-.62-3.473-.41-1.034-1.18-2.046-2.29-3.039-1.08-1.033-2.57-2.067-4.47-3.1-1.9-1.034-4.34-2.191-7.32-3.473-2.97-1.281-5.66-2.542-8.06-3.783-2.35-1.24-4.36-2.625-6.01-4.154a16.423 16.423 0 0 1-3.85-5.271c-.87-2.026-1.3-4.424-1.3-7.194 0-2.894.56-5.457 1.67-7.689a16.087 16.087 0 0 1 4.84-5.705c2.07-1.53 4.55-2.687 7.44-3.473 2.9-.785 6.12-1.178 9.68-1.178 4.01 0 7.66.434 10.97 1.302 3.35.868 6.51 2.005 9.49 3.411l-3.91 9.115a70.539 70.539 0 0 0-8.31-3.1 27.794 27.794 0 0 0-8.62-1.364c-4.21 0-7.33.702-9.36 2.108-2.03 1.364-3.04 3.328-3.04 5.891 0 1.447.23 2.708.68 3.783.5 1.075 1.33 2.088 2.48 3.038 1.16.951 2.71 1.923 4.66 2.915 1.94.951 4.36 2.026 7.25 3.225 2.98 1.24 5.62 2.48 7.94 3.72 2.35 1.241 4.36 2.646 6.01 4.217 1.66 1.53 2.92 3.287 3.79 5.271.86 1.984 1.3 4.362 1.3 7.131ZM1706.59 229.672c1.2 0 2.54.062 4.03.186 1.49.083 2.77.227 3.84.434l-1.48 10.418a47.27 47.27 0 0 0-3.6-.496c-1.2-.165-2.34-.248-3.41-.248-2.61 0-4.98.537-7.13 1.612-2.15 1.034-4.01 2.543-5.58 4.527-1.53 1.943-2.73 4.299-3.6 7.069-.83 2.729-1.24 5.767-1.24 9.116v36.711h-11.29v-68.089h9.18l1.37 12.464h.49a74.354 74.354 0 0 1 3.29-5.147c1.2-1.653 2.52-3.1 3.97-4.34a17.99 17.99 0 0 1 4.96-3.039c1.82-.785 3.88-1.178 6.2-1.178ZM1635.95 300.241c-4.54 0-8.7-.765-12.46-2.294-3.76-1.53-7.01-3.762-9.74-6.697-2.68-2.936-4.77-6.574-6.26-10.915-1.49-4.34-2.23-9.301-2.23-14.882 0-5.623.68-10.646 2.05-15.069 1.36-4.424 3.28-8.165 5.76-11.224 2.48-3.101 5.44-5.457 8.87-7.07 3.47-1.612 7.3-2.418 11.47-2.418 4.1 0 7.77.744 11.04 2.232 3.27 1.447 6.04 3.514 8.31 6.201 2.27 2.646 4.01 5.85 5.21 9.612 1.24 3.721 1.86 7.855 1.86 12.403v7.007h-42.91c.2 7.979 1.88 13.849 5.02 17.611 3.18 3.762 7.9 5.643 14.14 5.643 2.11 0 4.05-.103 5.83-.31 1.82-.206 3.55-.496 5.21-.868 1.69-.413 3.33-.909 4.9-1.488 1.57-.62 3.16-1.302 4.77-2.047v10.046a53.554 53.554 0 0 1-4.9 2.047c-1.57.579-3.2 1.054-4.9 1.426-1.65.372-3.39.641-5.21.806a62.87 62.87 0 0 1-5.83.248Zm-2.79-61.205c-4.71 0-8.45 1.612-11.22 4.837-2.73 3.224-4.32 7.916-4.77 14.076h30.51c0-2.811-.29-5.374-.87-7.689-.54-2.357-1.41-4.362-2.61-6.015a11.8 11.8 0 0 0-4.46-3.845c-1.82-.91-4.01-1.364-6.58-1.364ZM1576.67 299.001v-43.842c0-5.375-1.1-9.405-3.29-12.093-2.15-2.687-5.54-4.03-10.17-4.03-3.35 0-6.16.537-8.43 1.612-2.28 1.075-4.11 2.666-5.52 4.775-1.36 2.108-2.36 4.692-2.98 7.751-.58 3.06-.87 6.574-.87 10.542v35.285h-11.28v-68.089h9.18l1.61 9.178h.62c1.03-1.778 2.25-3.307 3.66-4.589a21.432 21.432 0 0 1 4.71-3.287c1.7-.868 3.49-1.509 5.4-1.922 1.9-.413 3.84-.62 5.82-.62 7.57 0 13.25 1.984 17.06 5.953 3.84 3.927 5.76 10.232 5.76 18.914v44.462h-11.28ZM1511.55 291.001c.75 0 1.57-.041 2.48-.124.95-.082 1.86-.186 2.73-.31.87-.124 1.66-.268 2.36-.434.74-.165 1.3-.31 1.67-.434v8.558c-.53.248-1.22.496-2.04.744-.83.248-1.74.455-2.73.62-.99.207-2.03.351-3.1.434-1.08.124-2.13.186-3.16.186-2.57 0-4.95-.331-7.14-.992a13.403 13.403 0 0 1-5.7-3.411c-1.57-1.612-2.81-3.782-3.72-6.511-.91-2.77-1.37-6.242-1.37-10.418v-39.501h-9.61v-5.023l9.61-4.837 4.84-14.263h6.51v15.627h17.12v8.496h-17.12v39.501c0 4.01.64 7.028 1.92 9.054 1.33 2.026 3.48 3.038 6.45 3.038ZM1469.57 229.672c1.2 0 2.54.062 4.03.186 1.49.083 2.77.227 3.84.434l-1.48 10.418a47.27 47.27 0 0 0-3.6-.496c-1.2-.165-2.34-.248-3.41-.248-2.61 0-4.98.537-7.13 1.612-2.15 1.034-4.01 2.543-5.58 4.527-1.53 1.943-2.73 4.299-3.6 7.069-.83 2.729-1.24 5.767-1.24 9.116v36.711h-11.29v-68.089h9.18l1.37 12.464h.49a70.794 70.794 0 0 1 3.29-5.147c1.2-1.653 2.52-3.1 3.97-4.34a17.843 17.843 0 0 1 4.96-3.039c1.82-.785 3.88-1.178 6.2-1.178ZM1410.9 299.001l-2.29-9.426h-.5c-1.36 1.861-2.73 3.473-4.09 4.837a19.808 19.808 0 0 1-4.47 3.287c-1.61.868-3.41 1.509-5.39 1.922-1.98.414-4.28.62-6.88.62-2.86 0-5.48-.413-7.88-1.24-2.4-.786-4.48-2.005-6.26-3.659-1.74-1.695-3.1-3.803-4.1-6.325-.99-2.563-1.48-5.581-1.48-9.054 0-6.78 2.37-11.989 7.13-15.627 4.79-3.638 12.07-5.622 21.83-5.953l11.41-.434v-4.279c0-2.769-.31-5.085-.93-6.945-.58-1.86-1.45-3.349-2.61-4.465-1.11-1.157-2.52-1.984-4.22-2.48-1.65-.496-3.55-.744-5.7-.744-3.43 0-6.64.496-9.61 1.488a61.403 61.403 0 0 0-8.5 3.597l-3.97-8.496c3.06-1.654 6.47-3.059 10.24-4.217 3.76-1.157 7.71-1.736 11.84-1.736 4.22 0 7.85.434 10.91 1.302 3.1.827 5.65 2.171 7.63 4.031 2.03 1.819 3.54 4.155 4.53 7.007.99 2.853 1.49 6.305 1.49 10.356v46.633h-8.13Zm-20.71-7.876c2.52 0 4.86-.392 7.01-1.178 2.15-.785 4.01-1.963 5.58-3.534 1.57-1.613 2.79-3.618 3.66-6.016.91-2.439 1.36-5.291 1.36-8.557v-6.139l-8.87.434c-3.72.165-6.84.579-9.36 1.24-2.52.661-4.55 1.592-6.08 2.791-1.48 1.157-2.56 2.583-3.22 4.278-.66 1.654-.99 3.535-.99 5.643 0 3.804.99 6.594 2.97 8.372 2.03 1.778 4.67 2.666 7.94 2.666ZM1328.73 300.241c-2.43 0-4.65-.269-6.63-.806-1.99-.537-3.78-1.24-5.4-2.108a21.608 21.608 0 0 1-4.21-3.163 30.523 30.523 0 0 1-3.23-3.783h-.74c.12 1.406.25 2.75.37 4.031.08 1.075.17 2.191.25 3.349.08 1.116.12 2.005.12 2.666v29.084h-11.28v-98.599h9.17l1.62 9.178h.49a27.466 27.466 0 0 1 3.23-4.031 18.043 18.043 0 0 1 4.15-3.287c1.61-.95 3.41-1.695 5.4-2.232 1.98-.579 4.21-.868 6.69-.868 3.89 0 7.42.744 10.61 2.232 3.18 1.489 5.89 3.721 8.12 6.698 2.28 2.935 4.03 6.593 5.27 10.976 1.24 4.382 1.86 9.467 1.86 15.255 0 5.829-.62 10.955-1.86 15.378-1.24 4.383-2.99 8.062-5.27 11.039-2.23 2.976-4.94 5.229-8.12 6.759-3.19 1.488-6.72 2.232-10.61 2.232Zm-2.17-61.205c-3.14 0-5.8.475-8 1.426-2.15.951-3.9 2.398-5.27 4.341-1.32 1.943-2.31 4.361-2.97 7.255-.62 2.894-.97 6.305-1.06 10.232v2.543c0 4.175.27 7.896.81 11.162.58 3.224 1.53 5.953 2.85 8.185 1.37 2.191 3.16 3.866 5.4 5.023 2.23 1.116 5.02 1.674 8.37 1.674 5.58 0 9.67-2.253 12.28-6.759 2.64-4.506 3.96-10.976 3.96-19.41 0-8.598-1.32-15.027-3.96-19.285-2.61-4.258-6.74-6.387-12.41-6.387ZM1243.46 229.672c1.2 0 2.54.062 4.03.186 1.49.083 2.77.227 3.85.434l-1.49 10.418a47.27 47.27 0 0 0-3.6-.496c-1.2-.165-2.33-.248-3.41-.248-2.6 0-4.98.537-7.13 1.612-2.15 1.034-4.01 2.543-5.58 4.527-1.53 1.943-2.73 4.299-3.6 7.069-.82 2.729-1.24 5.767-1.24 9.116v36.711h-11.28v-68.089h9.17l1.37 12.464h.49a74.354 74.354 0 0 1 3.29-5.147c1.2-1.653 2.52-3.1 3.97-4.34a17.99 17.99 0 0 1 4.96-3.039c1.82-.785 3.89-1.178 6.2-1.178ZM1172.83 300.241c-4.55 0-8.7-.765-12.47-2.294-3.76-1.53-7-3.762-9.73-6.697-2.69-2.936-4.78-6.574-6.27-10.915-1.48-4.34-2.23-9.301-2.23-14.882 0-5.623.68-10.646 2.05-15.069 1.36-4.424 3.28-8.165 5.77-11.224 2.48-3.101 5.43-5.457 8.86-7.07 3.48-1.612 7.3-2.418 11.48-2.418 4.09 0 7.77.744 11.03 2.232 3.27 1.447 6.04 3.514 8.31 6.201 2.28 2.646 4.01 5.85 5.21 9.612 1.24 3.721 1.86 7.855 1.86 12.403v7.007h-42.91c.21 7.979 1.88 13.849 5.02 17.611 3.19 3.762 7.9 5.643 14.14 5.643 2.11 0 4.05-.103 5.83-.31a48.53 48.53 0 0 0 5.21-.868c1.69-.413 3.33-.909 4.9-1.488 1.57-.62 3.16-1.302 4.77-2.047v10.046a52.407 52.407 0 0 1-4.9 2.047c-1.57.579-3.2 1.054-4.89 1.426-1.66.372-3.39.641-5.21.806-1.78.166-3.72.248-5.83.248Zm-2.79-61.205c-4.72 0-8.46 1.612-11.23 4.837-2.73 3.224-4.32 7.916-4.77 14.076h30.51c0-2.811-.29-5.374-.87-7.689-.54-2.357-1.41-4.362-2.6-6.015a11.83 11.83 0 0 0-4.47-3.845c-1.82-.91-4.01-1.364-6.57-1.364ZM1113.05 300.241c-4.18 0-8.09-.641-11.72-1.922a24.523 24.523 0 0 1-9.49-6.201c-2.69-2.853-4.8-6.47-6.33-10.852-1.53-4.424-2.29-9.736-2.29-15.937 0-6.491.78-11.989 2.35-16.496 1.58-4.547 3.72-8.226 6.45-11.038 2.77-2.852 6-4.919 9.68-6.201 3.68-1.281 7.62-1.922 11.84-1.922 3.23 0 6.37.351 9.43 1.054 3.1.703 5.68 1.571 7.75 2.605l-3.35 9.549c-.95-.413-2-.806-3.16-1.178a33.175 33.175 0 0 0-3.6-1.054 30.078 30.078 0 0 0-3.66-.744 20.03 20.03 0 0 0-3.41-.31c-6.49 0-11.22 2.087-14.2 6.263-2.98 4.134-4.46 10.583-4.46 19.348 0 8.723 1.48 15.11 4.46 19.161 3.02 4.01 7.59 6.015 13.71 6.015 3.34 0 6.36-.372 9.05-1.116 2.73-.785 5.21-1.695 7.44-2.728v10.046a30.103 30.103 0 0 1-7.19 2.728c-2.52.62-5.63.93-9.3.93ZM1054.63 299.001v-43.842c0-5.375-1.1-9.405-3.29-12.093-2.15-2.687-5.54-4.03-10.17-4.03-3.35 0-6.16.537-8.43 1.612a13.333 13.333 0 0 0-5.52 4.775c-1.37 2.108-2.36 4.692-2.98 7.751-.58 3.06-.87 6.574-.87 10.542v35.285h-11.28v-68.089h9.18l1.61 9.178h.62c1.03-1.778 2.25-3.307 3.66-4.589a21.199 21.199 0 0 1 4.71-3.287 21.963 21.963 0 0 1 5.39-1.922c1.91-.413 3.85-.62 5.83-.62 7.57 0 13.25 1.984 17.06 5.953 3.84 3.927 5.76 10.232 5.76 18.914v44.462h-11.28ZM982.877 299.001l-2.295-9.426h-.496c-1.364 1.861-2.728 3.473-4.092 4.837a20.075 20.075 0 0 1-4.465 3.287c-1.613.868-3.411 1.509-5.395 1.922-1.985.414-4.279.62-6.884.62-2.852 0-5.477-.413-7.875-1.24-2.398-.786-4.486-2.005-6.263-3.659-1.737-1.695-3.101-3.803-4.093-6.325-.992-2.563-1.488-5.581-1.488-9.054 0-6.78 2.377-11.989 7.131-15.627 4.796-3.638 12.072-5.622 21.828-5.953l11.41-.434v-4.279c0-2.769-.31-5.085-.93-6.945-.579-1.86-1.447-3.349-2.604-4.465-1.117-1.157-2.522-1.984-4.217-2.48-1.654-.496-3.556-.744-5.705-.744-3.432 0-6.636.496-9.612 1.488a61.56 61.56 0 0 0-8.496 3.597l-3.968-8.496c3.059-1.654 6.469-3.059 10.231-4.217 3.763-1.157 7.711-1.736 11.845-1.736 4.217 0 7.855.434 10.914 1.302 3.1.827 5.643 2.171 7.627 4.031 2.026 1.819 3.535 4.155 4.527 7.007.992 2.853 1.488 6.305 1.488 10.356v46.633h-8.123Zm-20.712-7.876c2.522 0 4.858-.392 7.007-1.178 2.15-.785 4.01-1.963 5.581-3.534 1.571-1.613 2.791-3.618 3.659-6.016.909-2.439 1.364-5.291 1.364-8.557v-6.139l-8.867.434c-3.721.165-6.842.579-9.364 1.24-2.522.661-4.548 1.592-6.077 2.791-1.489 1.157-2.563 2.583-3.225 4.278-.661 1.654-.992 3.535-.992 5.643 0 3.804.992 6.594 2.976 8.372 2.026 1.778 4.672 2.666 7.938 2.666ZM911.622 300.241c-4.175 0-8.082-.641-11.72-1.922a24.59 24.59 0 0 1-9.488-6.201c-2.687-2.853-4.795-6.47-6.325-10.852-1.529-4.424-2.294-9.736-2.294-15.937 0-6.491.785-11.989 2.356-16.496 1.571-4.547 3.721-8.226 6.449-11.038 2.77-2.852 5.995-4.919 9.674-6.201 3.68-1.281 7.628-1.922 11.845-1.922 3.224 0 6.366.351 9.425 1.054 3.101.703 5.685 1.571 7.752 2.605l-3.349 9.549a34.364 34.364 0 0 0-3.162-1.178 32.991 32.991 0 0 0-3.597-1.054 30.102 30.102 0 0 0-3.659-.744 20.075 20.075 0 0 0-3.41-.31c-6.491 0-11.225 2.087-14.201 6.263-2.977 4.134-4.465 10.583-4.465 19.348 0 8.723 1.488 15.11 4.465 19.161 3.018 4.01 7.586 6.015 13.704 6.015 3.349 0 6.367-.372 9.054-1.116 2.729-.785 5.209-1.695 7.442-2.728v10.046a30.133 30.133 0 0 1-7.194 2.728c-2.522.62-5.622.93-9.302.93ZM829.885 291.001c.744 0 1.571-.041 2.48-.124a49.195 49.195 0 0 0 2.729-.31 26.751 26.751 0 0 0 2.356-.434c.745-.165 1.303-.31 1.675-.434v8.558c-.538.248-1.22.496-2.047.744a22.15 22.15 0 0 1-2.728.62c-.992.207-2.026.351-3.101.434a27.585 27.585 0 0 1-3.162.186c-2.563 0-4.941-.331-7.132-.992a13.433 13.433 0 0 1-5.705-3.411c-1.571-1.612-2.811-3.782-3.72-6.511-.91-2.77-1.365-6.242-1.365-10.418v-39.501h-9.612v-5.023l9.612-4.837 4.837-14.263h6.511v15.627h17.116v8.496h-17.116v39.501c0 4.01.641 7.028 1.923 9.054 1.323 2.026 3.472 3.038 6.449 3.038ZM792.613 280.335c0 3.308-.599 6.202-1.798 8.682-1.199 2.481-2.936 4.568-5.209 6.263-2.233 1.654-4.941 2.894-8.124 3.721-3.183.827-6.759 1.24-10.728 1.24-4.506 0-8.371-.372-11.596-1.116-3.225-.703-6.057-1.757-8.496-3.163v-10.294a60.901 60.901 0 0 0 4.279 1.985 55.399 55.399 0 0 0 10.294 2.914c1.86.29 3.7.434 5.519.434 2.687 0 4.961-.227 6.821-.682 1.902-.454 3.432-1.095 4.589-1.922 1.199-.868 2.067-1.902 2.605-3.101.537-1.24.806-2.604.806-4.092 0-1.282-.207-2.44-.62-3.473-.414-1.034-1.178-2.046-2.295-3.039-1.075-1.033-2.563-2.067-4.465-3.1-1.901-1.034-4.34-2.191-7.317-3.473-2.976-1.281-5.664-2.542-8.061-3.783-2.357-1.24-4.362-2.625-6.016-4.154-1.653-1.53-2.935-3.287-3.844-5.271-.868-2.026-1.303-4.424-1.303-7.194 0-2.894.559-5.457 1.675-7.689a16.079 16.079 0 0 1 4.837-5.705c2.067-1.53 4.547-2.687 7.441-3.473 2.894-.785 6.119-1.178 9.674-1.178 4.01 0 7.669.434 10.976 1.302a53.716 53.716 0 0 1 9.488 3.411l-3.907 9.115a71.53 71.53 0 0 0-8.309-3.1 27.827 27.827 0 0 0-8.62-1.364c-4.217 0-7.338.702-9.364 2.108-2.026 1.364-3.038 3.328-3.038 5.891 0 1.447.227 2.708.682 3.783.496 1.075 1.323 2.088 2.48 3.038 1.158.951 2.708 1.923 4.651 2.915 1.943.951 4.361 2.026 7.255 3.225 2.977 1.24 5.623 2.48 7.938 3.72 2.356 1.241 4.361 2.646 6.015 4.217 1.654 1.53 2.915 3.287 3.783 5.271.868 1.984 1.302 4.362 1.302 7.131ZM722.661 299.001l-2.295-9.426h-.496c-1.364 1.861-2.728 3.473-4.093 4.837a20.046 20.046 0 0 1-4.464 3.287c-1.613.868-3.411 1.509-5.395 1.922-1.985.414-4.279.62-6.884.62-2.852 0-5.477-.413-7.875-1.24-2.398-.786-4.486-2.005-6.263-3.659-1.737-1.695-3.101-3.803-4.093-6.325-.992-2.563-1.488-5.581-1.488-9.054 0-6.78 2.377-11.989 7.131-15.627 4.795-3.638 12.072-5.622 21.828-5.953l11.41-.434v-4.279c0-2.769-.31-5.085-.93-6.945-.579-1.86-1.447-3.349-2.604-4.465-1.117-1.157-2.522-1.984-4.217-2.48-1.654-.496-3.556-.744-5.705-.744-3.432 0-6.636.496-9.612 1.488a61.56 61.56 0 0 0-8.496 3.597l-3.969-8.496c3.06-1.654 6.47-3.059 10.232-4.217 3.762-1.157 7.711-1.736 11.845-1.736 4.216 0 7.854.434 10.914 1.302 3.1.827 5.643 2.171 7.627 4.031 2.026 1.819 3.535 4.155 4.527 7.007.992 2.853 1.488 6.305 1.488 10.356v46.633h-8.123Zm-20.712-7.876c2.522 0 4.857-.392 7.007-1.178 2.15-.785 4.01-1.963 5.581-3.534 1.571-1.613 2.791-3.618 3.659-6.016.909-2.439 1.364-5.291 1.364-8.557v-6.139l-8.867.434c-3.721.165-6.842.579-9.364 1.24-2.522.661-4.548 1.592-6.077 2.791-1.489 1.157-2.564 2.583-3.225 4.278-.661 1.654-.992 3.535-.992 5.643 0 3.804.992 6.594 2.976 8.372 2.026 1.778 4.672 2.666 7.938 2.666ZM643.097 300.241c-4.548 0-8.703-.765-12.465-2.294-3.762-1.53-7.007-3.762-9.735-6.697-2.688-2.936-4.775-6.574-6.264-10.915-1.488-4.34-2.232-9.301-2.232-14.882 0-5.623.682-10.646 2.046-15.069 1.365-4.424 3.287-8.165 5.767-11.224 2.481-3.101 5.437-5.457 8.868-7.07 3.473-1.612 7.297-2.418 11.472-2.418 4.093 0 7.772.744 11.038 2.232 3.266 1.447 6.036 3.514 8.31 6.201 2.274 2.646 4.01 5.85 5.209 9.612 1.24 3.721 1.86 7.855 1.86 12.403v7.007h-42.912c.207 7.979 1.881 13.849 5.023 17.611 3.183 3.762 7.896 5.643 14.139 5.643 2.108 0 4.051-.103 5.829-.31a48.721 48.721 0 0 0 5.209-.868 44.872 44.872 0 0 0 4.899-1.488 91.492 91.492 0 0 0 4.775-2.047v10.046a53.774 53.774 0 0 1-4.899 2.047 37.22 37.22 0 0 1-4.899 1.426 40.33 40.33 0 0 1-5.209.806 63.003 63.003 0 0 1-5.829.248Zm-2.791-61.205c-4.713 0-8.454 1.612-11.224 4.837-2.728 3.224-4.32 7.916-4.775 14.076h30.51c0-2.811-.289-5.374-.868-7.689-.538-2.357-1.406-4.362-2.605-6.015a11.798 11.798 0 0 0-4.464-3.845c-1.819-.91-4.011-1.364-6.574-1.364ZM594.787 229.672c1.199 0 2.542.062 4.03.186 1.489.083 2.77.227 3.845.434l-1.488 10.418a47.05 47.05 0 0 0-3.597-.496 25.065 25.065 0 0 0-3.41-.248c-2.605 0-4.982.537-7.132 1.612-2.15 1.034-4.01 2.543-5.581 4.527-1.529 1.943-2.728 4.299-3.597 7.069-.826 2.729-1.24 5.767-1.24 9.116v36.711h-11.286v-68.089h9.178l1.364 12.464h.496a72.856 72.856 0 0 1 3.287-5.147 25.05 25.05 0 0 1 3.969-4.34 17.965 17.965 0 0 1 4.961-3.039c1.819-.785 3.886-1.178 6.201-1.178ZM521.548 229.671c3.886 0 7.421.744 10.604 2.232 3.183 1.489 5.891 3.721 8.123 6.698 2.274 2.935 4.031 6.593 5.271 10.976 1.241 4.382 1.861 9.467 1.861 15.255 0 5.829-.62 10.955-1.861 15.378-1.24 4.383-2.997 8.062-5.271 11.039-2.232 2.976-4.94 5.229-8.123 6.759-3.183 1.488-6.718 2.232-10.604 2.232-2.439 0-4.651-.268-6.635-.806-1.985-.537-3.783-1.24-5.395-2.108a21.628 21.628 0 0 1-4.217-3.163 30.65 30.65 0 0 1-3.225-3.783h-.744l-2.294 8.62h-8.248v-96.49h11.286v23.316c0 1.447-.02 2.997-.062 4.651a135.566 135.566 0 0 1-.186 4.527 1839.57 1839.57 0 0 1-.248 4.837h.496a27.565 27.565 0 0 1 3.225-4.031 18.955 18.955 0 0 1 4.155-3.225c1.612-.909 3.41-1.612 5.395-2.108 1.984-.537 4.216-.806 6.697-.806Zm-2.171 9.364c-3.307 0-6.077.537-8.309 1.612-2.191 1.034-3.969 2.625-5.333 4.775-1.323 2.15-2.274 4.837-2.853 8.061-.537 3.225-.806 7.008-.806 11.349 0 4.175.269 7.896.806 11.162.579 3.224 1.53 5.953 2.853 8.185 1.364 2.191 3.162 3.866 5.395 5.023 2.232 1.116 5.023 1.674 8.371 1.674 5.582 0 9.674-2.253 12.279-6.759 2.646-4.506 3.969-10.976 3.969-19.409 0-8.599-1.323-15.028-3.969-19.286-2.605-4.258-6.739-6.387-12.403-6.387Z"/>
    <path fill="#fff" d="M199.4 250.266c-4 .8-3.866 1.733 1.334 6.667 10.133 9.6 24.533 14.4 36.533 12.266 3.333-.666 6.533-1.6 6.933-2 1.2-1.2-9.466-9.6-17.2-13.466-7.2-3.6-19.733-5.2-27.6-3.467Z"/>
</svg>
