<svg xmlns="http://www.w3.org/2000/svg" width="596.12" height="324.81">
    <g data-name="Layer 2">
        <g data-name="Layer 1">
            <circle cx="162.42" cy="162.41" r="162.41"/>
            <circle cx="162.42" cy="162.41" r="162.41"/>
            <path d="M37.08 59.1A162.41 162.41 0 0 0 264.12 289Z"/>
            <path d="M37.08 59.1A162.41 162.41 0 0 0 264.12 289Z"/>
            <path fill="#fff" d="M191.14 131.48h11.26v11.26h-11.26Zm0 18h11.26v54.61h-11.26Z"/>
            <path d="M112 205.63a19.2 19.2 0 0 1-12.4-4.49 19.18 19.18 0 0 1-12.4 4.49H50a19.55 19.55 0 0 1-19.54-19.53v-57.89h14.25v57.89a5.28 5.28 0 0 0 5.29 5.27h37.2a5.27 5.27 0 0 0 5.27-5.27v-57.89h14.26v57.89a5.28 5.28 0 0 0 5.27 5.27h37.21a5.28 5.28 0 0 0 5.28-5.27v-57.89h14.25v57.89a19.55 19.55 0 0 1-19.53 19.53Z"/>
            <path fill="#fff" d="M167.24 129.71v56.39a18 18 0 0 1-18 18H112a17.68 17.68 0 0 1-12.4-5 17.66 17.66 0 0 1-12.4 5H50a18 18 0 0 1-18-18v-56.39h11.21v56.39a6.76 6.76 0 0 0 6.79 6.77h37.2a6.76 6.76 0 0 0 6.8-6.77v-56.39h11.26v56.39a6.76 6.76 0 0 0 6.77 6.77h37.21a6.76 6.76 0 0 0 6.76-6.77v-56.39h11.25m3-3H153v59.39a3.78 3.78 0 0 1-3.78 3.77H112a3.77 3.77 0 0 1-3.77-3.77v-59.39H91v59.39a3.77 3.77 0 0 1-3.77 3.77H50a3.78 3.78 0 0 1-3.78-3.77v-59.39H29v59.39a21 21 0 0 0 21 21h37.2a20.69 20.69 0 0 0 12.4-4.08 20.71 20.71 0 0 0 12.4 4.08h37.21a21 21 0 0 0 21-21v-59.39ZM266.37 140.87h-39.71v-11.16h90.57v11.16h-39.6v63.26h-11.26ZM421.19 205.63a19.21 19.21 0 0 1-12.41-4.49 19.16 19.16 0 0 1-12.4 4.49h-37.21a19.55 19.55 0 0 1-19.53-19.53v-57.89h14.26v57.89a5.27 5.27 0 0 0 5.27 5.27h37.21a5.28 5.28 0 0 0 5.28-5.27v-57.89h14.25v57.89a5.28 5.28 0 0 0 5.28 5.27h37.21a5.28 5.28 0 0 0 5.27-5.27v-57.89h14.26v57.89a19.55 19.55 0 0 1-19.53 19.53Z"/>
            <path d="M476.43 129.71v56.39a18 18 0 0 1-18 18h-37.24a17.7 17.7 0 0 1-12.41-5 17.66 17.66 0 0 1-12.4 5h-37.21a18 18 0 0 1-18-18v-56.39h11.23v56.39a6.76 6.76 0 0 0 6.77 6.77h37.21a6.76 6.76 0 0 0 6.78-6.77v-56.39h11.25v56.39a6.76 6.76 0 0 0 6.78 6.77h37.21a6.76 6.76 0 0 0 6.77-6.77v-56.39h11.26m3-3h-17.26v59.39a3.77 3.77 0 0 1-3.77 3.77h-37.21a3.78 3.78 0 0 1-3.78-3.77v-59.39h-17.25v59.39a3.78 3.78 0 0 1-3.78 3.77h-37.21a3.77 3.77 0 0 1-3.77-3.77v-59.39h-17.26v59.39a21.06 21.06 0 0 0 21 21h37.21a20.67 20.67 0 0 0 12.4-4.08 20.72 20.72 0 0 0 12.41 4.08h37.24a21.06 21.06 0 0 0 21-21v-59.39Z"/>
            <path fill="#fff" d="M579.09 205.63v-31.58h-65.17v31.58h-14.25v-57.89a19.55 19.55 0 0 1 19.52-19.53h54.62a19.5 19.5 0 0 1 19.43 19.53v57.89Zm0-45.84v-12a5.34 5.34 0 0 0-5.28-5.38h-54.62a5.34 5.34 0 0 0-5.27 5.38v12Z"/>
            <path d="M573.81 129.71a18 18 0 0 1 17.93 18v56.39h-11.15v-31.55h-68.17v31.58h-11.25v-56.39a18 18 0 0 1 18-18h54.62m-61.39 31.58h68.17v-13.58a6.86 6.86 0 0 0-6.78-6.88h-54.6a6.85 6.85 0 0 0-6.77 6.88v13.55m61.39-34.58h-54.62a21.05 21.05 0 0 0-21 21v59.39h17.25v-31.55h62.17v31.58h17.15v-59.39a21 21 0 0 0-20.93-21Zm-58.39 31.58v-10.55a3.83 3.83 0 0 1 3.77-3.88h54.62a3.84 3.84 0 0 1 3.78 3.88v10.55ZM440.8 241h-10.64v29.35h-5.89V241h-10.54v-4.78h27.07ZM465.22 255.14h-14v10.5h16.39v4.74h-22.34v-34.13h22.15V241H451.2v9.42h14ZM498.45 259.27a12.28 12.28 0 0 1-4 8.52q-3.51 3.06-9.35 3.06a13.29 13.29 0 0 1-7.18-1.94 12.76 12.76 0 0 1-4.8-5.49 19.86 19.86 0 0 1-1.75-8.28V252a20 20 0 0 1 1.71-8.5 12.84 12.84 0 0 1 4.91-5.68 13.76 13.76 0 0 1 7.39-2 13.2 13.2 0 0 1 9.1 3.06 12.79 12.79 0 0 1 4 8.66h-5.9q-.42-3.67-2.15-5.31a7.11 7.11 0 0 0-5-1.63 6.93 6.93 0 0 0-5.94 2.83c-1.38 1.88-2.09 4.65-2.12 8.29v3c0 3.69.66 6.51 2 8.44a6.57 6.57 0 0 0 5.8 2.91 7.64 7.64 0 0 0 5.25-1.57c1.17-1 1.92-2.79 2.23-5.22ZM530.84 270.38h-5.9v-15.14h-15.26v15.14h-5.93v-34.13h5.93v14.2h15.26v-14.2h5.9ZM559 235.5h-3.86v38H559v4.5h-9.56v-46.95H559ZM575.56 251.6h8.91v5.21h-8.91V267H570v-10.19h-8.95v-5.21H570v-9.49h5.53ZM586.51 231.05h9.61V278h-9.61v-4.43h3.91v-38h-3.91Z"/>
        </g>
    </g>
</svg>
