<svg width="204" height="52" viewBox="0 0 204 52" fill="none"
    xmlns="http://www.w3.org/2000/svg">
    <g id="Hudson-black (1) 1" clip-path="url(#clip0_19373_9078)">
        <path id="Vector" d="M77.0236 50.0601V21.3948C75.5049 22.7731 73.0714 22.9135 70.638 22.9135H64.6309V24.0154H70.638V40.3433C70.638 45.4399 65.9242 50.8854 60.5979 50.8854C57.7092 50.8854 55.8799 49.022 55.8799 46.061V21.3948C54.3611 22.7731 51.9319 22.9135 49.4942 22.9135H42.1684V3.4247H47.8266V2.31433H29.5715V3.4247H35.6125V22.9093H12.214V3.4247H18.2593V2.31433H0V3.4247H5.65819V50.0515H0V51.1662H18.2593V50.0515H12.214V24.0196H35.6125V50.0515H29.5715V51.1662H47.8266V50.0515H42.1684V24.0196H49.4942V44.3423C49.4942 48.3371 52.234 51.9915 59.8406 51.9915C66.6092 51.9915 69.7999 46.478 70.4848 44.8954H70.638V51.1662H83.1073V50.0601H77.0236Z" fill="black"/>
        <path id="Vector_2" d="M104.485 41.1388C104.557 46.9204 99.9075 50.8811 95.113 50.8811C88.204 50.8811 87.3574 46.9161 87.3574 36.5442C87.3574 27.0104 88.4167 22.2031 94.6195 22.2031C100.469 22.2031 104.485 27.9166 104.485 32.9919V41.1388ZM128.492 32.9664L125.842 32.826C120.694 32.5452 117.656 31.2944 117.656 27.6485C117.656 24.0111 120.851 22.0542 124.829 22.0542C130.989 22.0542 133.325 25.6916 133.874 29.6778H134.886L134.571 21.3522H133.482V21.9138C133.482 22.8965 133.401 23.3815 132.938 23.3815C132.159 23.3815 129.271 20.9353 125.063 20.9353C118.984 20.9353 115.321 24.9215 115.321 29.9586C115.321 37.2334 120.23 37.863 125.301 38.3608C129.424 38.7777 134.108 38.8458 134.108 44.3763C134.108 48.3668 130.832 50.8811 126.539 50.8811C118.354 50.8811 116.329 44.5805 115.708 41.0155H114.695L114.836 50.0473H110.407V0C108.995 1.59961 106.74 1.74425 104.481 1.74425H98.844V2.85462H104.481V28.1888H104.34C103.073 24.9173 99.6863 21.0884 94.6152 21.0884C86.1535 21.0884 80.5889 29.7204 80.5889 36.54C80.5889 44.6826 86.2981 51.9915 95.1087 51.9915C99.9713 51.9915 103.285 48.4477 104.34 46.0738H104.481V51.1577H115.265L116.014 51.1534C116.172 49.6814 115.938 48.988 116.95 48.988C118.507 48.988 120.379 51.9915 126.535 51.9915C132.538 51.9915 137.375 47.7245 137.375 41.2154C137.375 36.3911 134.801 33.311 128.488 32.9621" fill="black"/>
        <path id="Vector_3" d="M161.79 33.8258C161.79 27.7719 161.509 22.2031 153.613 22.2031C145.721 22.2031 145.432 27.7762 145.432 33.8258V39.2542C145.432 45.3123 145.717 50.8769 153.613 50.8769C161.509 50.8769 161.79 45.3123 161.79 39.2542V33.8258ZM153.613 21.0927C162.704 21.0927 168.554 28.5419 168.554 36.5442C168.554 44.5508 162.704 51.9958 153.613 51.9958C144.517 51.9958 138.672 44.5508 138.672 36.5442C138.672 28.5419 144.517 21.0927 153.613 21.0927Z" fill="black"/>
        <path id="Vector_4" d="M171.868 23.7389H166.295V22.6243H171.868C175.25 22.6243 176.518 22.6243 177.79 21.0927V28.1931H177.93C179.764 24.8535 183.282 21.0927 188.43 21.0927C195.973 21.0927 198.087 24.8492 198.087 28.9546V50.0516H203.652V51.1662H186.601V50.0516H192.165V27.2869C192.165 23.4581 190.259 22.2031 188.004 22.2031C182.083 22.2031 179.058 28.0485 177.79 30.4223V50.0516H183.146V51.1662H166.299V50.0516H171.872V23.7346L171.868 23.7389Z" fill="black"/>
    </g>
    <defs>
        <clipPath id="clip0_19373_9078">
            <rect width="203.652" height="52" fill="white"/>
        </clipPath>
    </defs>
</svg>
