<svg xmlns="http://www.w3.org/2000/svg" id="Layer_1" data-name="Layer 1" viewBox="0 0 800 288.46"><defs><style>.cls-1{fill:#fff;}</style></defs><path class="cls-1" d="M115.25,8.19V122.62a2,2,0,0,1-2.29,2.29H98.22a2,2,0,0,1-2.12-2.29V57.79c0-9.17.65-23.41,1.31-32.42h-.66L70.56,122c-.49,2-1.48,3-3.6,3H52.88c-2.13,0-3.11-1.15-3.6-3L22.76,25.37h-.5c.66,8.85,1.48,23.25,1.48,32.42v64.83a2.07,2.07,0,0,1-2.29,2.29H6.88a2.11,2.11,0,0,1-2.13-2.29V8.19A2.77,2.77,0,0,1,7.86,5.07h23.9A3.46,3.46,0,0,1,35.52,8L51.73,67c3.6,13.75,6.22,23.24,8.35,35.19h.49c2.13-12,4.42-21.61,8.19-35.36L85,8.19c.5-2.13,1.64-3.12,3.61-3.12h23.57A2.85,2.85,0,0,1,115.25,8.19Z"/><path class="cls-1" d="M204,62.54v60.08a2.07,2.07,0,0,1-2.3,2.29h-14.4a2.07,2.07,0,0,1-2.29-2.29V112c-5.57,9-14.74,14.73-25.87,14.73-17,0-27.83-11.13-27.83-27.34,0-16.37,10.8-25.87,34.38-27.5a141.5,141.5,0,0,1,18.5-.17V63.36c0-10.15-5.57-14.25-14.9-14.25s-12.77,3.44-15.06,9.82c-.66,1.81-1.31,2.13-3.11,1.64L136.92,57c-1.48-.49-2-1.31-1.48-2.62,2.62-12.77,14.24-21.61,34.71-21.61C191.27,32.74,204,42.73,204,62.54ZM184.23,95.77V84.64a143.06,143.06,0,0,0-16.86.32c-10.65,1.15-16.7,4.75-16.7,13.26,0,7.37,5.07,12.12,13.75,12.12C173.59,110.34,180.63,104.94,184.23,95.77Z"/><path class="cls-1" d="M242.35,67v55.66a2.07,2.07,0,0,1-2.29,2.29H224.51c-1.64,0-2.46-.82-2.46-2.29V36.67a2,2,0,0,1,2.3-2.13h15.22a2,2,0,0,1,2.29,2.13v11c5.57-8,14.74-14.9,27.18-14.9,17.19,0,26.52,12.44,26.52,30.78v59.1a2,2,0,0,1-2.29,2.29H277.71c-1.63,0-2.45-.82-2.45-2.29V67c0-9.83-4.58-15.72-13.75-15.72C252.83,51.24,245.63,57.63,242.35,67Z"/><path class="cls-1" d="M341.09,14.57V35.2h18c1.31,0,2.13.82,2.13,2.45V49.44c0,1.64-.82,2.29-2.13,2.29h-18V97.24c0,6.55,3.6,9.83,11,9.83h6.88a2,2,0,0,1,2.29,2.29v13.26a2,2,0,0,1-2.29,2.29H348.79c-18.34,0-27.51-9.82-27.51-24.88V51.73H310a2,2,0,0,1-2.29-2.29V37.65c0-1.63.81-2.45,2.29-2.45h11.46V14.57a2.15,2.15,0,0,1,2.29-2.29H338.8A2.06,2.06,0,0,1,341.09,14.57Z"/><path class="cls-1" d="M391.76,86v5.24c0,11.62,6.05,18.82,19,19,12.11,0,15.88-4.75,19-10.81,1.31-2.13,2.13-2.45,4.25-1.47l10.32,5.24c2.29,1.14,2.45,2.45,1.47,4.42-5.4,12-18,19.15-35.2,19.15-25,0-38.3-14.9-38.3-35.85V68.59c0-20.46,12.76-35.85,38-35.85,24.22,0,36.5,15.39,36.5,35.53V82c0,2.62-1,3.93-4.09,3.93Zm0-18.17v4.74H428.1V67.78c0-11.14-6.22-18.5-18.17-18.5S391.76,56.64,391.76,67.78Z"/><path class="cls-1" d="M482.67,2.29V122.62a2.07,2.07,0,0,1-2.29,2.29H464.83c-1.64,0-2.46-.82-2.46-2.29V2.29c0-1.47.82-2.29,2.46-2.29h15.55A2.07,2.07,0,0,1,482.67,2.29Z"/><path class="cls-1" d="M71.05,170.92H52.88C59.1,175,64.34,183.2,64.34,195.64c0,18.34-11.3,29.63-30.62,29.63H23.41c-7.37,0-10.64,3.77-10.64,7.86s3.27,7.69,10.64,7.69H44c20.95,0,28.48,10.81,28.48,22.6,0,13.75-10.47,25-36.67,25C10.31,288.46,0,277.82,0,264.07c0-8.51,3.93-16.37,12.61-20.3A13.78,13.78,0,0,1,6.71,233c0-5.08,3.77-10,9.5-11.79C7.53,216.27,2.78,207.1,2.78,195c0-18.83,11.46-30.13,30.78-30.13H71.05c1,0,1.47.33,1.47,1.8v2.46C72.52,170.59,72,170.92,71.05,170.92Zm-43.71,76c-16.54,0-21.12,8-21.12,16.54,0,11.78,9,19,29.47,19,21.12,0,30.61-7.7,30.61-19.48,0-8.19-4.58-16.05-22.26-16.05Zm6.22-76C18.17,170.92,9,179.27,9,194.82c0,15.39,8.84,24.4,25,24.4,14.57,0,24.07-7.21,24.07-23.58C58.12,180.58,50.09,170.92,33.56,170.92Z"/><path class="cls-1" d="M127.24,165.19v3.44c0,1-.33,1.47-1.64,1.47h-1.31c-13.26,0-22.26,8.84-27.17,19.81v62.87c0,1.3-.82,1.3-1.8,1.3H92.7c-1,0-1.8,0-1.8-1.3V166.17c0-1.31.82-1.31,1.63-1.31h3c.82,0,1.64,0,1.64,1.31L97,181.07a32,32,0,0,1,28.82-17.35C126.75,163.72,127.24,164.05,127.24,165.19Z"/><path class="cls-1" d="M205.34,196.13v26.69c0,20.13-12,32.9-33.23,32.9s-33.23-12.77-33.23-32.9V196.13c0-20.13,12-32.9,33.23-32.9S205.34,176,205.34,196.13Zm-60.24.33v26c0,18.33,10.48,27.17,27,27.17s27-8.84,27-27.17v-26c0-18.34-10.48-27.18-27-27.18S145.1,178.12,145.1,196.46Z"/><path class="cls-1" d="M226.83,228.06V166.34c0-1,.32-1.48,1.8-1.48h2.62c1.47,0,1.8.5,1.8,1.48v60.57c0,14.57,6.38,22.75,20.63,22.75,11.62,0,22.75-8,28.15-20V166.34c0-1,.33-1.48,1.8-1.48h2.62c1.48,0,1.8.5,1.8,1.48v86.27c0,1-.32,1.47-1.8,1.47h-2.62c-1.47,0-1.8-.49-1.8-1.47v-13.1c-6.05,9.17-16,16.21-29,16.21C235.67,255.72,226.83,244.1,226.83,228.06Z"/><path class="cls-1" d="M313.37,286.83a1.2,1.2,0,0,1-1.31-1.31V166.17c0-1.31.66-1.31,1.64-1.31h2.95c.65,0,1.63,0,1.63,1.31v12c4.26-7.85,13.59-14.89,27.51-14.89,19.48.16,31.43,12.77,31.43,32.9v26.69c0,20.13-12,32.74-31.43,32.9-13.92,0-23.25-7-27.51-15.06v44.86c0,1-.49,1.31-1.47,1.31ZM371,222.49v-26c0-18.34-10.31-27-25.54-27.18-13.75,0-27.18,9.17-27.18,27.34v25.71c0,18.17,13.43,27.33,27.18,27.33C360.69,249.5,371,240.82,371,222.49Z"/><path class="cls-1" d="M695.49,52.94a22.55,22.55,0,0,0-38.61,0L590.64,159.26l-8.72,13.79c-38.94,61.63-57,90.16-70.84,103.23H760.62a39.31,39.31,0,0,0,33.66-59.62Z"/><path class="cls-1" d="M458.29,262.57a26.68,26.68,0,0,0,23.49,13.71c22.17,0,27.37-8.23,91-109l6.89-10.9c-14.1-22.64-24-39.45-24.12-39.62a14.83,14.83,0,0,0-25.38,0L458.69,235.37A26.68,26.68,0,0,0,458.29,262.57Z"/></svg>
