<?xml version="1.0" encoding="utf-8"?>
<!-- Generator: Adobe Illustrator 19.2.1, SVG Export Plug-In . SVG Version: 6.00 Build 0)  -->
<svg version="1.1" id="layer" xmlns="http://www.w3.org/2000/svg" xmlns:xlink="http://www.w3.org/1999/xlink" x="0px" y="0px"
	 viewBox="0 0 652 652" style="enable-background:new 0 0 652 652;" xml:space="preserve">
<style type="text/css">
	.st0{fill:#FFF;}
</style>
<path class="st0" d="M232.5,278.6h-78.5v14.6h31.6v80.3h15.3v-80.3h31.6V278.6z M235.2,311.4l-1.4-8.2h-13.7v70.3h15.3v-46.7
	c2.3-3.2,5.5-5.7,9.6-7.3c4.3-1.8,8.9-3,13.7-3h2.7v-14.8h-2.7C249.5,301.8,241.6,305,235.2,311.4z M269.1,276.1h16.2v16.2h-16.2
	V276.1z M269.6,303.2h15.3v70.3h-15.3V303.2z M463,301.8c-8.4,0-16.2,3.2-23,9.8l-1.4-8.4H425v70.3h15.3v-45.8
	c6.1-7.5,13-11.4,19.8-11.4c8.6,0,12.7,4.6,12.7,14.3v42.8h15.3v-44.2c0-7.7-2.3-14.3-6.6-19.6C476.9,304.6,470.8,301.8,463,301.8z
	 M519.9,286.4l-27.8,27.3v3.2h12.5v38.9c0,12.5,7.3,19.1,20.9,19.1c4.6,0,8.6-1.1,12.5-3.2l0.9-0.5v-12.5h-3l-0.2,0.2
	c-5.9,2.5-10.9,2.3-13.7,1.1c-1.4-0.7-2-2.3-2-5.2v-38h19.1v-13.7h-19.1L519.9,286.4L519.9,286.4z M547.9,276.1h16.2v16.2h-16.2
	V276.1z M548.4,303.2h15.3v70.3h-15.3V303.2z M621.9,340.5c-3-3.4-6.4-5.5-10.7-6.6l-11.6-3c-3.6-0.9-7.1-2-9.6-3.4
	c-3-1.4-3.2-3-3.2-4.3c0-1.8,1.1-3.4,3.2-4.8c2.3-1.4,6.1-2.3,11.6-2.3c5.2,0,10.9,1.1,16.6,3.6l0.2,0.2h3v-13.9l-1.1-0.5
	c-6.8-2.5-14.1-3.9-21.9-3.9c-8,0-14.3,2-19.1,6.1c-4.8,4.1-7.3,9.6-7.3,16.2c0,4.8,1.6,8.9,4.6,12.3c3,3.2,6.6,5.2,10.7,6.4
	l11.6,3.2c3.6,0.9,6.8,2,9.6,3.4c3.2,1.4,3.2,3,3.2,3.4c0,3.2-1.4,7.7-12.7,7.7c-8.2,0-15.7-2-22.5-6.1l-0.5-0.2h-2.7v14.1l0.9,0.5
	c7.3,4.1,15.7,6.1,24.6,6.1c9.1,0,16.2-2,20.7-5.9c4.8-4.1,7.3-8.9,7.3-14.8C626.2,348.5,624.9,343.7,621.9,340.5z M385.9,301.8
	c-4.1,0-8.4,0.7-12.3,2.3c-4.1,1.6-7.5,3.9-10.7,6.8c-3.2,3-5.7,6.8-7.5,11.4c-1.8,4.6-2.7,10-2.7,16.2c0,5.2,0.7,10,2.3,14.3
	c1.4,4.3,3.6,8.2,6.8,11.4c3,3.2,6.8,5.7,11.6,7.5c4.6,1.8,10.2,2.7,16.6,2.7c2.5,0,5-0.2,7.3-0.5c2.3-0.2,4.6-0.7,6.6-0.9
	c2-0.5,3.9-0.9,5.5-1.4s2.7-0.9,3.6-1.4l-2-12.7c-1.8,0.7-4.6,1.6-7.7,2c-3.4,0.7-7.1,1.1-11.2,1.1c-7.1,0-12.3-1.6-15.9-4.8
	s-5.7-7.5-6.4-13.2v-0.2h47.8c0-0.9,0.2-1.8,0.2-2.7c0-1.1,0-2,0-3c0-11.8-2.7-20.7-8.2-26.6C403.4,304.8,395.7,301.8,385.9,301.8z
	 M401.1,331.7h-31.6v-0.2c0.2-2,0.9-4.1,1.6-6.1c0.7-2,1.8-3.9,3.2-5.2c1.4-1.6,3-2.7,5-3.6s4.3-1.4,6.8-1.4c2.5,0,4.8,0.5,6.6,1.4
	s3.4,2,4.6,3.6c1.4,1.6,2.3,3.2,3,5.2S401.1,329.4,401.1,331.7L401.1,331.7L401.1,331.7z M333.3,301.4c-22.5,0-40.1,15.9-40.1,36.4
	v0.2c0,20.3,17.5,36.2,40.1,36.2c8.2,0,15.3-1.6,21.4-5c0,0,0,0-0.2-0.2c-0.2-0.2-0.5-0.5-0.7-0.7l0,0c-2.7-3-5-6.4-6.6-10.2
	c-4.1,2-8.2,3.2-12.7,3.2c-13.7,0-24.1-10-24.1-23.4v-0.2c0-13,10.2-23.2,23.2-23.2c5.2,0,9.8,1.1,13.9,3.6c2-4.6,4.8-8.6,7.7-11.8
	C348.8,303,341.7,301.4,333.3,301.4z M42,364.4l-15.3-15.3l23-23l-22.8-22.8L42.2,288l38,38.2L42,364.4z M65.4,387.9l-15.3-15.3
	l38.2-38.2l38.2,38l-15.3,15.3l-23-22.8L65.4,387.9z M88.4,318l-38.2-38l15.5-15.3l22.8,22.8l23-23l15.3,15.3L88.4,318z"/>
</svg>
