<svg xmlns="http://www.w3.org/2000/svg" width="5117.333" height="1577.333" version="1.0" viewBox="0 0 3838 1183">
    <path fill="#fff" d="M0 1.3c0 1.3 80.6 581.4 81.5 585.9l.4 2.8H0v593.1l267.8-.4c293.5-.4 274 0 304.7-6.2 91.1-18.4 169.7-82.5 207-168.8 32.4-75 33.5-161.3 2.9-236.7-14.2-34.9-34-65.3-60.4-92.3-23.1-23.9-47.7-42.2-75.5-56.4-41.1-20.9-79-30.2-129.9-32l-20.1-.7 11-1.6c105.6-16 195.5-89.8 232-190.5 6-16.7 11.8-39.3 14.7-57.6 1.9-12.4 2.2-18.4 2.3-43.4 0-18.7-.5-32.2-1.3-38-6.8-47.2-22.1-88.3-46.6-125.5C678 86.6 634 48.9 584.3 26.5 551.6 11.8 517.4 3.4 480.4 1 455.2-.6 0-.4 0 1.3zM1097 560.5V900h182.3c182.1 0 193.2-.2 217.2-3.6 90.9-12.9 146.1-56.8 165-131.4 8.3-32.8 9.7-76.9 3.4-108.2-12-59.9-52-100.4-114.4-115.8-7.1-1.8-13.1-3.4-13.3-3.5-.1-.1 2.6-1.2 6-2.5 10.4-3.7 27.7-12.4 37.6-19 11.3-7.5 26.3-21.6 34.2-32.3 10.9-14.6 19.8-34.7 24.1-54.5 2.7-12.3 3.8-47.6 2-63.3-10.4-90.5-71.4-137.1-188.3-143.9-10.3-.6-85.6-1-186.5-1H1097v339.5zm309.5-197.4c11.4 1.4 24.2 5.1 32 9.2 12.6 6.7 22.3 19.7 26.2 35.3 2.4 9.7 2.4 33.4-.1 42.4-7.1 26-25.1 39.7-57.7 44-4.1.5-36.8 1-72.6 1H1269V362h64.3c40.7 0 67.5.4 73.2 1.1zm10.6 238.9c32 3.3 53.5 13.1 64.5 29.7 8 12.1 11.5 26.7 11.5 48.3 0 47.7-18.6 69.3-67.1 77.6-8 1.4-20.9 1.7-83.2 2.1l-73.8.4V601h68.9c40.6 0 73.1.4 79.2 1zM1728 560.5V900h153V221h-153v339.5zM2175 398.7c-16.7 1.2-44.4 6.3-60 10.9-77.1 22.9-132.2 75.3-157.5 150-22.4 66.3-20.2 150 5.6 212.1 36.5 87.8 115.2 139.4 219.8 144.2 105.3 4.7 188.7-32.5 236.7-105.9 50.1-76.6 56.7-195.3 15.5-280.5-36.8-76.2-107.5-122.1-201.1-130.5-10.5-.9-48.1-1.1-59-.3zm48.8 115.9c19.1 3.9 32.4 10.8 45.2 23.4 4.8 4.7 10.5 11.2 12.7 14.5 11.3 16.9 18.7 38.1 23 65.5 2.2 14.5 2.5 60.3.5 75-7.1 50.5-26.1 82.9-57.9 98.9-13.7 6.9-35.3 10.9-51.8 9.6-55.1-4.1-87-40-96.7-108.5-2-14.7-1.7-60.5.5-75 7.5-48.1 25.7-79.1 55.6-94.4 15.7-8 26.3-10.4 46.9-10.5 9.4-.1 16.9.4 22 1.5zM2737 398.6c-1.9.2-8 .9-13.5 1.5-13.9 1.4-36.8 6.1-51 10.4-88.7 26.9-148.3 95.7-164.9 190.5-3.9 22.1-4.9 37.6-4.3 65.9.8 36.2 4.2 57.3 14.3 88.1 28.9 88.1 99.9 145.1 197.6 158.5 24.4 3.3 64.8 3.6 88.2.5 33.9-4.4 59.1-11.8 87.1-25.5 25.4-12.4 42.9-25 62.6-45.1 35.7-36.7 56.9-81.6 66.1-139.9 2-12.4 2.2-17.8 2.2-48 0-30.4-.2-35.5-2.2-48.4-2.7-17.3-8.7-41-13.7-54.7-4.9-13.4-17.1-37.9-24.2-48.9-36.9-56.4-94.9-91.4-170.3-102.6-10.5-1.6-19.8-2.1-42-2.4-15.7-.2-30.1-.1-32 .1zm53.5 117.3c41.8 11.2 67.1 46.5 75.1 105.1 2.5 17.5 2.4 54.7 0 72.5-6.8 49.8-26.6 83.3-57.9 98.5-27.5 13.2-64.2 12.9-91.5-.9-28.6-14.4-47.8-45-55.1-87.9-7.6-44.8-3.3-97.6 10.7-129.9 13-30.2 34.9-50.1 62.7-57.1 11.6-3 12.3-3 31-2.7 13.6.2 18.6.7 25 2.4zM3366 400.1c-43.3 5.6-84.2 27.6-111.1 59.7-4.4 5.4-10.2 13-12.7 17.1l-4.7 7.3-.3-35.1-.2-35.1h-153v486h152.9l.4-152.3c.3-165.7 0-155.9 5.8-173.7 8.4-25.5 26.6-43 50.6-48.7 10.8-2.5 34.7-2.5 45.5 0 23.6 5.5 35.9 20.4 41.3 49.7 3.1 17 3.5 38.2 3.5 181.2V900h153V751.6c0-99.5.4-151 1.1-156.3 1.8-13.2 4.8-23.4 10.1-34.2 9.1-18.6 23.8-30.4 44.3-35.7 9.6-2.5 36.9-2.6 46.9-.1 20.9 5.2 33.1 18.2 39 41.7 4.5 17.9 4.6 22 4.6 181.5V900h155.1l-.4-178.3c-.3-197 .1-183.9-6.8-211.7-7.4-29.6-19.3-51.7-38.3-70.6-19.5-19.4-41.1-30.7-71-37-14.8-3.1-45.8-4.4-63.2-2.5-50.6 5.3-91.5 28.6-131.9 75.1-4.3 4.9-8.2 9-8.5 9-.3 0-1.6-2.8-3-6.2-1.3-3.4-4.8-10.2-7.7-15.1-20.3-34.4-52.9-56.1-93.3-62.2-10.3-1.6-37.1-1.8-48-.4z"/>
</svg>
