<?xml version="1.0" encoding="utf-8"?>
<!-- Generator: Adobe Illustrator 24.1.0, SVG Export Plug-In . SVG Version: 6.00 Build 0)  -->
<svg version="1.1" id="Layer_1"
    xmlns="http://www.w3.org/2000/svg"
    xmlns:xlink="http://www.w3.org/1999/xlink" x="0px" y="0px" viewBox="0 0 152.6019897 62.7619972" style="enable-background:new 0 0 152.6019897 62.7619972;" xml:space="preserve">

    <g fill="#fff">
        <path class="st0" d="M140.9589844,14.4069977h4.2999878v17.1989975h-4.2999878V14.4069977z M145.7059937,2.6169968 C145.7059937,1.1679993,144.5789795,0,143.1299744,0c-1.4499817,0-2.6170044,1.1679993-2.6170044,2.6169968 c0,1.4490051,1.1670227,2.5770035,2.6170044,2.5770035C144.5789795,5.1940002,145.7059937,4.0660019,145.7059937,2.6169968"/>
        <path class="st1" d="M131.7459717,18.0919952h-4.3000183V0.8929977h4.3000183V18.0919952z M126.9879761,29.8829956 c0,1.4490051,1.1269836,2.6170044,2.5769958,2.6170044c1.4489746,0,2.6159973-1.1679993,2.6159973-2.6170044 c0-1.4499969-1.1670227-2.5769958-2.6159973-2.5769958C128.1149597,27.3059998,126.9879761,28.4329987,126.9879761,29.8829956"/>
        <path class="st2" d="M151.7089844,11.6429977h-17.1990051V7.3429031h17.1990051V11.6429977z M122.7200012,6.8959961 c-1.4500122,0-2.6170044,1.1270065-2.6170044,2.5770035c0,1.4489975,1.1669922,2.6169968,2.6170044,2.6169968 c1.4489746,0,2.5769958-1.1679993,2.5769958-2.6169968C125.2969971,8.0230026,124.1689758,6.8959961,122.7200012,6.8959961"/>
        <path class="st3" d="M120.9959717,20.8560028h17.1990051v4.298996h-17.1990051V20.8560028z M149.9859924,25.6029968 c1.4489746,0,2.6159973-1.1269989,2.6159973-2.5769958c0-1.4489975-1.1670227-2.6169968-2.6159973-2.6169968 -1.4500122,0-2.5770264,1.1679993-2.5770264,2.6169968C147.4089661,24.4759979,148.5359802,25.6029968,149.9859924,25.6029968"/>
        <path class="st4" d="M0,22.6459961h4.9799957v30.4110031H0V22.6459961z M55.9559937,25.163002 c0-1.5830002-1.2310181-2.8570023-2.8130188-2.8570023c-1.5829773,0-2.8579712,1.2740021-2.8579712,2.8570023 c0,1.5820007,1.2749939,2.8129959,2.8579712,2.8129959C54.7249756,27.9759979,55.9559937,26.7450027,55.9559937,25.163002  M55.5599976,31.6050034H50.723999v21.4519958h4.8359985V31.6050034z M28.1190033,40.1240005h-0.0039978 c0-5.9039993-3.7630005-9.1340027-9.9970093-9.1340027c-4.3269958,0-7.7859955,1.9570007-8.1889954,2.1539993v19.9140015h4.8359985 V35.9140015c0.5269928-0.2330017,1.9620056-0.7910004,3.5939941-0.7910004c3.2910004,0,4.9240112,1.8420029,4.9240112,4.9459991 v12.9889984h4.8359985V40.1240005z M102.0239868,40.1240005c0-5.6110001-3.9459839-9.1380005-8.9880066-9.1380005 c-2.9230042,0-4.2509766,0.8590012-4.3629761,0.9280014V21.5329971h-4.835022v31.5250015h4.835022V35.9150009 c0.1579895-0.0800018,1.6009827-0.7919998,3.4489746-0.7919998c3.256012,0,5.0700073,1.7639999,5.0700073,4.9459991v12.9889984 h4.8349915V40.1240005H102.0239868z M47.0629883,46.9700012c0-3.5930023-2.5820007-5.1819992-5.1950073-6.3150024 c-0.4549866-0.197998-1.8499756-0.7740021-2.0849915-0.8740005c-1.8179932-0.7770004-3.0939941-1.3089981-3.0939941-2.7639999 c0-1.0929947,0.8599854-2.1329956,3.428009-2.1329956c2.4769897,0,4.6199951,1.2709961,4.8399963,1.4020004l1.7980042-3.3619995 c-0.132019-0.0880051-2.5050049-1.9350052-6.9450073-1.9350052c-4.70401,0-7.9649963,2.5480042-7.9649963,6.4160004 c0,3.461998,2.4530029,4.9960022,4.7739868,5.9520035c0.29599,0.121994,2.3500061,0.9909973,2.802002,1.1699982 c1.8380127,0.7299957,2.7189941,1.4850006,2.7189941,2.6940002c0,1.3129959-1.2219849,2.512001-3.8209839,2.512001 c-2.7230225,0-5.0559998-1.5210037-5.4429932-1.7509995l-1.8140259,3.3610001 c0.2640076,0.2199936,3.2520142,2.2859955,7.8250122,2.2859955C43.6340027,53.6289978,47.0629883,51.1900024,47.0629883,46.9700012  M79.1080017,33.1439972v18.3550034c0,6.5969963-2.9909973,11.2629967-10.7369995,11.2629967 c-3.0380249,0-5.2220154-0.5709991-5.6000061-0.6739998v-3.9620018c0.5090027,0.151001,2.7389832,0.7380028,4.9920044,0.7380028 c4.8209839,0,6.5099792-2.3930016,6.5099792-5.6809998v-0.4029999c-0.3239746,0.1470032-1.815979,0.8479996-4.1689758,0.8479996 c-6.9430237,0-10.7330017-5.177002-10.7330017-11.2959976c0-6.461998,4.0059814-11.3420029,11.2539978-11.3420029 C74.9329834,30.9899979,78.5369873,32.8799973,79.1080017,33.1439972 M74.2729797,35.9140015 c-0.3079834-0.1310043-1.7579956-0.7910004-3.7359924-0.7910004c-3.605011,0-6.2869873,2.6809998-6.2869873,7.2089996 c0,4.8600006,3.0589905,7.1669998,6.289978,7.1669998c1.8850098,0,3.5570068-0.663002,3.7330017-0.7939987V35.9140015z  M111.2160034,35.5619965h5.4809875v-3.9569931h-5.526001v-6.4480057h-4.7900085v19.3349991 c0,5.8580017,2.6360168,8.5660019,8.3880005,8.5660019h1.928009v-4.0439987c-3.8990173,0-5.4809875-1.1210022-5.4809875-5.1409988 V35.5619965z"/>
        <path class="st4" d="M123.0249634,50.0660019c-1.1340027,0-2.0270081,0.9219971-2.0270081,2.0230026v0.010994 c0,1.1000061,0.882019,2.0100021,2.0159912,2.0100021c1.1340027,0,2.0280151-0.9219971,2.0280151-2.0209961V52.076004 C125.0419617,50.977005,124.1589661,50.0660019,123.0249634,50.0660019 M124.7179565,52.0890045 c0,0.9379959-0.7330017,1.7080002-1.70401,1.7080002c-0.9649963,0-1.6919861-0.7580032-1.6919861-1.6980057v-0.0099945 c0-0.9400024,0.7319946-1.7089996,1.7030029-1.7089996c0.9660034,0,1.6929932,0.7589951,1.6929932,1.697998V52.0890045z  M123.5039673,52.3209991c0.2619934-0.0960007,0.4419861-0.3050003,0.4419861-0.635994v-0.0100021 c0-0.1819992-0.0579834-0.3359985-0.1699829-0.447998c-0.1440125-0.1450043-0.3569946-0.2240067-0.6350098-0.2240067H122.22995 v2.0530014h0.4530029v-0.6619949h0.3569946l0.4370117,0.6619949h0.5280151L123.5039673,52.3209991z M123.4879761,51.711998 c0,0.1710052-0.1230164,0.2940063-0.3520203,0.2940063h-0.4530029v-0.602005h0.4420166 c0.223999,0,0.3630066,0.1010056,0.3630066,0.2970047V51.711998z"/>
    </g>
</svg>
