<svg xmlns="http://www.w3.org/2000/svg" viewBox="0 0 209.98 54.48">
    <title>Bankwest logo</title>
    <g id="Group" fill="#FFFFFF" fill-rule="nonzero">
        <path class="a" d="M480.21,506.59a7.71,7.71,0,0,0-5.51,2v-7.08a1.5,1.5,0,0,0-3,0v20a1.5,1.5,0,0,0,3,0V521a7.71,7.71,0,0,0,5.51,2c4.92,0,8.23-3.29,8.23-8.19a7.79,7.79,0,0,0-8.23-8.23m5.17,8.23c0,3.55-2,5.66-5.26,5.66s-5.57-2.17-5.57-5.66,2.13-5.69,5.57-5.69,5.26,2.08,5.26,5.69" transform="translate(-407.01 -484.76)"/>
        <path class="a" d="M505.67,506.59a1.49,1.49,0,0,0-1.5,1.44v.6a8.29,8.29,0,0,0-13.73,6.18c0,4.9,3.31,8.19,8.23,8.19a7.8,7.8,0,0,0,5.51-2v.6a1.5,1.5,0,0,0,3,0V508a1.49,1.49,0,0,0-1.5-1.44m-1.34,8.23c0,3.49-2.13,5.66-5.57,5.66s-5.26-2.12-5.26-5.66,1.92-5.69,5.26-5.69,5.57,2.18,5.57,5.69" transform="translate(-407.01 -484.76)"/>
        <path class="a" d="M523.82,508.24a6.91,6.91,0,0,0-4.81-1.65,7.3,7.3,0,0,0-5.14,1.88V508a1.5,1.5,0,0,0-3,0v13.55a1.5,1.5,0,0,0,3,0v-8c0-2.87,1.65-4.52,4.52-4.52s4.3,1.41,4.3,4.58v8a1.5,1.5,0,0,0,3,0v-8.45a6.43,6.43,0,0,0-1.87-4.87" transform="translate(-407.01 -484.76)"/>
        <path class="a" d="M542.93,507.93a1.41,1.41,0,0,0-1.4-1.34,1.26,1.26,0,0,0-.78.27l-8.8,7V501.51a1.5,1.5,0,0,0-3,0v20.06a1.5,1.5,0,0,0,3,0v-4.24l3.17-2.52,5.09,7.55a1.45,1.45,0,0,0,1.17.63,1.59,1.59,0,0,0,1.56-1.53,1.3,1.3,0,0,0-.24-.77L537.38,513l5-4a1.37,1.37,0,0,0,.5-1" transform="translate(-407.01 -484.76)"/>
        <path class="a" d="M567.33,506.59a1.33,1.33,0,0,0-1.31.91l-3.82,11.33-3.85-11.27a1.66,1.66,0,0,0-1.49-1,1.61,1.61,0,0,0-1.46,1l-3.88,11.27-3.82-11.33a1.33,1.33,0,0,0-1.31-.91,1.52,1.52,0,0,0-1.53,1.5,2.08,2.08,0,0,0,.13.66L550,522a1.54,1.54,0,0,0,1.49,1,1.58,1.58,0,0,0,1.52-1l3.82-10.94L560.75,522a1.61,1.61,0,0,0,3,0l5-13.27a2.05,2.05,0,0,0,.13-.66,1.52,1.52,0,0,0-1.53-1.5" transform="translate(-407.01 -484.76)"/>
        <path class="a" d="M584.33,508.77a8.31,8.31,0,0,0-5.72-2.18,8.45,8.45,0,0,0-5.92,2.3,8.13,8.13,0,0,0-2.43,5.93,8,8,0,0,0,2.41,6,8.63,8.63,0,0,0,6,2.19,10.12,10.12,0,0,0,6.49-1.91,1.32,1.32,0,0,0,.47-1,1.28,1.28,0,0,0-1.28-1.31,1.32,1.32,0,0,0-1,.36,7.14,7.14,0,0,1-4.71,1.43,5.45,5.45,0,0,1-3.63-1.36,5.17,5.17,0,0,1-1.72-3.67h11.52a1.68,1.68,0,0,0,1.74-1.9,6.77,6.77,0,0,0-2.23-4.87m-.53,4.58H573.31a5.35,5.35,0,0,1,10.49,0" transform="translate(-407.01 -484.76)"/>
        <path class="a" d="M596.31,513.32c-2.12-.37-4.32-.75-4.32-2.33,0-1.3,1.34-2,3.69-2a5.33,5.33,0,0,1,3.88,1.48l.05,0a1.89,1.89,0,0,0,1.35.66,1.24,1.24,0,0,0,1.22-1.25,1.54,1.54,0,0,0-.46-1,9,9,0,0,0-6.22-2.25c-3.7,0-6.5,1.94-6.5,4.52,0,3.11,2.7,3.86,6.23,4.52l.57.1c1.79.29,4.25.69,4.25,2.51,0,1.06-.73,2.33-4.21,2.33a6.06,6.06,0,0,1-4.82-2.31,1.52,1.52,0,0,0-1.23-.63A1.33,1.33,0,0,0,588.5,519c0,.88,1.3,2,2,2.53a9.12,9.12,0,0,0,5,1.5,10.14,10.14,0,0,0,5.17-1.23,4.08,4.08,0,0,0,2.16-3.57c0-3.53-3.38-4.38-6.54-4.89" transform="translate(-407.01 -484.76)"/>
        <path class="a" d="M615.71,519.67a2.55,2.55,0,0,0-1,.24,4.71,4.71,0,0,1-1.9.38c-1.76,0-2.58-.83-2.58-2.61v-8.44h4.58a1.25,1.25,0,1,0,0-2.5h-4.58v-3.81a1.55,1.55,0,0,0-1.53-1.53,1.52,1.52,0,0,0-1.5,1.53v3.81h-2a1.25,1.25,0,1,0,0,2.5h2v8.47c0,3.46,1.84,5.29,5.33,5.29a8.61,8.61,0,0,0,3-.48c1-.37,1.47-.92,1.47-1.57a1.28,1.28,0,0,0-1.28-1.28" transform="translate(-407.01 -484.76)"/>
        <path class="a" d="M434.25,484.76a27.24,27.24,0,0,0,0,54.48h0a27.24,27.24,0,1,0,0-54.48M458.64,512a24.4,24.4,0,1,1-24.38-24.42A24.23,24.23,0,0,1,458.64,512" transform="translate(-407.01 -484.76)"/>
        <path class="a" d="M445.33,500.87a5,5,0,0,0-4.64,4.63c0,.08,0,.16,0,.24a4.77,4.77,0,0,0,1.78,3.75l1,.85-3.55,3.13-3.49-3.09,1.09-1a4.86,4.86,0,0,0,1.66-3.33c0-.09,0-.18,0-.28a5,5,0,0,0-1.56-3.62,5,5,0,0,0-8.35,3.29,5.17,5.17,0,0,0,0,.53,4.86,4.86,0,0,0,1.66,3.4l1.09,1-3.5,3.08L425,510.34l1.09-.91a4.7,4.7,0,0,0,1.71-3.59v0a5,5,0,0,0-1.56-3.62,4.91,4.91,0,0,0-3.71-1.34,5,5,0,0,0-4.64,4.63c0,.08,0,.16,0,.24a4.85,4.85,0,0,0,1.67,3.69l6.77,6-1.09,1a4.86,4.86,0,0,0-1.66,3.38,5,5,0,1,0,9.91.24c0-.09,0-.19,0-.28a4.85,4.85,0,0,0-1.65-3.33l-1.09-1,3.5-3.08,3.49,3.09-1.09,1a4.86,4.86,0,0,0-1.66,3.38,5.35,5.35,0,0,0,0,.54,5,5,0,0,0,4.63,4.65h.32a5,5,0,0,0,5-5c0-.09,0-.18,0-.27a4.84,4.84,0,0,0-1.65-3.33l-1.09-1,6.79-6a4.85,4.85,0,0,0,1.66-3.33c0-.09,0-.18,0-.28a5,5,0,0,0-5.27-5m-6.76,17.7,1.36-1.2,1.37,1.21a1.91,1.91,0,0,1,.67,1.3s0,.08,0,.11a2,2,0,0,1-2.17,2,2.06,2.06,0,0,1-1.9-1.91c0-.07,0-.15,0-.23a1.92,1.92,0,0,1,.67-1.32m-4.32-10.13-1.36-1.21a1.92,1.92,0,0,1-.67-1.33,2.23,2.23,0,0,1,0-.22,2.06,2.06,0,0,1,1.9-1.9h.13a2,2,0,0,1,2,2s0,.08,0,.12a1.91,1.91,0,0,1-.67,1.31Zm10.07-1.19a1.89,1.89,0,0,1-.72-1.46s0-.07,0-.1a2.06,2.06,0,0,1,1.9-1.9h.13a2,2,0,0,1,2,2s0,.08,0,.11a1.92,1.92,0,0,1-.67,1.31l-1.3,1.15Zm-17.14,11.32,1.36-1.2,1.37,1.21a1.91,1.91,0,0,1,.67,1.3s0,.08,0,.12a2,2,0,0,1-2.17,2,2.06,2.06,0,0,1-1.9-1.91,1.84,1.84,0,0,1,.67-1.55m-6.36-12.79s0-.07,0-.1a2.06,2.06,0,0,1,1.9-1.9h.13a2,2,0,0,1,2,2.06,1.78,1.78,0,0,1-.66,1.35l-1.44,1.2-1.29-1.14a1.94,1.94,0,0,1-.69-1.46" transform="translate(-407.01 -484.76)"/>
    </g>
</svg>
