
<svg width="445.4948px" height="386.8339px" viewBox="0 0 445.4948 386.8339" version="1.1" xmlns="http://www.w3.org/2000/svg" xmlns:xlink="http://www.w3.org/1999/xlink">
    <g id="Page-1" stroke="none" stroke-width="1" fill="none" fill-rule="evenodd">
        <g id="Group-26" fill="#FFF">
            <path d="M190.9706,386.8339 C188.3956,386.4439 185.7936,386.1819 183.2506,385.6439 C156.4426,379.9669 139.0056,363.9889 131.7186,337.5929 C127.7466,323.2039 128.5896,308.6769 133.6136,294.5599 C139.6206,277.6799 150.9126,265.4829 167.4316,258.6149 C187.9836,250.0699 208.8046,250.2429 229.5376,258.2399 C235.5796,260.5699 240.9736,264.0669 245.8936,268.2779 C246.5666,268.8539 247.2016,269.4719 247.9386,270.1479 C246.9136,271.7199 245.9296,273.2409 244.9326,274.7539 C242.9186,277.8079 240.9506,280.8939 238.8646,283.8979 C236.2756,287.6269 232.4546,288.6289 228.3096,286.7789 C227.7246,286.5189 227.1416,286.2329 226.6086,285.8829 C216.8696,279.4779 206.1666,276.9469 194.5886,277.8099 C185.7656,278.4679 178.1026,281.6699 171.8906,288.0569 C166.9716,293.1139 163.9076,299.2229 162.3496,306.0329 C159.6146,317.9899 159.9606,329.8399 164.8806,341.2059 C170.6516,354.5369 180.9486,361.8619 195.4666,363.1519 C203.2866,363.8469 210.8326,362.6529 218.1466,359.8559 C218.8246,359.5969 219.3546,359.3829 219.3496,358.4599 C219.3126,351.2349 219.3256,344.0099 219.3166,336.7859 C219.3156,336.5979 219.2446,336.4109 219.1726,336.0609 C218.3866,336.0609 217.6076,336.0619 216.8296,336.0609 C212.2276,336.0559 207.6246,336.0849 203.0226,336.0369 C197.8676,335.9819 194.5736,333.4079 193.2486,328.4559 C192.0376,323.9289 190.8566,319.3929 189.6666,314.8599 C189.5936,314.5809 189.5596,314.2909 189.4886,313.9019 L246.9916,313.9019 C247.0146,314.3919 247.0606,314.9119 247.0606,315.4309 C247.0646,334.0869 247.0566,352.7429 247.0846,371.3979 C247.0856,372.3909 246.7966,372.9899 245.9676,373.5749 C236.5676,380.2039 226.0916,384.0369 214.7586,385.6179 C211.6786,386.0479 208.5666,386.2469 205.4716,386.5669 C205.0876,386.6069 204.7136,386.7429 204.3356,386.8339 L190.9706,386.8339 Z" id="Fill-4"></path>
            <path d="M0,253.7916 C7.968,253.8046 15.937,253.7286 23.902,253.8916 C26.015,253.9346 28.232,254.4226 30.187,255.2266 C32.559,256.2016 33.918,258.3426 34.794,260.7696 C42.975,283.4176 51.236,306.0366 59.335,328.7146 C61.954,336.0496 64.161,343.5316 66.562,350.9456 C66.618,351.1196 66.735,351.2746 66.834,351.4556 C68.18,346.7916 69.302,342.1146 70.875,337.5946 C76.211,322.2626 81.694,306.9816 87.146,291.6906 C90.758,281.5576 94.413,271.4406 98.049,261.3166 C99.777,256.5026 103.397,253.8656 108.487,253.8436 C116.601,253.8076 124.716,253.8336 133.082,253.8336 C132.868,254.3956 132.712,254.8266 132.541,255.2526 C115.314,298.2236 98.082,341.1926 80.879,384.1736 C80.51,385.0956 80.085,385.4296 79.071,385.4246 C70.856,385.3786 62.639,385.3586 54.424,385.438871 C53.045,385.4516 52.479,384.9986 51.987,383.7676 C34.899,341.0596 17.774,298.3666 0.649,255.6736 C0.471,255.2286 0.218,254.8146 0,254.3856 C0,254.1876 0,253.9896 0,253.7916" id="Fill-6"></path>
            <path d="M253.9268,253.8312 C254.5068,253.8312 254.9398,253.8312 255.3728,253.8312 C263.2928,253.8312 271.2128,253.7842 279.1318,253.8692 C280.8328,253.8872 282.5958,254.1742 284.2118,254.7002 C287.1278,255.6482 289.0238,257.7422 289.8098,260.7392 C296.4068,285.8922 303.0028,311.0452 309.5648,336.2072 C310.1288,338.3692 310.4478,340.5942 310.9438,343.1112 C312.2018,338.6752 313.2838,334.5512 314.5418,330.4812 C321.7268,307.2412 328.9278,284.0052 336.1878,260.7892 C337.5088,256.5672 340.7248,254.2592 345.0058,253.9732 C349.1358,253.6972 353.3208,253.7942 357.4518,254.1152 C361.6838,254.4432 364.3288,257.0242 365.5708,261.0672 C369.9308,275.2642 374.3068,289.4562 378.6678,303.6532 C382.1738,315.0682 385.6748,326.4832 389.1548,337.9062 C389.6268,339.4562 389.9588,341.0482 390.4248,342.8952 C391.1638,339.4182 391.7318,336.1772 392.5498,333.0002 C396.1538,318.9992 399.8238,305.0162 403.4818,291.0292 C406.0158,281.3382 408.6838,271.6802 411.0678,261.9532 C412.4078,256.4872 416.6598,253.9802 420.6308,253.9092 C428.7958,253.7632 436.9638,253.8582 445.1308,253.8602 C445.2128,253.8602 445.2958,253.9372 445.4948,254.0352 C444.1448,258.3922 442.7878,262.7652 441.4358,267.1402 C429.4218,306.0342 417.4038,344.9272 405.4228,383.8322 C405.0618,385.0022 404.6058,385.4442 403.3198,385.4332 C395.2028,385.3652 387.0848,385.3532 378.9678,385.441535 C377.5358,385.4562 377.0418,384.9692 376.6558,383.6882 C368.6538,357.1892 360.6098,330.7032 352.5718,304.2142 C351.7208,301.4082 350.8608,298.6042 349.8828,295.4002 C349.5538,296.5422 349.3418,297.3282 349.1028,298.1042 C342.3668,319.9862 335.6288,341.8662 328.8898,363.7472 C326.7988,370.5372 324.6768,377.3182 322.6338,384.1232 C322.3378,385.1102 321.9358,385.4282 320.9068,385.4232 C312.5908,385.3792 304.2758,385.3832 295.9598,385.4192 C294.9258,385.4232 294.4178,385.1772 294.0858,384.0982 C285.4878,356.1302 276.8468,328.1752 268.2148,300.2172 C263.6148,285.3192 259.0188,270.4192 254.4218,255.5202 C254.2648,255.0102 254.1208,254.4952 253.9268,253.8312" id="Fill-8"></path>
            <path d="M109.8546,92.798 C112.2906,89.698 115.9526,87.548 120.3556,86.631 C127.6766,85.104 133.8556,87.117 139.1216,92.452 C151.0456,104.533 163.0636,116.521 175.0446,128.545 C175.3516,128.854 175.6776,129.145 175.8856,129.34 C187.9306,117.296 199.9216,105.306 211.9286,93.301 C199.2666,80.619 186.4576,67.791 173.7326,55.046 C192.1706,36.61 210.4296,18.353 228.7846,0 C232.0166,2.772 234.2576,6.345 235.1826,10.685 C236.7396,17.995 234.7486,24.225 229.4406,29.49 C221.4656,37.401 213.5576,45.38 205.6226,53.332 C205.3106,53.645 205.0206,53.979 204.7816,54.236 C212.5826,62.036 220.3416,69.794 227.9736,77.426 C236.2446,69.155 244.5906,60.81 253.0686,52.333 C250.4576,47.931 249.6476,42.939 251.0156,37.656 C251.9996,33.852 254.1016,30.744 257.1496,28.083 C265.5596,36.699 273.9496,45.295 282.2336,53.78 C246.8816,89.155 211.6046,124.455 176.1876,159.896 C154.1886,137.643 132.0806,115.28 109.8546,92.798" id="Fill-10"></path>
            <path d="M227.1956,196.1038 C265.7996,196.1038 304.4036,196.1038 343.0086,196.1038 C345.0526,196.1038 345.1836,196.1148 345.0486,198.0858 C344.8666,200.7388 344.7056,203.4338 344.0966,206.0068 C342.6286,212.2048 337.2166,216.6798 330.4916,217.5238 C328.9756,217.7148 327.4376,217.8158 325.9096,217.8168 C260.0356,217.8308 194.1606,217.8388 128.2856,217.7878 C125.9456,217.7858 123.5146,217.4848 121.2826,216.8048 C114.4896,214.7358 110.7016,210.0138 109.9316,202.9418 C109.7396,201.1758 109.7386,199.3908 109.6076,197.6178 C109.5256,196.5118 109.8546,195.9058 111.0876,196.0948 C111.4746,196.1538 111.8776,196.1038 112.2736,196.1038 C150.5806,196.1038 188.8886,196.1038 227.1956,196.1038" id="Fill-12"></path>
            <path d="M239.0836,118.9563 C243.6226,114.3863 248.3556,109.6213 252.9586,104.9873 C261.7606,113.5673 270.6016,122.1843 279.6876,131.0403 C282.7286,127.9063 285.8616,124.6083 289.0696,121.3843 C298.2846,112.1223 307.5026,102.8633 316.7696,93.6543 C324.3656,86.1063 337.0686,86.2973 344.5716,93.9643 C345.3346,94.7453 345.5036,95.2473 344.6236,96.1223 C323.2986,117.3493 302.0026,138.6043 280.6996,159.8533 C280.5286,160.0243 280.3346,160.1723 280.2576,160.2383 C266.4996,146.4433 252.7826,132.6913 239.0836,118.9563" id="Fill-14"></path>
            <path d="M279.5802,181.8951 C279.1962,181.8951 278.6672,181.8951 278.1392,181.8951 C252.0532,181.9081 225.9672,181.9081 199.8812,181.964124 C198.1092,181.9681 196.7842,181.4751 195.5662,180.1771 C193.0272,177.4711 190.3602,174.8851 187.7492,172.2461 C187.4082,171.9011 187.0892,171.5361 186.8292,171.2551 C200.6162,157.4681 214.3292,143.7571 228.0652,130.0231 C245.1752,147.2511 262.3552,164.5511 279.5802,181.8951" id="Fill-16"></path>
            <path d="M176.3508,181.868 L109.9918,181.868 L109.9918,115.055 C132.1668,137.381 154.1228,159.488 176.3508,181.868" id="Fill-18"></path>
            <path d="M344.9972,117.5921 L344.9972,181.9151 L343.4792,181.9151 C330.1202,181.9151 316.7602,181.9001 303.4012,181.937139 C301.9432,181.9421 300.8792,181.4691 299.8952,180.4101 C297.0012,177.2971 294.0322,174.2531 290.9372,171.0211 C309.0362,153.1331 327.0622,135.3181 344.9972,117.5921" id="Fill-20"></path>
            <path d="M438.6779,248.1268 L438.6779,241.6418 C438.5869,241.6068 438.4969,241.5718 438.4059,241.5368 C437.5929,243.0168 436.7929,244.5038 435.9639,245.9748 C435.1689,247.3828 434.3089,247.3848 433.5079,245.9808 C432.6559,244.4868 431.8299,242.9778 430.7389,241.5198 L430.7389,248.2668 L428.9199,248.2668 L428.9199,238.0568 C430.3789,237.6368 431.3979,237.9228 432.0829,239.3848 C432.8359,240.9898 433.7819,242.5048 434.7119,244.1828 C435.6199,242.5678 436.5959,241.0748 437.3239,239.4688 C438.0209,237.9308 439.0439,237.6068 440.6759,238.1098 C440.6759,241.2448 440.7279,244.3988 440.6059,247.5458 C440.5919,247.9148 439.6159,248.2478 439.0859,248.5968 C438.9499,248.4408 438.8139,248.2838 438.6779,248.1268" id="Fill-22"></path>
            <path d="M418.6504,239.7537 L418.6504,238.0177 L427.0224,238.0177 L427.0224,239.8157 L424.0744,239.8157 L424.0744,248.2507 L421.7904,248.2507 L421.7904,239.8927 C420.6954,239.8447 419.7354,239.8017 418.6504,239.7537" id="Fill-24"></path>
        </g>
    </g>
</svg>
