<svg width="2048" height="525" viewBox="0 0 2048 525" fill="none"
    xmlns="http://www.w3.org/2000/svg">
    <g clip-path="url(#clip0_375_4366)">
        <mask id="mask0_375_4366" style="mask-type:luminance" maskUnits="userSpaceOnUse" x="0" y="0" width="2048" height="525">
            <path d="M2048 0H0V525H2048V0Z" fill="white"/>
        </mask>
        <g mask="url(#mask0_375_4366)">
            <path d="M234.539 1C235.311 1.66049 235.439 2.63369 235.958 2.93649C258.59 16.138 281.212 29.3601 303.933 42.4085C329.972 57.3623 356.135 72.1011 382.185 87.0349C405.892 100.625 429.518 114.359 453.189 128.012C456.516 129.93 458.103 132.393 458.096 136.574C457.968 221.568 457.972 306.561 458.093 391.555C458.098 395.279 456.772 397.223 453.666 398.821C447.099 402.198 440.725 405.949 434.141 409.289C432.531 410.105 430.246 410.482 428.6 409.981C427.709 409.71 427.066 407.161 427.064 405.64C426.989 343.144 427 280.649 427 218.154C427 196.822 426.918 175.489 427.082 154.159C427.109 150.654 425.739 148.911 422.846 147.295C411.764 141.104 400.833 134.643 389.819 128.329C374.364 119.47 358.847 110.72 343.43 101.796C327.984 92.8553 312.643 83.7327 297.228 74.738C283.637 66.8078 270.04 58.8872 256.383 51.0727C248.441 46.5284 240.164 42.5297 232.478 37.6C229.758 35.8556 228.16 36.2382 225.977 37.5045C219.031 41.5333 212.088 45.5668 204.299 50.0889C207.217 51.8685 209.806 53.5107 212.453 55.0512C234.136 67.6683 255.795 80.3257 277.53 92.8534C298.415 104.892 319.401 116.757 340.307 128.759C358.96 139.469 377.552 150.286 396.204 160.998C399.795 163.06 401.106 165.789 401.099 170.072C400.966 254.398 400.969 338.726 401.091 423.053C401.097 427.295 399.517 429.552 396.009 431.579C371.787 445.57 347.67 459.743 323.498 473.824C321.841 474.789 320.052 475.551 318.268 476.268C315.375 477.43 313.685 476.07 313.055 473.323C312.765 472.056 313 470.668 313 469.335C313 387.341 312.907 305.347 313.184 223.354C313.206 217.062 311.284 213.864 305.984 210.877C279.236 195.805 252.729 180.306 226.101 165.02C196.978 148.3 167.808 131.661 138.674 114.96C131.972 111.118 125.361 107.118 118.644 103.303C117.449 102.624 115.552 101.757 114.637 102.235C106.584 106.442 98.68 110.934 89.9614 115.769C100.682 121.855 110.584 127.345 120.359 133.053C140.079 144.568 159.655 156.33 179.429 167.75C199.448 179.31 219.657 190.54 239.739 201.992C254.255 210.269 268.712 218.649 283.16 227.044C285.67 228.502 287.085 230.469 287.081 233.812C286.978 319.305 286.979 404.799 287.068 490.292C287.072 494.109 285.071 495.756 282.201 497.394C266.433 506.395 250.725 515.501 235.007 524.589C234.745 524.74 234.613 525.117 234.71 525.694C231.307 526 227.614 526 223.749 525.7C217.855 521.87 212.262 518.105 206.372 514.883C201.399 512.163 198.826 509.004 198.847 502.74C199.087 430.427 198.979 358.114 199.063 285.801C199.067 282.325 198.263 280.12 194.983 278.355C186.52 273.8 178.29 268.813 169.967 263.997C157.727 256.913 145.497 249.813 133.246 242.748C119.484 234.813 105.687 226.939 91.935 218.986C78.0226 210.941 64.1642 202.802 50.2465 194.766C44.3716 191.374 38.4055 188.14 32 184.565C32 193.595 31.8337 201.76 32.1338 209.908C32.1974 211.634 33.5474 213.968 35.0147 214.881C44.4353 220.747 53.9859 226.413 63.6228 231.919C78.6656 240.514 93.8802 248.808 108.896 257.449C128.953 268.991 148.86 280.791 168.903 292.356C172.328 294.332 174.11 296.502 174.1 300.819C173.953 361.469 173.846 422.12 174.202 482.767C174.245 490.031 168.832 493.001 162.98 489.582C139.399 475.804 115.851 461.956 91.9479 448.754C86.7255 445.87 85.8864 442.639 85.9171 437.509C86.0891 408.684 85.9546 379.858 86.0634 351.034C86.0756 347.81 84.9878 346.096 82.1545 344.51C72.1971 338.935 62.4632 332.963 52.5946 327.228C45.9788 323.383 39.2785 319.683 32.0018 315.572C32.0018 325.163 31.9392 334.098 32.0896 343.03C32.1064 344.025 33.1109 345.381 34.0362 345.924C41.2402 350.157 48.4731 354.351 55.8371 358.295C58.7601 359.861 60.1155 361.64 60.0828 365.152C59.9075 383.978 59.7791 402.811 60.1461 421.632C60.2452 426.715 58.228 428.735 52.7095 425.852C45.5908 422.134 38.6187 418.105 31.8127 413.843C30.3681 412.938 29.2102 410.489 29.1253 408.694C28.8107 402.044 28.531 395.327 29.1351 388.718C29.7117 382.408 27.9338 378.289 22.0796 375.452C14.8914 371.968 8.01258 367.846 1 364C1 331.979 1 299.958 1.41465 267.464C6.32613 264.731 10.238 266.352 14.1821 268.647C32.7931 279.475 51.4579 290.212 70.0848 301.013C84.4073 309.319 98.6862 317.699 113.022 325.982C116.061 327.738 117.097 330.079 117.08 333.639C116.938 362.965 117.06 392.292 116.927 421.618C116.91 425.457 118.447 427.56 121.647 429.312C126.862 432.167 131.82 435.489 136.995 438.423C138.66 439.367 140.665 439.709 143 440.488C143 437.868 143 436.212 143 434.557C143 397.566 142.774 360.572 143.186 323.585C143.271 315.951 140.547 311.592 133.882 308.979C132.986 308.628 132.116 308.186 131.284 307.702C108.936 294.707 86.5846 281.716 64.2541 268.69C48.0055 259.212 31.8276 249.611 15.5263 240.225C10.8485 237.531 5.85095 235.393 1 233C1 201.979 1 170.958 1.40076 139.465C6.17767 136.621 10.815 135.756 15.3065 138.165C23.3798 142.493 31.2985 147.116 39.2141 151.732C58.6377 163.059 77.9855 174.516 97.4352 185.798C112.842 194.735 128.357 203.487 143.821 212.324C157.772 220.297 171.734 228.252 185.667 236.257C199.166 244.013 212.612 251.862 226.13 259.585C229.779 261.669 231.079 264.532 231.073 268.754C230.971 340.411 231 412.069 231 483.727C231 485.458 231 487.189 231 489.961C238.691 485.742 245.338 481.917 252.158 478.431C255.47 476.739 256.087 474.401 256.081 470.911C255.973 399.087 255.906 327.262 256.171 255.439C256.193 249.391 253.953 246.591 249.063 243.893C234.993 236.132 221.213 227.846 207.297 219.804C193.522 211.843 179.706 203.952 165.933 195.987C152.039 187.952 138.189 179.839 124.295 171.803C110.521 163.838 96.7274 155.906 82.9197 147.999C67.8557 139.373 52.6873 130.926 37.7233 122.13C31.3092 118.36 31.6829 112.99 38.1353 109.388C45.7113 105.16 53.3268 100.997 60.8139 96.6155C77.5854 86.8004 94.196 76.7038 111.13 67.181C113.35 65.9326 117.404 66.6242 120.05 67.7412C124.895 69.787 129.324 72.8195 133.926 75.4431C146.352 82.5283 158.826 89.5316 171.192 96.7209C188.286 106.659 205.23 116.859 222.366 126.724C239.772 136.744 257.385 146.404 274.813 156.386C296.274 168.677 317.6 181.202 339.078 193.461C342.63 195.489 344.094 197.829 344.087 202.026C343.966 274.017 343.993 346.008 344.038 417.999C344.039 420.038 344.606 422.076 344.971 424.529C352.671 420.114 359.281 416.13 366.086 412.514C368.905 411.016 370.073 409.318 370.069 406.035C369.979 333.045 369.973 260.054 370.089 187.063C370.094 183.758 368.826 181.652 366.384 180.112C363.403 178.231 360.172 176.753 357.108 174.999C343.3 167.093 329.499 159.176 315.724 151.216C301.807 143.174 287.955 135.02 274.016 127.018C258.983 118.387 243.846 109.938 228.82 101.295C214.886 93.2799 201.044 85.1034 187.151 77.0166C175.088 69.995 162.945 63.1078 150.967 55.9441C145.475 52.6597 145.667 47.1081 151.084 43.9984C171.993 31.9954 192.944 20.0654 213.791 7.95617C217.093 6.03791 219.942 3.33834 223 1C226.693 1 230.386 1 234.539 1Z" fill="black"/>
            <path d="M2049 417.556C2048.3 418.469 2047.24 418.775 2046.94 419.428C2038.85 437.216 2018.8 443.398 2000.75 438.419C1985.48 434.207 1977.96 423.536 1975.06 408.926C1972.33 395.196 1973.79 382.336 1982.64 370.55C1988.91 362.201 1997.25 358.275 2006.85 357.164C2019.5 355.7 2031.39 358.404 2040 368.712C2043.42 372.807 2045.61 377.931 2048.68 382.294C2049 388.688 2049 395.376 2048.53 402.532C2029.14 403 2010.21 403 1991.32 403C1990.87 408.507 1992.42 413.354 1996.1 418.598C2004.09 429.994 2023.57 429.647 2029.02 417.989C2032.83 409.851 2038.04 409.375 2045.01 409.984C2046.33 410.099 2047.67 410 2049 410C2049 412.371 2049 414.742 2049 417.556ZM2013.5 391C2019.61 391 2025.72 391 2031.93 391C2026.88 372.985 2020.33 367.401 2007.31 370.053C1999.47 371.649 1990.8 380.965 1991.62 391C1998.57 391 2005.53 391 2013.5 391Z" fill="black"/>
            <path d="M807.057 66.8972C820.226 66.4446 833.345 66.4446 846.793 66.4446C829.787 132.085 812.743 197.876 795.655 263.834C782.395 263.834 769.093 263.834 755.201 263.834C742.978 218.2 730.699 172.36 718.065 125.195C705.496 172.116 693.188 218.061 680.901 263.925C667.163 263.925 654.011 263.925 640.484 263.925C623.56 198.191 606.609 132.354 589.525 66.001C602.406 66.001 614.546 65.9133 626.68 66.1468C627.802 66.1684 629.564 68.0657 629.887 69.374C636.017 94.1947 642.06 119.038 647.943 143.919C652.164 161.771 656.119 179.686 660.229 197.565C660.324 197.981 660.858 198.296 661.725 199.25C673.954 154.535 686.05 110.307 698.137 66.1112C711.873 66.1112 725.178 66.1112 738.634 66.1112C750.518 110.982 762.385 155.787 774.515 201.587C785.5 156.204 796.254 111.777 807.057 66.8972Z" fill="black"/>
            <path d="M1053 147C1053 119.864 1053 93.2271 1053 66.2438C1054.61 66.1561 1056.05 66.0111 1057.48 66.0102C1080.8 65.9961 1104.15 65.3991 1127.45 66.1695C1150.67 66.9375 1172.36 73.1998 1190.4 88.9011C1207.28 103.608 1217.22 122.105 1219.95 144.327C1220.95 152.447 1222.17 160.676 1221.84 168.798C1220.83 194.05 1212.61 216.81 1195 235.283C1181.88 249.049 1165.57 257.967 1146.64 260.85C1134.7 262.67 1122.53 263.561 1110.44 263.871C1091.49 264.357 1072.51 264 1053 264C1053 225.004 1053 186.252 1053 147ZM1099.58 229C1111.9 228.473 1124.25 229.98 1136.55 227.117C1155.89 222.62 1169.27 211.623 1175.97 192.949C1181.41 177.783 1181.76 162.108 1178.92 146.404C1176.72 134.207 1171.71 123.146 1162.23 114.877C1151.04 105.121 1137.33 101.578 1122.83 101.067C1112.93 100.718 1103.01 101 1093.32 101C1093.32 144.073 1093.32 186.461 1093.32 229C1095.29 229 1096.95 229 1099.58 229Z" fill="black"/>
            <path d="M1649 99.9999C1649 88.5236 1649 77.5474 1649 66.2861C1662.29 66.2861 1675.36 66.2861 1688.72 66.2861C1688.72 131.957 1688.72 197.689 1688.72 263.711C1675.72 263.711 1662.65 263.711 1649.18 263.711C1649.18 235.714 1649.18 207.643 1649.18 179.287C1620.05 179.287 1591.31 179.287 1562.18 179.287C1562.18 207.286 1562.18 235.358 1562.18 263.713C1548.71 263.713 1535.64 263.713 1522.28 263.713C1522.28 198.043 1522.28 132.311 1522.28 66.2894C1535.28 66.2894 1548.35 66.2894 1561.82 66.2894C1561.82 92.2853 1561.82 118.357 1561.82 144.713C1590.95 144.713 1619.69 144.713 1649 144.713C1649 130.025 1649 115.262 1649 99.9999Z" fill="black"/>
            <path d="M1402.03 218.025C1398.33 233.418 1390.02 244.865 1376.85 253.084C1361.6 262.601 1345 265.989 1327.29 266.1C1314.78 266.178 1302.53 265.234 1290.62 261.195C1264.79 252.436 1249.51 234.213 1243.08 208.111C1242.69 206.536 1243.14 204.771 1242.93 203.13C1242.74 201.576 1242.18 200.069 1241.7 198.218C1255.62 198.218 1269.06 198.218 1282.63 198.218C1284.54 206.263 1285.83 214.294 1291.41 221.247C1297.81 229.231 1306.09 232.58 1315.47 233.899C1324.48 235.164 1333.48 234.225 1342.35 232.029C1352.08 229.62 1361.72 218.359 1362 208.729C1362.21 201.536 1356.19 192.955 1349.57 189.943C1337.07 184.26 1323.59 182.631 1310.37 180.105C1295.73 177.309 1281.33 173.927 1269.17 164.928C1257.34 156.184 1250.94 144.216 1249.95 129.334C1248.98 114.826 1251.82 101.321 1261.16 90.0618C1265.9 84.3561 1271.7 79.1323 1277.97 75.1938C1290.51 67.3131 1304.54 64.1272 1319.49 63.8575C1336.09 63.5578 1352.03 65.7849 1366.43 74.2239C1385.04 85.1315 1397.67 100.552 1400.03 122.884C1400.16 124.152 1400.79 125.364 1400.96 126.632C1401.12 127.916 1400.99 129.237 1400.99 130.77C1387.33 130.77 1373.9 130.77 1360.34 130.77C1359.04 118.367 1354.49 107.807 1343.45 100.974C1329.79 92.5242 1310.82 93.0388 1297.97 104.376C1284.84 115.967 1288.72 133.961 1304.87 140.161C1317.06 144.838 1329.82 146.379 1342.39 149.003C1357.52 152.158 1372.41 155.495 1385.56 164.671C1395.28 171.454 1400.49 180.468 1402.9 191.435C1404.81 200.128 1404.78 208.955 1402.03 218.025Z" fill="black"/>
            <path d="M905.017 75.1193C906.223 71.9292 907.411 69.1448 908.752 66.0005C922.018 66.0005 935.662 65.9283 949.303 66.1216C950.551 66.1393 952.442 67.5986 952.913 68.8208C962.587 93.9008 972.149 119.024 981.629 144.179C995.738 181.618 1009.78 219.081 1023.79 256.561C1024.6 258.751 1024.79 261.179 1025.37 263.997C1011.47 263.997 998.175 264.052 984.881 263.885C983.909 263.873 982.458 262.439 982.07 261.363C977.132 247.682 972.347 233.945 967.486 220.113C941.883 220.113 916.255 220.113 890.299 220.113C885.467 233.575 880.691 247.124 875.648 260.574C875.108 262.014 873.034 263.822 871.638 263.851C859.176 264.106 846.707 264 833.844 264C857.664 200.906 881.332 138.215 905.017 75.1193ZM948.039 165.355C942.947 150.688 937.882 136.012 932.738 121.363C931.818 118.742 930.573 116.234 928.999 112.555C919.623 138.668 910.828 163.164 902.033 187.658C920.154 187.658 938.005 187.658 956.173 187.658C953.525 180.172 951.02 173.092 948.039 165.355Z" fill="black"/>
            <path d="M1438 198C1438 153.86 1438 110.219 1438 66.2896C1451.28 66.2896 1464.35 66.2896 1477.71 66.2896C1477.71 131.953 1477.71 197.687 1477.71 263.711C1464.72 263.711 1451.65 263.711 1438 263.711C1438 242.023 1438 220.262 1438 198Z" fill="black"/>
            <path d="M1199.09 358C1202.54 358 1205.51 358 1209 358C1209 359.862 1209 361.466 1209 363.07C1209 387.713 1208.81 412.358 1209.06 436.999C1209.25 455.045 1197.38 467.039 1179.64 467.894C1172.95 468.216 1165.91 468.426 1159.53 466.756C1147.5 463.604 1137.63 455.017 1138.15 439.272C1143.23 439.272 1148.32 439.272 1153.44 439.272C1156.89 454.95 1165.66 456.443 1178.42 454.728C1189.23 453.275 1194.91 445.57 1192.61 425.308C1186.53 433.027 1178.74 437.114 1168.93 436.992C1158.03 436.857 1149.4 431.928 1143.18 423.356C1135.72 413.07 1134.22 401.429 1135.82 388.819C1137.42 376.233 1143.08 366.444 1153.71 360.286C1163.83 354.429 1182.59 354.507 1193.71 368.608C1193.71 364.791 1193.71 361.638 1193.71 358C1195.71 358 1197.16 358 1199.09 358ZM1175.13 421.999C1178.54 420.378 1182.36 419.29 1185.28 417.036C1194.22 410.142 1196.19 390.243 1188.25 379.878C1178.9 367.682 1165.02 368.587 1157.03 378.693C1152.07 384.959 1151.12 392.912 1152.15 400.533C1153.78 412.519 1158.67 422.982 1175.13 421.999Z" fill="black"/>
            <path d="M858.018 368.185C859.147 364.595 859.654 359.191 861.492 358.692C866.266 357.396 871.625 358.257 877.633 358.257C869.867 384.981 862.196 411.378 854.46 438C850.511 438 846.485 437.632 842.557 438.099C838.21 438.616 836.981 436.317 835.979 432.836C831.326 416.671 826.531 400.547 821.757 384.416C821.628 383.979 821.173 383.638 820.53 382.82C816.919 394.659 813.416 405.992 810.016 417.355C808.226 423.338 806.774 429.429 804.789 435.343C804.392 436.525 802.341 437.709 800.93 437.881C797.811 438.262 794.571 437.674 791.46 438.081C787.451 438.606 785.957 436.603 785.015 433.227C779.631 413.921 774.184 394.632 768.731 375.346C767.164 369.801 765.506 364.283 763.771 358.346C769.474 358.346 774.853 358.346 780.424 358.346C785.237 375.802 790.125 393.53 795.012 411.258C795.477 411.17 795.942 411.082 796.406 410.994C801.518 394.538 806.724 378.111 811.646 361.598C812.462 358.863 813.476 357.801 816.302 357.948C820.283 358.154 824.282 358 828.617 358C834.148 375.75 839.675 393.483 845.201 411.217C845.638 411.163 846.073 411.109 846.51 411.055C850.34 396.906 854.172 382.756 858.018 368.185Z" fill="black"/>
            <path d="M1515.02 363.863C1519.03 374.734 1523 385.21 1527.02 395.666C1531.33 406.874 1535.68 418.067 1540.03 429.258C1541.07 431.921 1542.19 434.552 1543.59 437.993C1537.16 437.993 1531.42 438.098 1525.7 437.883C1524.82 437.85 1523.58 436.507 1523.19 435.504C1520.69 428.921 1518.25 422.305 1516.07 415.61C1515.27 413.148 1514.4 411.891 1511.49 411.929C1498.83 412.095 1486.17 412.039 1473.51 411.969C1470.93 411.954 1469.63 412.44 1468.69 415.39C1466.26 422.961 1463.07 430.286 1460.17 437.748C1454.35 437.748 1448.27 437.748 1441.96 437.748C1447.73 422.838 1453.41 408.24 1459.03 393.615C1466.71 373.595 1474.41 353.578 1481.91 333.49C1482.86 330.963 1483.81 329.823 1486.62 329.938C1491.93 330.155 1497.26 330.001 1502.37 330.001C1506.65 341.34 1510.82 352.4 1515.02 363.863ZM1480.04 384.61C1478.51 389.018 1476.99 393.425 1475.53 397.65C1486.84 397.65 1497.86 397.65 1509.36 397.65C1503.76 382.193 1498.32 367.199 1492.45 350.999C1488.21 362.746 1484.37 373.36 1480.04 384.61Z" fill="black"/>
            <path d="M648.65 331.014C651.964 332.005 654.785 333.16 657.708 333.93C670.23 337.229 678.39 349.338 678.053 363.05C677.876 370.233 677.966 377.283 674.075 383.818C668.462 393.247 660.376 398.696 649.558 399.953C644.349 400.559 639.086 400.794 633.84 400.964C628.72 401.13 623.589 401 618.083 401C618.083 413.383 618.083 425.449 618.083 437.755C612.3 437.755 606.899 437.755 601.247 437.755C601.247 401.993 601.247 366.283 601.247 331.002C616.886 331.002 632.545 331.002 648.65 331.014ZM620.68 386C628.897 385.668 637.165 385.797 645.315 384.881C654.176 383.886 660.729 375.583 660.798 365.847C660.85 358.533 657.485 349.11 647.08 347.157C637.693 345.394 628.026 345.127 618.003 344.154C618.003 358.343 617.981 371.276 618.076 384.208C618.08 384.808 619.144 385.4 620.68 386Z" fill="black"/>
            <path d="M904.857 422.351C916.138 429.833 927.936 426.882 934.252 419.101C936.286 416.595 937.331 413.286 938.952 410.1C943.861 410.1 949.174 410.1 954.488 410.1C954.219 422.988 940.06 437.578 926.558 439.213C916.027 440.489 906.086 440.304 897.087 434.485C887.022 427.976 881.826 418.423 879.826 406.481C877.693 393.746 880.046 382.372 887.04 371.801C894.449 360.602 911.797 354.657 924.807 357.166C946.253 361.303 957.567 381.514 954.58 402.946C935.208 402.946 915.779 402.946 895.871 402.946C896.868 410.55 898.602 417.249 904.857 422.351ZM929.425 391C931.885 391 934.345 391 936.779 391C937.243 381.275 931.345 370.944 917.628 369.203C908.755 368.077 900.116 376.65 896.075 391C906.941 391 917.693 391 929.425 391Z" fill="black"/>
            <path d="M747.699 365.202C763.94 378.501 765.968 403.957 756.99 420.218C749.109 434.494 732.913 442.568 715.406 439.238C697.541 435.841 688.472 424.217 684.225 408.122C679.654 390.802 687.409 372.307 702.342 362.18C710.685 356.523 720.135 356.523 729.607 357.318C736.311 357.881 742.342 360.424 747.699 365.202ZM736.429 420.046C745.835 411.381 746.441 400.484 743.941 389.027C742.078 380.492 736.584 374.698 728.295 372.217C720.436 369.864 710.635 373.881 705.607 380.889C700.65 387.798 699.798 395.508 700.943 403.791C703.357 421.25 721.009 431.634 736.429 420.046Z" fill="black"/>
            <path d="M1266.15 394.977C1278.23 390.377 1290.29 390.21 1302.42 392.205C1305.17 379.426 1298.34 371.577 1289.36 370.077C1278.76 368.305 1270.84 375.578 1269.64 387.81C1264.91 387.81 1260.15 387.81 1255.42 387.81C1253.74 372.959 1263.82 359.597 1278.23 358.106C1284.47 357.46 1290.87 357.596 1297.14 358.086C1308.58 358.98 1317.74 370.266 1317.92 381.393C1318.22 400.026 1318 418.666 1318 437.651C1313.71 437.651 1309.52 437.651 1304.95 437.651C1304.95 434.873 1304.95 432.157 1304.95 428.195C1297.22 438.192 1287.52 440.847 1276.6 439.967C1266.43 439.148 1258.1 435.028 1254.08 425.078C1250.74 416.812 1250.98 408.502 1257.07 401.443C1259.36 398.783 1262.83 397.133 1266.15 394.977ZM1281.74 427.998C1295.35 427.69 1303.53 419.631 1303.1 406.474C1302.99 403.224 1301.63 401.961 1298.84 402.045C1291.95 402.25 1284.85 401.761 1278.28 403.364C1274.45 404.295 1270.32 408.122 1268.45 411.743C1266.46 415.6 1267.72 420.636 1272.05 423.455C1274.8 425.252 1277.93 426.487 1281.74 427.998Z" fill="black"/>
            <path d="M1673.93 379C1676.41 379 1678.39 379 1680.69 379C1680.69 384.233 1680.69 389.306 1680.69 394.779C1667.43 394.779 1654.02 394.779 1640.22 394.779C1640.22 409.239 1640.22 423.313 1640.22 437.692C1634.43 437.692 1629.02 437.692 1623.3 437.692C1623.3 402.087 1623.3 366.354 1623.3 330.311C1644.9 330.311 1666.64 330.311 1688.69 330.311C1688.69 335.234 1688.69 340.306 1688.69 345.78C1672.76 345.78 1656.69 345.78 1640.31 345.78C1640.31 356.906 1640.31 367.645 1640.31 379C1651.26 379 1662.35 379 1673.93 379Z" fill="black"/>
            <path d="M1744.82 433.684C1732.25 444.922 1705.29 441.624 1700.59 422.04C1699.69 418.27 1699.11 414.327 1699.07 410.458C1698.91 393.16 1699 375.86 1699 358.281C1704.63 358.281 1710.03 358.281 1716 358.281C1716 360.654 1716 363.087 1716 365.52C1716 380.011 1716.18 394.505 1715.94 408.992C1715.77 419.311 1722.4 423.967 1728.99 424.921C1738.8 426.343 1745.82 419.961 1747.93 411.951C1748.7 409.005 1748.93 405.846 1748.95 402.781C1749.05 387.998 1749 373.214 1749 358.217C1754.76 358.217 1760.16 358.217 1765.78 358.217C1765.78 384.755 1765.78 411.149 1765.78 437.772C1760.59 437.772 1755.51 437.772 1750.16 437.772C1750.04 435.178 1749.92 432.657 1749.79 429.716C1747.9 431.193 1746.49 432.297 1744.82 433.684Z" fill="black"/>
            <path d="M1896.09 358C1899.88 358 1903.18 358 1906.74 358C1906.74 384.651 1906.74 411.034 1906.74 437.71C1902.06 437.71 1897.32 437.71 1892.18 437.71C1892.07 435.285 1891.96 432.746 1891.82 429.586C1890.59 430.388 1889.67 430.733 1889.12 431.384C1880.23 441.812 1861.63 442.653 1850.91 435C1844.5 430.417 1841.31 423.776 1841.15 416.35C1840.71 397.079 1841 377.792 1841 358.257C1846.34 358.257 1851.41 358.257 1857 358.257C1857 373.856 1856.95 389.443 1857.05 405.029C1857.06 407.926 1857.65 410.821 1858 413.714C1858.81 420.37 1863.8 423.51 1869.25 424.774C1875.49 426.22 1881.66 424.295 1885.91 419.117C1889.59 414.648 1891.1 409.263 1891.05 403.352C1890.91 388.402 1891 373.451 1891 358C1892.72 358 1894.16 358 1896.09 358Z" fill="black"/>
            <path d="M1352 400.02C1352 412.818 1352 425.118 1352 437.709C1346.73 437.709 1341.66 437.709 1336.29 437.709C1336.29 411.405 1336.29 385.016 1336.29 358.313C1340.89 358.313 1345.63 358.313 1350.88 358.313C1350.88 361.017 1350.88 363.886 1350.88 367.685C1353.92 365.429 1356.12 363.652 1358.46 362.074C1369.57 354.591 1381.27 355.064 1392.3 361.332C1399.4 365.364 1402.54 373.397 1402.8 381.208C1403.42 399.967 1403 418.76 1403 437.768C1397.6 437.768 1392.54 437.768 1387 437.768C1387 422.912 1387.13 408.145 1386.91 393.383C1386.85 389.574 1386.07 385.665 1384.96 382.004C1381.81 371.654 1369.1 367.951 1359.95 375.448C1352.08 381.889 1351.62 390.503 1352 400.02Z" fill="black"/>
            <path d="M1108 420C1108 410.175 1108.37 400.83 1107.88 391.531C1107.52 384.802 1106.52 377.982 1099.72 373.928C1089.42 367.778 1078.22 374.23 1074.13 384.866C1073.28 387.069 1073.06 389.623 1073.05 392.018C1072.95 407.15 1073 422.283 1073 437.708C1067.73 437.708 1062.66 437.708 1057.29 437.708C1057.29 411.408 1057.29 385.018 1057.29 358.314C1061.89 358.314 1066.63 358.314 1071.72 358.314C1071.72 361.231 1071.72 364.313 1071.72 367.299C1076.61 364.276 1080.96 360.326 1086.05 358.722C1095.9 355.618 1105.68 355.567 1114.59 362.766C1120.81 367.785 1123.53 374.49 1123.78 381.563C1124.43 400.167 1124 418.809 1124 437.718C1118.71 437.718 1113.64 437.718 1108 437.718C1108 432.023 1108 426.261 1108 420Z" fill="black"/>
            <path d="M1824.89 372C1818.43 372 1812.47 372 1807 372C1807 386.617 1806.61 400.956 1807.18 415.258C1807.43 421.365 1811.59 423.942 1817.91 423.996C1819.9 424.014 1821.93 424.198 1823.89 423.916C1825.56 423.677 1827.15 422.879 1828.89 422.287C1828.89 427.504 1828.89 432.482 1828.89 437.497C1821.66 440.338 1814.43 440.681 1806.9 439.066C1796.66 436.87 1790.22 427.881 1790.06 417.845C1789.82 402.727 1790 387.603 1790 372.087C1783.96 372.087 1778.22 372.087 1772.24 372.087C1772.24 367.293 1772.24 362.889 1772.24 358.086C1778.04 358.086 1783.78 358.086 1789.91 358.086C1789.91 350.296 1789.91 342.886 1789.91 335.243C1795.37 335.243 1800.44 335.243 1805.91 335.243C1805.91 342.702 1805.91 350.111 1805.91 357.907C1814.03 357.907 1821.77 357.907 1829.75 357.907C1829.75 362.699 1829.75 367.102 1829.75 372C1828.26 372 1826.82 372 1824.89 372Z" fill="black"/>
            <path d="M1555 427.971C1555 395.172 1555 362.867 1555 330.281C1560.96 330.281 1566.7 330.281 1572.72 330.281C1572.72 365.969 1572.72 401.704 1572.72 437.72C1567.03 437.72 1561.3 437.72 1555 437.72C1555 434.68 1555 431.573 1555 427.971Z" fill="black"/>
            <path d="M1958.52 375.182C1945.63 379.481 1941.37 385.724 1941.06 399.66C1940.78 412.281 1941 424.913 1941 437.768C1935.6 437.768 1930.53 437.768 1925.23 437.768C1925.23 411.263 1925.23 384.862 1925.23 358.23C1930.07 358.23 1934.81 358.23 1939.92 358.23C1939.92 362.711 1939.92 367.107 1939.92 372.758C1947.71 361.213 1958.3 357.555 1970.71 357.062C1970.71 362.482 1970.71 367.904 1970.71 373.63C1966.9 374.079 1962.91 374.551 1958.52 375.182Z" fill="black"/>
            <path d="M990.394 364.215C997.772 361.264 1004.83 358.502 1012.71 355.417C1012.71 362.629 1012.71 368.169 1012.71 373.766C1003.89 374.275 995.094 375.222 989.321 382.498C986.597 385.933 984.428 390.772 984.236 395.075C983.607 409.172 984 423.316 984 437.72C978.705 437.72 973.636 437.72 968.281 437.72C968.281 411.39 968.281 385.007 968.281 358.311C972.898 358.311 977.634 358.311 982.89 358.311C982.89 362.007 982.89 365.881 982.89 371.298C985.966 368.346 988.02 366.375 990.394 364.215Z" fill="black"/>
            <path d="M1022 394C1022 381.858 1022 370.217 1022 358.288C1027.62 358.288 1033.02 358.288 1038.72 358.288C1038.72 384.622 1038.72 411.023 1038.72 437.713C1033.38 437.713 1027.98 437.713 1022 437.713C1022 423.357 1022 408.929 1022 394Z" fill="black"/>
            <path d="M1035.97 350.52C1033.86 350.886 1032.03 350.861 1030.21 351.016C1025.51 351.417 1021.83 349.981 1019.85 345.408C1017.94 341.003 1018.33 336.579 1021.52 333.198C1024.73 329.801 1029.31 329.079 1033.79 330.35C1038.06 331.56 1041.44 334.288 1041.91 338.956C1042.39 343.678 1041.46 348.134 1035.97 350.52Z" fill="black"/>
        </g>
    </g>
    <defs>
        <clipPath id="clip0_375_4366">
            <rect width="2048" height="525" fill="black"/>
        </clipPath>
    </defs>
</svg>
