
<svg width="928px" height="265px" viewBox="0 0 928 265" version="1.1" xmlns="http://www.w3.org/2000/svg" xmlns:xlink="http://www.w3.org/1999/xlink">
    <g id="Page-1" stroke="none" stroke-width="1" fill="none" fill-rule="evenodd">
        <path d="M338.239628,208.29144 L323.00685,223.053668 L321.627504,224.433877 C317.489466,226.714221 312.451855,225.334013 310.112964,221.67346 C300.457542,206.491168 295.359959,189.388587 295.359959,169.585598 C295.359959,142.881567 305.075352,120.738225 323.00685,102.315444 C341.897893,83.892663 364.926974,74.7112772 393.533411,74.7112772 C413.8038,74.7112772 431.455431,79.3119716 446.488303,88.5133605 L447.867649,89.8935688 C451.106113,92.6539855 451.106113,97.7547554 447.867649,100.935236 L434.074189,114.797328 C430.835724,117.557745 425.798113,117.977808 422.079876,116.177536 C398.571022,103.275589 369.544785,107.836277 351.133514,126.73913 C339.618974,138.26087 333.621817,153.50317 333.621817,169.585598 C333.621817,179.307065 335.900737,188.488451 340.098746,197.249774 C341.897893,200.910326 341.478092,205.531024 338.239628,208.29144 L338.239628,208.29144 Z M491.646892,169.585598 C491.646892,196.309632 482.431261,218.89304 464,237.335824 C445.568739,255.778608 422.079876,265 393.533411,265 C373.263022,265 355.751325,260.379303 340.518547,251.137908 C339.918832,250.857865 339.45905,250.397796 339.139201,249.757699 C335.900737,246.997283 335.900737,241.956522 339.139201,238.716033 L353.412434,224.433877 C356.650898,221.67346 361.268709,221.193388 364.926974,223.053668 C373.682823,228.094429 383.818017,230.434783 393.533411,230.434783 C409.665762,230.434783 425.31834,223.953804 435.933307,212.432065 C447.447848,200.910326 453.864805,185.728034 453.445005,169.585598 C453.864805,159.924139 451.585886,150.682745 447.447848,142.401495 C445.588729,138.740942 446.068502,134.120245 448.827194,131.359828 L464,116.5976 C464.319848,116.317557 464.77963,116.017512 465.379346,115.697464 C469.097583,113.41712 474.135195,114.317255 476.474086,117.977808 C486.58929,132.740036 491.646892,149.942633 491.646892,169.585598 L491.646892,169.585598 Z M260.336565,232.235054 C264.054802,235.955616 264.054802,241.956522 260.336565,245.617074 L244.204214,261.279438 C240.545948,265 234.069019,265 230.410754,261.279438 L143.811813,176.486639 C140.093576,172.826087 140.093576,166.825181 143.811813,163.164629 L159.464392,147.502264 C163.60243,143.781703 169.599586,143.781703 173.257852,147.502264 L260.336565,232.235054 Z M53.4346646,196.769701 L36.4027401,213.332201 C36.4027401,213.652249 36.2628064,213.952295 35.9829391,214.232337 C32.2647021,216.57269 27.2270906,216.092618 24.408427,212.432065 C7.85627504,191.188859 0,165.865036 0,137.300725 C0,101.375302 12.913877,70.8106884 38.7416311,45.6068841 C64.5294042,20.2830616 95.4147602,7.86118659 131.8175,7.86118659 C161.263539,7.86118659 187.111283,15.6623641 209.180819,31.8048007 L210.140364,32.7049366 C213.378829,35.9454257 213.378829,40.5661232 210.140364,43.7466033 L194.487786,59.4089674 C190.769549,62.6494565 185.731937,63.129529 182.0137,60.3691123 C146.090733,37.3256341 98.1734522,42.3663949 67.2880962,71.8908514 C50.2561716,88.9334239 41.5003231,110.596694 41.5003231,136.400589 C41.5003231,154.82337 45.6383611,170.965806 54.8739822,185.247962 C57.6326742,188.908514 56.6731291,193.949275 53.4346646,196.769701 Z M227.172289,58.5088315 C230.890526,55.7484149 235.928138,56.6485507 238.68683,59.8890399 C255.718754,82.0323822 264.054802,107.356205 264.054802,135.920516 C264.054802,151.102808 261.29611,166.345109 256.198527,180.627264 C255.598811,181.867452 254.979105,182.787591 254.339408,183.387681 C251.160915,186.62817 246.063332,186.62817 242.824868,183.387681 L223.034251,164.484828 C221.175132,162.624547 219.795786,159.444067 220.69536,156.203578 C221.934772,149.762606 222.554478,143.161609 222.554478,136.400589 C222.554478,117.977808 217.936668,101.355299 208.761018,87.0731431 C206.422127,83.4125906 206.9019,78.3118207 210.140364,75.551404 L226.272716,59.4089674 C226.692516,58.988904 227.172289,58.988904 227.172289,58.5088315 L227.172289,58.5088315 Z M180.634354,243.276721 C181.533928,244.176857 182.493473,245.137002 182.493473,246.51721 C183.872819,250.657835 182.0137,255.278533 177.39589,256.658741 C162.642885,261.699502 146.990306,264.039855 130.857955,264.039855 C101.411917,264.039855 75.5641722,256.178668 53.9144371,240.996377 C53.3147215,240.676329 52.8549395,240.35628 52.5350911,240.036232 C49.2966266,236.855752 49.2966266,231.754982 52.5350911,228.994565 L69.1472147,212.852129 C72.3856792,209.671649 77.4232907,209.191576 81.0815562,211.47192 C95.8345612,221.133379 112.446685,226.234149 131.8175,226.234149 C139.194003,226.234149 146.510534,225.334013 153.887036,223.953804 C157.125501,222.993659 160.363965,223.953804 162.642885,226.234149 L180.634354,243.276721 Z M643.255008,93.9741848 L641.875662,109.636549 C641.275947,116.117527 638.977037,119.358016 634.978932,119.358016 C633.73952,119.358016 632.360174,118.897947 630.840894,117.977808 C623.164534,114.897343 615.168325,113.357111 606.852268,113.357111 C593.978372,113.357111 583.54332,117.65776 575.547111,126.259058 C567.550903,134.860356 563.552798,146.062047 563.552798,159.86413 L563.552798,247.417346 C563.552798,251.41795 562.47331,254.498415 560.314334,256.658741 C558.195338,258.779061 555.136789,259.839221 551.138684,259.839221 L536.385679,259.839221 C532.387575,259.839221 529.309035,258.779061 527.150058,256.658741 C524.991082,254.498415 523.911594,251.41795 523.911594,247.417346 L523.911594,90.3136322 C523.911594,86.6330767 524.991082,83.7126359 527.150058,81.5523098 C529.309035,79.3919837 532.387575,78.3118207 536.385679,78.3118207 L551.138684,78.3118207 C555.136789,78.3118207 558.195338,79.3919837 560.314334,81.5523098 C562.47331,83.7126359 563.552798,86.6330767 563.552798,90.3136322 L563.552798,101.835371 C569.390031,93.5141153 576.606609,87.0531401 585.202533,82.4524457 C593.798458,77.8517512 603.333936,75.551404 613.80897,75.551404 C621.765198,75.551404 628.821852,76.9316123 634.978932,79.692029 C641.41588,81.2522645 644.174572,86.0129831 643.255008,93.9741848 Z M672.761018,42.8464674 C667.84335,37.9257246 665.384516,31.9448219 665.384516,24.9037591 C665.384516,18.1427385 667.84335,12.3018569 672.761018,7.38111413 C677.678687,2.46037138 683.675843,-2.27373675e-13 690.752488,-2.27373675e-13 C697.509284,-2.27373675e-13 703.346517,2.46037138 708.264185,7.38111413 C713.181853,12.3018569 715.640688,18.1427385 715.640688,24.9037591 C715.640688,31.9448219 713.181853,37.9257246 708.264185,42.8464674 C703.346517,48.0872585 697.509284,50.707654 690.752488,50.707654 C683.675843,50.707654 677.678687,48.0872585 672.761018,42.8464674 Z M683.795786,259.839221 C679.837663,259.839221 676.779113,258.779061 674.620137,256.658741 C672.461161,254.498415 671.381672,251.41795 671.381672,247.417346 L671.381672,90.3136322 C671.381672,86.6330767 672.461161,83.7126359 674.620137,81.5523098 C676.779113,79.3919837 679.837663,78.3118207 683.795786,78.3118207 L698.548792,78.3118207 C702.227048,78.3118207 705.145664,79.3919837 707.30464,81.5523098 C709.463616,83.7126359 710.543105,86.6330767 710.543105,90.3136322 L710.543105,247.417346 C710.543105,251.41795 709.463616,254.498415 707.30464,256.658741 C705.145664,258.779061 702.227048,259.839221 698.548792,259.839221 L683.795786,259.839221 Z M915.585886,78.3118207 C919.58399,78.3118207 922.662531,79.3919837 924.821507,81.5523098 C926.940502,83.7126359 928,86.6330767 928,90.3136322 L928,247.417346 C928,251.41795 926.940502,254.498415 924.821507,256.658741 C922.662531,258.779061 919.58399,259.839221 915.585886,259.839221 L900.832881,259.839221 C897.154625,259.839221 894.236009,258.779061 892.077032,256.658741 C889.638189,254.498415 888.418767,251.41795 888.418767,247.417346 L888.418767,228.994565 C881.941838,239.75619 873.485847,248.057443 863.050795,253.898324 C852.615743,259.6992 840.941278,262.599638 828.027401,262.599638 C812.074964,262.599638 797.801732,258.619037 785.207703,250.657835 C772.293826,242.336579 762.138641,231.114885 754.742148,216.992754 C747.385636,202.550574 743.70738,186.588164 743.70738,169.105525 C743.70738,151.58288 747.385636,135.600468 754.742148,121.158288 C762.138641,107.036156 772.293826,95.9744867 785.207703,87.973279 C797.801732,79.692029 812.074964,75.551404 828.027401,75.551404 C840.941278,75.551404 852.615743,78.4718448 863.050795,84.3127264 C873.485847,90.1536081 881.941838,98.4548611 888.418767,109.216486 L888.418767,90.3136322 C888.418767,86.6330767 889.638189,83.7126359 892.077032,81.5523098 C894.236009,79.3919837 897.154625,78.3118207 900.832881,78.3118207 L915.585886,78.3118207 Z M862.151221,219.75317 C870.427297,215.152476 876.884236,208.711504 881.522037,200.430254 C886.399724,192.149004 888.838568,182.787591 888.838568,172.346014 L888.838568,165.865036 C888.838568,155.743508 886.399724,146.522117 881.522037,138.200861 C876.884236,129.919611 870.427297,123.318614 862.151221,118.397871 C854.155013,113.797177 845.099306,111.49683 834.984102,111.49683 C825.148766,111.49683 816.073069,113.957201 807.757012,118.877944 C799.480936,123.798687 793.043988,130.699728 788.446168,139.581069 C783.808367,148.502415 781.489466,158.343901 781.489466,169.105525 C781.489466,179.827144 783.808367,189.648626 788.446168,198.569973 C793.043988,207.491319 799.480936,214.412364 807.757012,219.333107 C816.073069,224.25385 825.148766,226.714221 834.984102,226.714221 C845.099306,226.714221 854.155013,224.393871 862.151221,219.75317 L862.151221,219.75317 Z" id="Shape" fill="#FFFFFF"></path>
    </g>
</svg>
