
<svg width="215.42px" height="236.229267px" viewBox="0 0 215.42 236.229267" version="1.1" xmlns="http://www.w3.org/2000/svg">
    <g id="Page-1" stroke="none" stroke-width="1" fill="none" fill-rule="evenodd">
        <g id="Woodside-MonoReversed-Vertical" transform="translate(0, -0)" fill="#FFFFFF" fill-rule="nonzero">
            <g id="Group" transform="translate(0, 0)">
                <g transform="translate(41.1757, 0)" id="Path">
                    <path d="M130.034267,18.8492673 C138.344267,25.8092673 128.124267,47.2192673 118.494267,60.7792673 C101.234267,85.0992673 87.0042672,93.7592673 77.5142672,92.5592673 C78.5442672,91.3492673 79.5442672,90.0292673 80.4942672,88.5792673 C89.3542672,74.9792673 92.6742672,60.7792673 90.1542672,43.0492673 L90.1542672,43.0492673 L90.1542672,43.0292673 C99.7242672,33.7892673 123.064267,13.0192673 130.014267,18.8492673 L130.034267,18.8492673 Z"></path>
                    <path d="M90.1742672,43.0292673 L90.1742672,43.0292673 L90.1742672,43.0492673 C88.1442672,44.9992673 86.7342672,46.4492673 86.2342672,46.9992673 C63.1142672,72.8192673 66.8742672,86.1192673 71.1442672,89.7692673 C72.9342672,91.2892673 75.0642672,92.2592673 77.5142672,92.5592673 C74.3042672,96.3292673 70.7842672,98.9092673 67.3742672,100.609267 C64.1642672,94.5992673 58.8142672,87.3992673 50.2942672,78.9392673 C49.1542672,77.8092673 43.7342672,72.9692673 36.8742672,67.6292673 C38.0342672,40.5792673 51.4742672,0.569267349 62.6342672,0.00926734949 C73.2942672,-0.530732651 86.8242672,22.6292673 90.1642672,43.0292673 L90.1742672,43.0292673 Z"></path>
                    <path d="M67.3842672,100.609267 C73.8942672,112.779267 71.5542672,120.029267 68.7142672,122.759267 C60.0642672,131.059267 42.0042672,126.029267 17.3842672,95.3392673 C6.48426719,81.7392673 -5.51573281,59.9692673 2.74426719,52.1792673 C8.09426719,47.1292673 24.7442672,58.1692673 36.8742672,67.6292673 C36.8542672,68.1492673 36.8342672,68.6592673 36.8242672,69.1692673 C35.9842672,84.3792673 38.7242672,100.399267 53.2142672,103.259267 C56.2842672,103.859267 61.4942672,103.459267 67.0442672,100.789267 L67.3842672,100.609267 L67.3842672,100.609267 Z"></path>
                </g>
                <g transform="translate(0, 134.9093)">
                    <g transform="translate(0, -0)">
                        <polygon id="Path" points="45.87 0.18 40.73 0.18 34.14 29.73 25.53 0.42 25.46 0.18 20.31 0.18 12.02 29.65 5.47 0.44 5.41 0.18 1.42108547e-14 0.18 8.75 38.47 8.8 38.73 14.59 38.73 22.84 8.94 31.27 38.48 31.34 38.73 36.97 38.73 45.82 0.41"></polygon>
                        <path d="M181.33,24.32 C181.33,27.37 180.73,29.9 179.59,31.64 C178.97,32.61 178.19,33.33 177.22,33.85 C176.17,34.41 174.89,34.69 173.43,34.69 C172.21,34.69 171.2,34.39 170.32,33.78 C169.74,33.38 169.23,32.84 168.77,32.12 C168.16,31.17 167.71,29.95 167.41,28.49 C167.16,27.28 167.02,25.89 167.02,24.47 C167.02,21.91 167.57,19.61 168.57,18.01 C169.14,17.11 169.84,16.42 170.66,15.95 C171.58,15.42 172.63,15.16 173.89,15.16 C175.15,15.16 176.34,15.41 177.32,15.9 C178.64,16.57 179.65,17.69 180.35,19.22 C180.99,20.64 181.32,22.4 181.32,24.31 M186.5,31.94 L186.5,0 L181.43,0 L181.43,13.44 C180.69,12.77 179.85,12.19 178.9,11.71 C177.19,10.86 175.28,10.41 173.37,10.41 C171.36,10.41 169.54,10.84 167.96,11.7 C165.84,12.85 164.21,14.73 163.11,17.28 C162.18,19.45 161.69,22.06 161.69,24.81 C161.69,28.53 162.62,31.99 164.29,34.55 C165.27,36.05 166.5,37.23 167.94,38.05 C169.53,38.95 171.35,39.41 173.36,39.41 C175.37,39.41 177.17,38.96 178.85,38.07 C179.8,37.57 180.7,36.92 181.51,36.12 L181.62,38.64 L186.82,38.64 L186.69,36.55 C186.6,35.12 186.5,33.49 186.5,31.92" id="Shape"></path>
                        <path d="M60.76,33.76 C59.73,34.34 58.54,34.64 57.23,34.64 C55.92,34.64 54.73,34.34 53.7,33.76 C52.35,32.99 51.23,31.68 50.48,29.97 C49.81,28.44 49.44,26.63 49.44,24.88 C49.44,22.44 50.12,20.03 51.31,18.27 C51.97,17.29 52.78,16.52 53.7,15.99 C54.72,15.41 55.91,15.11 57.23,15.11 C58.55,15.11 59.74,15.41 60.76,15.99 C62.12,16.76 63.24,18.08 63.99,19.78 C64.66,21.29 65.03,23.1 65.03,24.87 C65.03,27.31 64.35,29.72 63.16,31.47 C62.49,32.46 61.69,33.22 60.76,33.75 M63.07,11.65 C61.35,10.8 59.38,10.37 57.23,10.37 C55.08,10.37 53.11,10.8 51.39,11.64 C49.04,12.78 47.13,14.7 45.86,17.2 C44.71,19.45 44.1,22.1 44.1,24.87 C44.1,28.64 45.22,32.14 47.26,34.73 C48.39,36.17 49.78,37.3 51.39,38.08 C53.12,38.92 55.08,39.35 57.23,39.35 C59.38,39.35 61.34,38.92 63.07,38.08 C65.42,36.94 67.33,35.02 68.61,32.53 C69.76,30.28 70.37,27.62 70.37,24.86 C70.37,21.09 69.25,17.59 67.2,14.99 C66.07,13.54 64.68,12.41 63.07,11.64" id="Shape"></path>
                        <path d="M93.57,25.03 C93.57,27.44 92.87,29.9 91.7,31.63 C91.03,32.62 90.23,33.38 89.31,33.91 C88.27,34.5 87.08,34.8 85.77,34.8 C84.46,34.8 83.27,34.5 82.24,33.91 C80.88,33.14 79.77,31.83 79.02,30.12 C78.35,28.59 77.98,26.78 77.98,25.03 C77.98,22.64 78.68,20.17 79.85,18.43 C80.52,17.43 81.33,16.67 82.25,16.15 C83.27,15.56 84.46,15.27 85.78,15.27 C87.1,15.27 88.29,15.57 89.31,16.15 C90.67,16.92 91.78,18.24 92.53,19.95 C93.2,21.46 93.57,23.27 93.57,25.03 M91.61,11.81 C89.87,10.96 87.91,10.53 85.78,10.53 C83.65,10.53 81.68,10.96 79.94,11.81 C77.59,12.95 75.68,14.87 74.41,17.37 C73.26,19.62 72.65,22.27 72.65,25.03 C72.65,28.8 73.77,32.31 75.81,34.9 C76.94,36.34 78.33,37.47 79.94,38.25 C81.67,39.09 83.63,39.52 85.78,39.52 C87.93,39.52 89.88,39.09 91.61,38.25 C93.96,37.11 95.88,35.18 97.15,32.69 C98.3,30.44 98.91,27.79 98.91,25.03 C98.91,21.26 97.78,17.75 95.75,15.16 C94.61,13.71 93.22,12.58 91.62,11.81" id="Shape"></path>
                        <path d="M120.83,24.42 C120.83,27.46 120.23,30 119.09,31.74 C118.46,32.71 117.68,33.43 116.72,33.95 C115.67,34.51 114.4,34.79 112.93,34.79 C111.71,34.79 110.7,34.49 109.83,33.88 C109.24,33.47 108.72,32.92 108.28,32.22 C107.68,31.26 107.21,30.01 106.92,28.59 C106.67,27.36 106.53,25.97 106.53,24.57 C106.53,22.01 107.08,19.72 108.09,18.11 C108.66,17.21 109.35,16.51 110.17,16.05 C111.09,15.52 112.15,15.26 113.4,15.26 C114.65,15.26 115.85,15.51 116.83,16 C118.14,16.67 119.16,17.79 119.86,19.32 C120.5,20.74 120.84,22.5 120.84,24.41 M126.02,32.04 L126.02,0.1 L120.95,0.1 L120.95,13.54 C120.22,12.87 119.37,12.29 118.42,11.81 C116.72,10.96 114.81,10.51 112.89,10.51 C110.97,10.51 109.06,10.94 107.48,11.8 C105.35,12.96 103.72,14.84 102.64,17.37 C101.71,19.55 101.22,22.15 101.22,24.91 C101.22,28.63 102.15,32.08 103.82,34.65 C104.8,36.15 106.03,37.33 107.47,38.15 C109.07,39.05 110.89,39.51 112.9,39.51 C114.91,39.51 116.72,39.06 118.39,38.17 C119.34,37.67 120.23,37.02 121.05,36.22 L121.15,38.75 L126.35,38.75 L126.24,36.96 C126.14,35.43 126.03,33.7 126.03,32.04" id="Shape"></path>
                        <path d="M146.21,23.35 C144.05,22.61 142.12,22.13 140.39,21.69 C139.28,21.41 138.31,21.17 137.49,20.91 C136.47,20.59 135.76,20.25 135.35,19.86 C135.16,19.69 135.02,19.49 134.92,19.26 C134.81,19.02 134.77,18.75 134.77,18.4 C134.77,17.86 134.89,17.4 135.14,16.99 C135.48,16.44 136.06,16 136.88,15.7 C137.66,15.41 138.63,15.25 139.69,15.25 C141.26,15.25 142.56,15.53 143.48,16.05 C143.97,16.33 144.33,16.66 144.6,17.06 C144.9,17.51 145.07,18.03 145.13,18.64 L145.21,19.52 L150.54,19.52 L150.46,18.48 C150.35,17.03 149.98,15.75 149.37,14.7 C148.51,13.2 147.18,12.09 145.41,11.4 C143.91,10.81 142.08,10.52 139.98,10.52 C138.06,10.52 135.28,10.82 132.97,12.24 C131.88,12.91 131.02,13.76 130.43,14.77 C129.77,15.87 129.44,17.16 129.44,18.6 C129.44,19.88 129.72,21.02 130.28,22.01 C130.68,22.69 131.2,23.29 131.84,23.79 C132.65,24.44 133.67,24.97 134.96,25.43 C136.08,25.83 137.25,26.12 138.47,26.41 L139.23,26.57 C141.03,26.96 142.73,27.32 143.95,27.9 C144.62,28.21 145.13,28.58 145.45,29 C145.79,29.45 145.95,29.98 145.96,30.65 C145.96,31.34 145.81,31.93 145.49,32.46 C145.07,33.19 144.35,33.77 143.37,34.17 C142.45,34.55 141.29,34.76 140.11,34.76 C138.32,34.76 136.83,34.45 135.79,33.86 C135.22,33.53 134.79,33.14 134.49,32.65 C134.14,32.12 133.95,31.49 133.9,30.73 L133.84,29.83 L128.56,29.83 L128.56,30.82 C128.59,32.33 128.96,33.69 129.63,34.87 C130.55,36.45 131.99,37.65 133.91,38.46 C135.52,39.14 137.4,39.5 139.36,39.5 C142.46,39.5 145.33,38.72 147.44,37.32 C148.63,36.54 149.57,35.55 150.23,34.4 C150.94,33.16 151.3,31.75 151.3,30.19 C151.3,28.63 150.82,27.18 149.91,25.96 C149.02,24.76 147.74,23.85 146.22,23.33" id="Path"></path>
                        <rect id="Rectangle" x="153.64" y="0.19" width="5.59" height="5.75"></rect>
                        <rect id="Rectangle" x="153.9" y="11.38" width="5.07" height="27.47"></rect>
                        <path d="M197.52,17.41 C198.13,16.69 198.86,16.12 199.67,15.74 C200.54,15.33 201.53,15.12 202.61,15.12 C203.79,15.12 204.86,15.31 205.78,15.7 C207.05,16.23 208.07,17.14 208.82,18.38 C209.38,19.33 209.77,20.49 209.97,21.83 L195.53,21.83 C195.85,20.1 196.54,18.54 197.51,17.41 M209.88,29.38 C209.54,30.85 208.72,32.18 207.56,33.13 C206.36,34.12 204.89,34.64 203.33,34.64 C201.93,34.64 200.7,34.4 199.65,33.93 C198.23,33.29 197.14,32.2 196.39,30.72 C195.81,29.58 195.45,28.18 195.33,26.56 L215.42,26.56 L215.42,25.59 C215.42,21.09 214.46,17.5 212.56,14.92 C211.5,13.47 210.14,12.35 208.51,11.59 C206.81,10.8 204.8,10.39 202.55,10.39 C200.54,10.39 198.68,10.81 197.02,11.64 C194.76,12.78 192.91,14.68 191.68,17.14 C190.54,19.41 189.94,22.09 189.94,24.89 C189.94,28.74 191,32.27 192.93,34.84 C194,36.27 195.31,37.38 196.83,38.14 C198.47,38.96 200.32,39.37 202.35,39.37 C205.72,39.37 208.49,38.58 210.58,37.01 C212.72,35.42 214.23,32.98 215.09,29.74 L215.18,29.37 L209.88,29.37 L209.88,29.38 Z" id="Shape"></path>
                    </g>
                    <g transform="translate(28.15, 51.67)">
                        <polygon id="Path" points="5.81 21.56 23.79 21.56 23.79 16.56 5.81 16.56 5.81 5.01 24.7 5.01 24.7 0 2.13162821e-14 0 2.13162821e-14 39.06 25.12 39.06 25.12 34.06 5.81 34.06"></polygon>
                        <path d="M49.74,12.9 C47.91,11.67 45.77,11.05 43.37,11.05 C39.53,11.05 36.71,12.55 34.97,15.52 L34.77,11.76 L29.27,11.76 L29.27,11.99 C29.33,13.22 29.36,14.35 29.36,15.34 L29.36,39.07 L35.02,39.07 L35.02,22.74 C35.02,20.54 35.72,18.71 37.11,17.31 C38.37,16.03 39.98,15.38 41.89,15.38 C43.8,15.38 45.27,16 46.49,17.23 C47.39,18.09 47.84,19.51 47.84,21.45 L47.84,39.06 L53.5,39.06 L53.5,20.42 C53.5,17.05 52.24,14.52 49.76,12.89 L49.74,12.9 Z" id="Path"></path>
                        <path d="M99.28,11.05 C95.1,11.05 92.33,12.56 91.02,15.54 L90.94,11.76 L85.43,11.76 L85.43,11.99 C85.49,13.23 85.52,14.35 85.52,15.34 L85.52,39.07 L91.18,39.07 L91.18,24.24 C91.18,18.86 93.57,16.25 98.49,16.25 C99.37,16.25 100.09,16.28 100.62,16.35 L100.87,16.38 L100.84,11.06 L99.28,11.06 L99.28,11.05 Z" id="Path"></path>
                        <path d="M122.21,14.81 C120.29,12.31 117.54,11.05 114.01,11.05 C110.48,11.05 107.41,12.28 105.14,14.71 C102.87,17.14 101.72,20.66 101.72,25.17 C101.72,29.14 102.68,32.4 104.57,34.88 C106.49,37.37 109.53,38.64 113.59,38.64 C117.65,38.64 120.34,37.32 121.87,34.72 C121.82,38.64 121.45,41.32 120.77,42.7 C119.83,44.6 117.87,45.57 114.93,45.57 C111.03,45.57 109.07,43.95 108.93,40.61 L108.93,40.4 L103.11,40.4 L103.11,40.62 C103.17,43.88 104.13,46.23 105.98,47.61 C107.81,48.96 110.8,49.65 114.85,49.65 C119.42,49.65 122.73,48.64 124.68,46.65 C125.81,45.58 126.57,44.22 126.95,42.63 C127.34,41.04 127.53,38.33 127.53,34.58 L127.53,16.35 C127.55,15.77 127.56,14.97 127.56,13.96 C127.56,12.95 127.58,12.28 127.61,11.99 L127.64,11.75 L122.3,11.75 L122.21,14.81 L122.21,14.81 Z M119.71,17.3 C121.15,18.74 121.88,21.1 121.88,24.31 C121.88,27.71 121.25,30.31 120.01,32.03 C118.8,33.71 116.89,34.56 114.34,34.56 C112.15,34.56 110.43,33.74 109.22,32.13 C108.01,30.48 107.4,28.08 107.4,24.99 C107.4,18.36 109.67,15.13 114.34,15.13 C116.47,15.13 118.28,15.86 119.72,17.3 L119.71,17.3 Z" id="Shape"></path>
                        <polygon id="Path" points="153.05 11.76 144.93 32.15 136.5 11.89 136.44 11.76 130.35 11.76 141.68 38.64 137.52 49.09 143.22 49.09 147.39 38.3 159.01 12.07 159.15 11.76"></polygon>
                        <path d="M64.15,17.95 C64.76,17.23 65.49,16.66 66.3,16.28 C67.17,15.87 68.16,15.66 69.24,15.66 C70.42,15.66 71.49,15.85 72.41,16.24 C73.68,16.77 74.7,17.68 75.45,18.92 C76.01,19.87 76.4,21.03 76.6,22.37 L62.16,22.37 C62.48,20.64 63.17,19.08 64.14,17.95 M76.51,29.92 C76.17,31.39 75.35,32.72 74.19,33.67 C72.99,34.66 71.52,35.18 69.96,35.18 C68.56,35.18 67.33,34.94 66.28,34.47 C64.86,33.83 63.77,32.74 63.02,31.26 C62.44,30.12 62.08,28.72 61.96,27.1 L82.05,27.1 L82.05,26.13 C82.05,21.63 81.09,18.04 79.19,15.46 C78.13,14.01 76.77,12.89 75.14,12.13 C73.44,11.34 71.43,10.93 69.18,10.93 C67.17,10.93 65.31,11.35 63.65,12.18 C61.39,13.32 59.54,15.22 58.31,17.68 C57.17,19.95 56.57,22.63 56.57,25.43 C56.57,29.28 57.63,32.81 59.56,35.38 C60.63,36.81 61.94,37.92 63.46,38.68 C65.1,39.5 66.95,39.91 68.98,39.91 C72.35,39.91 75.12,39.12 77.21,37.55 C79.35,35.96 80.86,33.52 81.72,30.28 L81.81,29.91 L76.51,29.91 L76.51,29.92 Z" id="Shape"></path>
                    </g>
                </g>
            </g>
        </g>
    </g>
</svg>
