<?xml version="1.0" encoding="UTF-8"?>
<svg id="Layer_1" data-name="Layer 1" xmlns="http://www.w3.org/2000/svg" viewBox="0 0 798.16 85.49">
  <defs>
    <style>
      .cls-1 {
        fill: #FFFFFF;
      }
    </style>
  </defs>
  <path class="cls-1" d="M0,8.32h30.16c17.92,0,29.07,10.08,29.07,25.36v.22c0,17.02-13.77,25.9-30.6,25.9h-15.19v24.39H0V8.32ZM29.07,47.77c10.16,0,16.5-5.64,16.5-13.55v-.22c0-8.89-6.45-13.55-16.5-13.55h-15.63v27.31h15.63Z"/>
  <path class="cls-1" d="M103.34,7.78h-12.46l-33.66,76.41h13.77l7.87-18.32,4.92-11.81,13.11-30.35,13.22,30.35,4.92,11.81,7.76,18.32h14.21L103.34,7.78Z"/>
  <path class="cls-1" d="M156.03,20.67h-24.37v-12.36h62.18v12.36h-24.37v63.52h-13.44V20.67Z"/>
  <path class="cls-1" d="M205.2,8.32h13.44v75.87h-13.44V8.32Z"/>
  <path class="cls-1" d="M233.07,8.32h56.72v11.92h-43.28v19.73h38.36v12.03h-38.36v20.27h43.82v11.92h-57.26V8.32Z"/>
  <path class="cls-1" d="M305.12,8.32h12.46l40.98,52.46V8.32h13.22v75.87h-11.26l-42.18-53.98v53.98h-13.22V8.32Z"/>
  <path class="cls-1" d="M407.18,20.67h-24.37v-12.36h62.18v12.36h-24.37v63.52h-13.44V20.67Z"/>
  <path class="cls-1" d="M478,74.32l45.24-54.19h-43.71v-11.81h61.31v9.86l-45.24,54.19h45.24v11.81h-62.84v-9.86Z"/>
  <path class="cls-1" d="M554.68,8.32h56.72v11.92h-43.28v19.73h38.36v12.03h-38.36v20.27h43.82v11.92h-57.26V8.32Z"/>
  <path class="cls-1" d="M626.73,8.32h34.1c9.62,0,17.16,2.82,22.08,7.59,4.04,4.12,6.34,9.75,6.34,16.37v.22c0,12.46-7.54,19.94-18.14,22.98l20.65,28.72h-15.96l-18.8-26.45h-16.83v26.45h-13.44V8.32ZM659.84,45.93c9.62,0,15.74-4.99,15.74-12.68v-.22c0-8.13-5.9-12.57-15.85-12.57h-19.56v25.47h19.67Z"/>
  <path class="cls-1" d="M699.34,46.47v-.22c0-21.35,16.61-39.24,40.11-39.24s39.89,17.67,39.89,39.02v.22c0,21.35-16.61,39.24-40.11,39.24s-39.89-17.67-39.89-39.02ZM765.24,46.47v-.22c0-14.74-10.82-26.88-26.01-26.88s-25.79,11.92-25.79,26.66v.22c0,14.74,10.82,26.88,26.01,26.88s25.79-11.92,25.79-26.66Z"/>
  <g id="g4602">
    <path id="path4604" class="cls-1" d="M798.16,10.34c0,5.71-4.63,10.34-10.35,10.34-5.71,0-10.34-4.63-10.34-10.34h0C777.47,4.63,782.1,0,787.8,0c0,0,0,0,0,0,5.71,0,10.35,4.63,10.35,10.34,0,0,0,0,0,0"/>
  </g>
</svg>