<svg width="961" height="533" viewBox="0 0 961 533" fill="none"
    xmlns="http://www.w3.org/2000/svg">
    <path d="M192.067 42.8007C160.467 47.0674 130.734 57.734 104.734 73.734C76.2003 91.4673 50.6003 117.067 33.667 144.667C22.067 163.467 9.40033 194.134 6.33366 210.934L5.40033 215.867L13.9337 213.067C30.867 207.601 60.6003 208.267 81.0003 214.667C104.2 221.734 121.934 232.934 167.134 268.801C203.4 297.734 223.667 306.534 251.4 305.467L256.334 305.334V297.601C256.334 290.134 254.734 282.401 252.467 278.801C251.534 277.334 249.8 277.467 241.934 279.467C233.8 281.601 231.134 281.734 223.667 280.401C211.934 278.401 201.534 272.934 191.667 263.734C175.534 248.801 169 228.001 174.2 208.534C178.734 191.334 191 176.267 205.667 169.601C216.867 164.534 234.334 164.134 251.134 168.401C276.467 174.934 289.933 183.334 334.067 219.867C345.667 229.467 358.867 240.001 363.533 243.334C373 250.134 390.333 259.067 398.333 261.201C406.867 263.734 423.8 265.334 431.133 264.401L438.067 263.601L437.267 248.534C435.4 214.534 424.067 176.534 407.533 148.934C374.733 94.534 322.467 57.6007 260.334 45.2007C244.467 42.0007 207.267 40.6674 192.067 42.8007Z" fill="black"/>
    <path d="M183.934 217.067C183 221.867 184.734 233.734 187.134 239.067C188.334 241.734 189.4 242.534 190.867 241.867C202.467 236.934 213 236.8 226.6 241.467C246.334 248.267 263.4 268 267.134 288.4C271.267 311.334 256.734 339.067 235.4 349.067C228.867 352.133 225.4 352.8 214.067 353.067C198.467 353.6 185.267 350.934 168.467 343.6C152.734 336.8 151.267 335.734 91.8003 287.467C64.6003 265.467 44.867 256.134 23.0004 254.934C16.467 254.667 9.26704 255.067 5.93371 255.867L0.200378 257.467L1.00038 269.067C4.73371 322.4 22.7337 366.534 56.2003 404.533C110.334 466.133 198.067 491.867 277.667 469.733C303 462.667 325 452.133 347.667 436.133C361.933 426 385.667 402.133 396.733 386.667C411.667 365.6 428.733 327.734 431.933 308.8C432.733 304 432.467 303.6 430.2 304.667C421.933 308.134 411.533 309.6 395.667 309.6C357.133 309.734 332.867 298.267 276.867 253.2C240.734 224.134 222.467 215.067 197.534 213.734L184.734 212.934L183.934 217.067Z" fill="black"/>
    <path d="M960.728 390.826C960.728 394.133 960.129 397.027 958.93 399.507C957.731 401.988 955.994 404.076 953.721 405.771C951.488 407.424 948.78 408.664 945.597 409.491C942.414 410.318 938.838 410.731 934.869 410.731C930.363 410.731 926.498 410.359 923.273 409.615C920.048 408.912 917.216 407.858 914.777 406.453V396.159C916.059 396.82 917.485 397.482 919.056 398.143C920.627 398.763 922.281 399.321 924.017 399.817C925.753 400.313 927.531 400.727 929.35 401.058C931.21 401.347 933.05 401.492 934.869 401.492C937.556 401.492 939.83 401.264 941.69 400.81C943.592 400.355 945.122 399.714 946.279 398.887C947.478 398.019 948.346 396.986 948.884 395.787C949.421 394.546 949.69 393.182 949.69 391.694C949.69 390.412 949.483 389.255 949.07 388.221C948.656 387.188 947.892 386.175 946.775 385.183C945.701 384.149 944.212 383.116 942.311 382.082C940.409 381.049 937.97 379.891 934.993 378.609C932.017 377.328 929.329 376.067 926.932 374.827C924.575 373.586 922.57 372.201 920.917 370.672C919.263 369.142 917.981 367.385 917.072 365.401C916.204 363.375 915.77 360.977 915.77 358.208C915.77 355.314 916.328 352.75 917.444 350.518C918.601 348.244 920.214 346.343 922.281 344.813C924.348 343.283 926.828 342.126 929.722 341.34C932.616 340.555 935.841 340.162 939.396 340.162C943.406 340.162 947.065 340.596 950.372 341.464C953.721 342.333 956.883 343.469 959.86 344.875L955.953 353.991C953.266 352.792 950.496 351.758 947.644 350.89C944.832 349.981 941.959 349.526 939.024 349.526C934.807 349.526 931.686 350.229 929.66 351.634C927.634 352.999 926.622 354.962 926.622 357.525C926.622 358.972 926.849 360.233 927.304 361.308C927.8 362.383 928.627 363.396 929.784 364.347C930.942 365.298 932.492 366.269 934.435 367.261C936.378 368.212 938.797 369.287 941.69 370.486C944.667 371.726 947.313 372.966 949.628 374.207C951.984 375.447 953.989 376.852 955.643 378.423C957.297 379.953 958.558 381.71 959.426 383.694C960.294 385.679 960.728 388.056 960.728 390.826Z" fill="black"/>
    <path d="M898.589 340.162C899.788 340.162 901.132 340.224 902.62 340.348C904.108 340.431 905.39 340.576 906.465 340.782L904.977 351.2C903.819 350.993 902.62 350.828 901.38 350.704C900.181 350.539 899.044 350.456 897.969 350.456C895.365 350.456 892.988 350.993 890.838 352.068C888.688 353.102 886.828 354.611 885.257 356.595C883.727 358.538 882.528 360.895 881.66 363.665C880.833 366.393 880.42 369.432 880.42 372.78V409.491H869.134V341.402H878.312L879.676 353.867H880.172C881.205 352.089 882.301 350.373 883.458 348.72C884.657 347.066 885.98 345.619 887.427 344.379C888.916 343.097 890.569 342.084 892.388 341.34C894.207 340.555 896.274 340.162 898.589 340.162Z" fill="black"/>
    <path d="M827.955 410.731C823.407 410.731 819.253 409.967 815.491 408.437C811.729 406.907 808.483 404.675 805.755 401.74C803.068 398.805 800.98 395.167 799.492 390.826C798.003 386.485 797.259 381.524 797.259 375.943C797.259 370.32 797.941 365.298 799.306 360.874C800.67 356.451 802.592 352.709 805.073 349.65C807.553 346.549 810.509 344.193 813.94 342.581C817.413 340.968 821.237 340.162 825.412 340.162C829.505 340.162 833.185 340.906 836.451 342.395C839.717 343.841 842.486 345.909 844.76 348.596C847.034 351.242 848.77 354.445 849.969 358.208C851.209 361.928 851.829 366.062 851.829 370.61V377.617H808.917C809.124 385.596 810.798 391.466 813.94 395.229C817.124 398.991 821.836 400.872 828.079 400.872C830.187 400.872 832.13 400.768 833.908 400.562C835.727 400.355 837.463 400.065 839.117 399.693C840.812 399.28 842.445 398.784 844.016 398.205C845.587 397.585 847.179 396.903 848.791 396.159V406.205C847.137 406.99 845.504 407.672 843.892 408.251C842.321 408.83 840.688 409.305 838.993 409.677C837.339 410.049 835.603 410.318 833.784 410.483C832.006 410.649 830.063 410.731 827.955 410.731ZM825.164 349.526C820.452 349.526 816.71 351.138 813.94 354.363C811.212 357.587 809.62 362.28 809.165 368.439H839.675C839.675 365.628 839.386 363.065 838.807 360.75C838.27 358.394 837.401 356.389 836.203 354.735C835.045 353.081 833.557 351.8 831.738 350.89C829.919 349.981 827.728 349.526 825.164 349.526Z" fill="black"/>
    <path d="M768.669 409.491V365.649C768.669 360.275 767.573 356.244 765.382 353.557C763.232 350.869 759.842 349.526 755.212 349.526C751.864 349.526 749.052 350.063 746.779 351.138C744.505 352.213 742.665 353.805 741.26 355.913C739.895 358.021 738.903 360.605 738.283 363.665C737.704 366.724 737.415 370.238 737.415 374.207V409.491H726.129V341.402H735.307L736.919 350.58H737.539C738.572 348.802 739.792 347.273 741.198 345.991C742.645 344.668 744.216 343.573 745.911 342.705C747.606 341.836 749.404 341.196 751.306 340.782C753.207 340.369 755.15 340.162 757.135 340.162C764.7 340.162 770.384 342.146 774.188 346.115C778.033 350.043 779.955 356.347 779.955 365.029V409.491H768.669Z" fill="black"/>
    <path d="M703.553 401.492C704.298 401.492 705.124 401.45 706.034 401.368C706.985 401.285 707.894 401.182 708.762 401.058C709.631 400.934 710.416 400.789 711.119 400.624C711.863 400.458 712.421 400.313 712.793 400.189V408.747C712.256 408.995 711.574 409.243 710.747 409.491C709.92 409.739 709.01 409.946 708.018 410.111C707.026 410.318 705.993 410.463 704.918 410.545C703.843 410.669 702.789 410.731 701.755 410.731C699.192 410.731 696.815 410.401 694.624 409.739C692.433 409.078 690.531 407.941 688.919 406.329C687.348 404.716 686.108 402.546 685.198 399.817C684.288 397.048 683.834 393.575 683.834 389.399V349.898H674.222V344.875L683.834 340.038L688.671 325.775H695.182V341.402H712.297V349.898H695.182V389.399C695.182 393.41 695.823 396.427 697.104 398.453C698.427 400.479 700.577 401.492 703.553 401.492Z" fill="black"/>
    <path d="M661.569 340.162C662.767 340.162 664.111 340.224 665.599 340.348C667.088 340.431 668.369 340.576 669.444 340.782L667.956 351.2C666.798 350.993 665.599 350.828 664.359 350.704C663.16 350.539 662.023 350.456 660.948 350.456C658.344 350.456 655.967 350.993 653.817 352.068C651.667 353.102 649.807 354.611 648.236 356.595C646.706 358.538 645.508 360.895 644.639 363.665C643.813 366.393 643.399 369.432 643.399 372.78V409.491H632.113V341.402H641.291L642.655 353.867H643.151C644.185 352.089 645.28 350.373 646.438 348.72C647.637 347.066 648.96 345.619 650.406 344.379C651.895 343.097 653.548 342.084 655.367 341.34C657.186 340.555 659.253 340.162 661.569 340.162Z" fill="black"/>
    <path d="M602.903 409.491L600.608 400.065H600.112C598.748 401.926 597.384 403.538 596.019 404.902C594.655 406.225 593.167 407.321 591.554 408.189C589.942 409.057 588.144 409.698 586.159 410.111C584.175 410.525 581.881 410.731 579.276 410.731C576.424 410.731 573.798 410.318 571.401 409.491C569.003 408.706 566.915 407.486 565.137 405.833C563.401 404.138 562.037 402.029 561.045 399.507C560.052 396.944 559.556 393.926 559.556 390.454C559.556 383.674 561.934 378.465 566.688 374.827C571.483 371.189 578.759 369.204 588.516 368.874L599.926 368.439V364.161C599.926 361.391 599.616 359.076 598.996 357.215C598.417 355.355 597.549 353.867 596.391 352.75C595.275 351.593 593.87 350.766 592.175 350.27C590.521 349.774 588.619 349.526 586.469 349.526C583.038 349.526 579.834 350.022 576.858 351.014C573.922 352.006 571.091 353.205 568.362 354.611L564.393 346.115C567.453 344.462 570.863 343.056 574.625 341.898C578.387 340.741 582.335 340.162 586.469 340.162C590.686 340.162 594.324 340.596 597.384 341.464C600.484 342.291 603.027 343.635 605.011 345.495C607.037 347.314 608.546 349.65 609.538 352.502C610.53 355.355 611.026 358.807 611.026 362.858V409.491H602.903ZM582.191 401.616C584.712 401.616 587.048 401.223 589.198 400.438C591.348 399.652 593.208 398.474 594.779 396.903C596.35 395.291 597.57 393.285 598.438 390.888C599.347 388.449 599.802 385.596 599.802 382.33V376.191L590.934 376.625C587.214 376.79 584.092 377.204 581.571 377.865C579.049 378.527 577.023 379.457 575.493 380.656C574.005 381.813 572.93 383.24 572.269 384.935C571.607 386.588 571.277 388.469 571.277 390.578C571.277 394.381 572.269 397.172 574.253 398.949C576.279 400.727 578.925 401.616 582.191 401.616Z" fill="black"/>
    <path d="M520.734 410.731C518.295 410.731 516.083 410.463 514.099 409.925C512.115 409.388 510.316 408.685 508.704 407.817C507.133 406.907 505.727 405.853 504.487 404.654C503.288 403.455 502.213 402.194 501.262 400.872H500.518C500.642 402.277 500.766 403.621 500.89 404.902C500.973 405.977 501.056 407.093 501.138 408.251C501.221 409.367 501.262 410.256 501.262 410.917V440.001H489.976V341.402H499.154L500.766 350.58H501.262C502.213 349.133 503.288 347.79 504.487 346.549C505.686 345.268 507.071 344.172 508.642 343.263C510.254 342.312 512.052 341.568 514.037 341.03C516.021 340.451 518.254 340.162 520.734 340.162C524.62 340.162 528.155 340.906 531.338 342.395C534.521 343.883 537.229 346.115 539.462 349.092C541.735 352.027 543.492 355.686 544.733 360.068C545.973 364.45 546.593 369.535 546.593 375.323C546.593 381.152 545.973 386.278 544.733 390.702C543.492 395.084 541.735 398.763 539.462 401.74C537.229 404.716 534.521 406.969 531.338 408.499C528.155 409.987 524.62 410.731 520.734 410.731ZM518.564 349.526C515.422 349.526 512.755 350.001 510.564 350.952C508.414 351.903 506.657 353.35 505.293 355.293C503.97 357.236 502.978 359.654 502.317 362.548C501.697 365.442 501.345 368.853 501.262 372.78V375.323C501.262 379.498 501.531 383.219 502.069 386.485C502.647 389.709 503.598 392.438 504.921 394.67C506.285 396.861 508.084 398.536 510.316 399.693C512.549 400.81 515.339 401.368 518.688 401.368C524.269 401.368 528.362 399.115 530.966 394.608C533.612 390.102 534.935 383.632 534.935 375.199C534.935 366.6 533.612 360.171 530.966 355.913C528.362 351.655 524.227 349.526 518.564 349.526Z" fill="black"/>
    <path d="M850.462 230.162C851.661 230.162 853.004 230.224 854.493 230.348C855.981 230.431 857.263 230.576 858.337 230.782L856.849 241.2C855.692 240.993 854.493 240.828 853.252 240.704C852.054 240.539 850.917 240.456 849.842 240.456C847.237 240.456 844.86 240.993 842.71 242.068C840.561 243.102 838.7 244.611 837.129 246.595C835.6 248.538 834.401 250.895 833.533 253.665C832.706 256.393 832.292 259.432 832.292 262.78V299.491H821.006V231.402H830.184L831.548 243.867H832.044C833.078 242.089 834.174 240.373 835.331 238.72C836.53 237.066 837.853 235.619 839.3 234.379C840.788 233.097 842.442 232.084 844.261 231.34C846.08 230.555 848.147 230.162 850.462 230.162Z" fill="black"/>
    <path d="M779.828 300.731C775.28 300.731 771.125 299.967 767.363 298.437C763.601 296.907 760.356 294.675 757.627 291.74C754.94 288.805 752.853 285.167 751.364 280.826C749.876 276.485 749.132 271.524 749.132 265.943C749.132 260.32 749.814 255.298 751.178 250.874C752.542 246.451 754.465 242.709 756.945 239.65C759.426 236.549 762.382 234.193 765.813 232.581C769.286 230.968 773.11 230.162 777.285 230.162C781.378 230.162 785.057 230.906 788.323 232.395C791.589 233.841 794.359 235.909 796.633 238.596C798.907 241.242 800.643 244.445 801.842 248.208C803.082 251.928 803.702 256.062 803.702 260.61V267.617H760.79C760.997 275.596 762.671 281.466 765.813 285.229C768.996 288.991 773.709 290.872 779.952 290.872C782.06 290.872 784.003 290.768 785.781 290.562C787.6 290.355 789.336 290.065 790.99 289.693C792.685 289.28 794.318 288.784 795.889 288.205C797.46 287.585 799.051 286.903 800.664 286.159V296.205C799.01 296.99 797.377 297.672 795.765 298.251C794.194 298.83 792.561 299.305 790.866 299.677C789.212 300.049 787.476 300.318 785.657 300.483C783.879 300.649 781.936 300.731 779.828 300.731ZM777.037 239.526C772.324 239.526 768.583 241.138 765.813 244.363C763.084 247.587 761.493 252.28 761.038 258.439H791.548C791.548 255.628 791.258 253.065 790.68 250.75C790.142 248.394 789.274 246.389 788.075 244.735C786.918 243.081 785.429 241.8 783.61 240.89C781.791 239.981 779.6 239.526 777.037 239.526Z" fill="black"/>
    <path d="M720.045 300.731C715.87 300.731 711.963 300.091 708.325 298.809C704.687 297.486 701.525 295.419 698.837 292.608C696.15 289.755 694.042 286.138 692.512 281.756C690.983 277.332 690.218 272.02 690.218 265.819C690.218 259.328 691.003 253.83 692.574 249.324C694.145 244.776 696.295 241.097 699.023 238.286C701.793 235.433 705.018 233.366 708.697 232.084C712.377 230.803 716.325 230.162 720.542 230.162C723.766 230.162 726.908 230.514 729.967 231.216C733.068 231.919 735.652 232.787 737.719 233.821L734.37 243.371C733.419 242.957 732.365 242.564 731.208 242.192C730.05 241.779 728.851 241.428 727.611 241.138C726.371 240.807 725.151 240.559 723.952 240.394C722.753 240.187 721.616 240.084 720.542 240.084C714.051 240.084 709.317 242.172 706.341 246.347C703.364 250.481 701.876 256.931 701.876 265.695C701.876 274.418 703.364 280.805 706.341 284.856C709.359 288.867 713.927 290.872 720.045 290.872C723.394 290.872 726.412 290.5 729.099 289.755C731.828 288.97 734.308 288.06 736.541 287.027V297.073C734.308 298.272 731.91 299.181 729.347 299.801C726.825 300.421 723.725 300.731 720.045 300.731Z" fill="black"/>
    <path d="M661.627 299.491V255.649C661.627 250.275 660.532 246.244 658.341 243.557C656.191 240.869 652.801 239.526 648.171 239.526C644.822 239.526 642.011 240.063 639.737 241.138C637.463 242.213 635.624 243.805 634.218 245.913C632.854 248.021 631.862 250.605 631.242 253.665C630.663 256.724 630.373 260.238 630.373 264.207V299.491H619.087V231.402H628.265L629.877 240.58H630.497C631.531 238.802 632.751 237.273 634.156 235.991C635.603 234.668 637.174 233.573 638.869 232.705C640.564 231.836 642.362 231.196 644.264 230.782C646.166 230.369 648.109 230.162 650.093 230.162C657.659 230.162 663.343 232.146 667.146 236.115C670.991 240.043 672.914 246.347 672.914 255.029V299.491H661.627Z" fill="black"/>
    <path d="M589.877 299.491L587.582 290.065H587.086C585.722 291.926 584.358 293.538 582.994 294.902C581.629 296.225 580.141 297.321 578.529 298.189C576.916 299.057 575.118 299.698 573.134 300.111C571.149 300.525 568.855 300.731 566.25 300.731C563.398 300.731 560.773 300.318 558.375 299.491C555.977 298.706 553.889 297.486 552.112 295.833C550.375 294.138 549.011 292.029 548.019 289.507C547.027 286.944 546.531 283.926 546.531 280.454C546.531 273.674 548.908 268.465 553.662 264.827C558.458 261.189 565.734 259.204 575.49 258.874L586.9 258.439V254.161C586.9 251.391 586.59 249.076 585.97 247.215C585.391 245.355 584.523 243.867 583.366 242.75C582.249 241.593 580.844 240.766 579.149 240.27C577.495 239.774 575.593 239.526 573.444 239.526C570.012 239.526 566.808 240.022 563.832 241.014C560.897 242.006 558.065 243.205 555.336 244.611L551.368 236.115C554.427 234.462 557.837 233.056 561.599 231.898C565.362 230.741 569.31 230.162 573.444 230.162C577.661 230.162 581.299 230.596 584.358 231.464C587.458 232.291 590.001 233.635 591.985 235.495C594.011 237.314 595.52 239.65 596.512 242.502C597.504 245.355 598 248.807 598 252.858V299.491H589.877ZM569.165 291.616C571.687 291.616 574.023 291.223 576.172 290.438C578.322 289.652 580.182 288.474 581.753 286.903C583.324 285.291 584.544 283.285 585.412 280.888C586.321 278.449 586.776 275.596 586.776 272.33V266.191L577.909 266.625C574.188 266.79 571.067 267.204 568.545 267.865C566.023 268.527 563.997 269.457 562.468 270.656C560.979 271.813 559.905 273.24 559.243 274.935C558.582 276.588 558.251 278.469 558.251 280.578C558.251 284.381 559.243 287.172 561.227 288.949C563.253 290.727 565.899 291.616 569.165 291.616Z" fill="black"/>
    <path d="M518.622 300.731C514.447 300.731 510.54 300.091 506.902 298.809C503.264 297.486 500.102 295.419 497.414 292.608C494.727 289.755 492.619 286.138 491.089 281.756C489.56 277.332 488.795 272.02 488.795 265.819C488.795 259.328 489.58 253.83 491.151 249.324C492.722 244.776 494.872 241.097 497.6 238.286C500.37 235.433 503.595 233.366 507.274 232.084C510.954 230.803 514.902 230.162 519.119 230.162C522.343 230.162 525.485 230.514 528.544 231.216C531.645 231.919 534.229 232.787 536.296 233.821L532.947 243.371C531.996 242.957 530.942 242.564 529.785 242.192C528.627 241.779 527.428 241.428 526.188 241.138C524.948 240.807 523.728 240.559 522.529 240.394C521.33 240.187 520.193 240.084 519.119 240.084C512.628 240.084 507.894 242.172 504.918 246.347C501.941 250.481 500.453 256.931 500.453 265.695C500.453 274.418 501.941 280.805 504.918 284.856C507.936 288.867 512.504 290.872 518.622 290.872C521.971 290.872 524.989 290.5 527.676 289.755C530.405 288.97 532.885 288.06 535.118 287.027V297.073C532.885 298.272 530.487 299.181 527.924 299.801C525.402 300.421 522.302 300.731 518.622 300.731Z" fill="black"/>
    <path d="M829.885 181.49C830.629 181.49 831.456 181.448 832.365 181.366C833.316 181.283 834.226 181.18 835.094 181.056C835.962 180.932 836.748 180.787 837.45 180.622C838.195 180.456 838.753 180.312 839.125 180.188V188.745C838.587 188.993 837.905 189.241 837.078 189.489C836.252 189.737 835.342 189.944 834.35 190.109C833.358 190.316 832.324 190.461 831.249 190.543C830.174 190.667 829.12 190.729 828.087 190.729C825.524 190.729 823.146 190.399 820.955 189.737C818.764 189.076 816.863 187.939 815.25 186.327C813.679 184.714 812.439 182.544 811.53 179.815C810.62 177.046 810.165 173.573 810.165 169.397V129.896H800.553V124.873L810.165 120.036L815.002 105.773H821.513V121.4H838.629V129.896H821.513V169.397C821.513 173.408 822.154 176.425 823.436 178.451C824.759 180.477 826.908 181.49 829.885 181.49Z" fill="black"/>
    <path d="M792.613 170.824C792.613 174.131 792.014 177.025 790.815 179.505C789.616 181.986 787.879 184.074 785.606 185.769C783.373 187.422 780.665 188.662 777.482 189.489C774.299 190.316 770.723 190.729 766.754 190.729C762.248 190.729 758.383 190.357 755.158 189.613C751.933 188.91 749.101 187.856 746.662 186.451V176.157C747.944 176.818 749.37 177.48 750.941 178.141C752.512 178.761 754.166 179.319 755.902 179.815C757.638 180.312 759.416 180.725 761.235 181.056C763.095 181.345 764.935 181.49 766.754 181.49C769.441 181.49 771.715 181.262 773.575 180.808C775.477 180.353 777.007 179.712 778.164 178.885C779.363 178.017 780.231 176.984 780.769 175.785C781.306 174.544 781.575 173.18 781.575 171.692C781.575 170.41 781.368 169.253 780.955 168.219C780.541 167.186 779.777 166.173 778.66 165.181C777.585 164.147 776.097 163.114 774.195 162.08C772.294 161.047 769.855 159.889 766.878 158.607C763.902 157.326 761.214 156.065 758.817 154.825C756.46 153.584 754.455 152.2 752.801 150.67C751.148 149.14 749.866 147.383 748.957 145.399C748.089 143.373 747.654 140.975 747.654 138.206C747.654 135.312 748.213 132.749 749.329 130.516C750.486 128.242 752.099 126.341 754.166 124.811C756.233 123.281 758.713 122.124 761.607 121.338C764.501 120.553 767.726 120.16 771.281 120.16C775.291 120.16 778.95 120.594 782.257 121.462C785.606 122.331 788.768 123.467 791.745 124.873L787.838 133.989C785.151 132.79 782.381 131.756 779.529 130.888C776.717 129.979 773.844 129.524 770.909 129.524C766.692 129.524 763.571 130.227 761.545 131.632C759.519 132.997 758.507 134.96 758.507 137.523C758.507 138.97 758.734 140.231 759.189 141.306C759.685 142.381 760.512 143.394 761.669 144.345C762.827 145.296 764.377 146.267 766.32 147.259C768.263 148.21 770.681 149.285 773.575 150.484C776.552 151.724 779.198 152.964 781.513 154.205C783.869 155.445 785.874 156.85 787.528 158.421C789.182 159.951 790.443 161.708 791.311 163.692C792.179 165.677 792.613 168.054 792.613 170.824Z" fill="black"/>
    <path d="M722.661 189.489L720.366 180.063H719.87C718.506 181.924 717.142 183.536 715.777 184.9C714.413 186.223 712.925 187.319 711.313 188.187C709.7 189.055 707.902 189.696 705.918 190.109C703.933 190.523 701.639 190.729 699.034 190.729C696.182 190.729 693.557 190.316 691.159 189.489C688.761 188.704 686.673 187.484 684.896 185.831C683.159 184.136 681.795 182.027 680.803 179.505C679.811 176.942 679.315 173.924 679.315 170.452C679.315 163.672 681.692 158.463 686.446 154.825C691.241 151.187 698.518 149.202 708.274 148.872L719.684 148.438V144.159C719.684 141.389 719.374 139.074 718.754 137.213C718.175 135.353 717.307 133.865 716.15 132.749C715.033 131.591 713.628 130.764 711.933 130.268C710.279 129.772 708.377 129.524 706.228 129.524C702.796 129.524 699.592 130.02 696.616 131.012C693.681 132.004 690.849 133.203 688.12 134.609L684.151 126.113C687.211 124.46 690.621 123.054 694.383 121.896C698.145 120.739 702.094 120.16 706.228 120.16C710.444 120.16 714.082 120.594 717.142 121.462C720.242 122.289 722.785 123.633 724.769 125.493C726.795 127.312 728.304 129.648 729.296 132.5C730.288 135.353 730.784 138.805 730.784 142.856V189.489H722.661ZM701.949 181.614C704.471 181.614 706.806 181.221 708.956 180.436C711.106 179.65 712.966 178.472 714.537 176.901C716.108 175.289 717.328 173.284 718.196 170.886C719.105 168.447 719.56 165.594 719.56 162.328V156.189L710.693 156.623C706.972 156.788 703.851 157.202 701.329 157.863C698.807 158.525 696.781 159.455 695.252 160.654C693.763 161.811 692.688 163.238 692.027 164.933C691.366 166.586 691.035 168.467 691.035 170.576C691.035 174.379 692.027 177.17 694.011 178.947C696.037 180.725 698.683 181.614 701.949 181.614Z" fill="black"/>
    <path d="M643.097 190.729C638.549 190.729 634.394 189.965 630.632 188.435C626.87 186.905 623.625 184.673 620.897 181.738C618.209 178.803 616.122 175.165 614.633 170.824C613.145 166.483 612.401 161.522 612.401 155.941C612.401 150.319 613.083 145.296 614.447 140.872C615.812 136.449 617.734 132.707 620.214 129.648C622.695 126.547 625.651 124.191 629.082 122.579C632.555 120.966 636.379 120.16 640.554 120.16C644.647 120.16 648.326 120.904 651.592 122.393C654.858 123.84 657.628 125.907 659.902 128.594C662.176 131.24 663.912 134.444 665.111 138.206C666.351 141.926 666.971 146.06 666.971 150.608V157.615H624.059C624.266 165.594 625.94 171.465 629.082 175.227C632.265 178.989 636.978 180.87 643.221 180.87C645.329 180.87 647.272 180.766 649.05 180.56C650.869 180.353 652.605 180.063 654.259 179.691C655.954 179.278 657.587 178.782 659.158 178.203C660.729 177.583 662.32 176.901 663.933 176.157V186.203C662.279 186.988 660.646 187.67 659.034 188.249C657.463 188.828 655.83 189.303 654.135 189.675C652.481 190.047 650.745 190.316 648.926 190.481C647.148 190.647 645.205 190.729 643.097 190.729ZM640.306 129.524C635.593 129.524 631.852 131.136 629.082 134.361C626.354 137.585 624.762 142.278 624.307 148.438H654.817C654.817 145.626 654.528 143.063 653.949 140.748C653.411 138.392 652.543 136.387 651.344 134.733C650.187 133.079 648.699 131.798 646.88 130.888C645.061 129.979 642.869 129.524 640.306 129.524Z" fill="black"/>
    <path d="M594.787 120.16C595.986 120.16 597.329 120.222 598.817 120.346C600.306 120.429 601.587 120.574 602.662 120.78L601.174 131.198C600.016 130.992 598.817 130.826 597.577 130.702C596.378 130.537 595.241 130.454 594.167 130.454C591.562 130.454 589.185 130.992 587.035 132.066C584.885 133.1 583.025 134.609 581.454 136.593C579.925 138.536 578.726 140.893 577.857 143.663C577.031 146.391 576.617 149.43 576.617 152.778V189.489H565.331V121.4H574.509L575.873 133.865H576.369C577.403 132.087 578.498 130.371 579.656 128.718C580.855 127.064 582.178 125.617 583.625 124.377C585.113 123.095 586.766 122.083 588.586 121.338C590.405 120.553 592.472 120.16 594.787 120.16Z" fill="black"/>
    <path d="M521.548 120.161C525.434 120.161 528.969 120.905 532.152 122.394C535.335 123.882 538.043 126.114 540.275 129.091C542.549 132.026 544.306 135.685 545.546 140.067C546.787 144.449 547.407 149.534 547.407 155.322C547.407 161.151 546.787 166.277 545.546 170.701C544.306 175.083 542.549 178.762 540.275 181.739C538.043 184.715 535.335 186.968 532.152 188.498C528.969 189.986 525.434 190.73 521.548 190.73C519.109 190.73 516.897 190.462 514.913 189.924C512.928 189.387 511.13 188.684 509.518 187.816C507.947 186.906 506.541 185.852 505.301 184.653C504.102 183.454 503.027 182.194 502.076 180.871H501.332L499.038 189.49H490.79V93H502.076V116.316C502.076 117.763 502.056 119.314 502.014 120.967C501.973 122.58 501.911 124.089 501.828 125.494C501.745 127.148 501.663 128.76 501.58 130.331H502.076C503.027 128.884 504.102 127.541 505.301 126.3C506.5 125.06 507.885 123.985 509.456 123.076C511.068 122.166 512.866 121.463 514.851 120.967C516.835 120.43 519.067 120.161 521.548 120.161ZM519.377 129.525C516.07 129.525 513.3 130.062 511.068 131.137C508.877 132.171 507.099 133.762 505.735 135.912C504.412 138.062 503.461 140.749 502.882 143.974C502.345 147.198 502.076 150.981 502.076 155.322C502.076 159.497 502.345 163.218 502.882 166.484C503.461 169.708 504.412 172.437 505.735 174.669C507.099 176.861 508.897 178.535 511.13 179.692C513.362 180.809 516.153 181.367 519.501 181.367C525.083 181.367 529.175 179.114 531.78 174.607C534.426 170.101 535.749 163.631 535.749 155.198C535.749 146.599 534.426 140.17 531.78 135.912C529.175 131.654 525.041 129.525 519.377 129.525Z" fill="black"/>
    <path d="M199.4 250.266C195.4 251.066 195.534 251.999 200.734 256.933C210.867 266.533 225.267 271.333 237.267 269.199C240.6 268.533 243.8 267.599 244.2 267.199C245.4 265.999 234.734 257.599 227 253.733C219.8 250.133 207.267 248.533 199.4 250.266Z" fill="black"/>
</svg>
