<svg xmlns="http://www.w3.org/2000/svg" width="753.333" height="128" version="1.0" viewBox="0 0 565 96">
    <path fill="#000000" d="M4.9 1.5C-.6 4.5-1.3 13.1 3.7 17c5.5 4.3 14.4 1.4 15.8-5.1C21.3 3.6 12.6-2.7 4.9 1.5zM312.3 1C301.2 3.2 295 10.8 295 22.2V26h-10v12h40v-5.4c0-5.2-.1-5.4-3.1-6-1.7-.3-5.3-.6-8-.6-4.6 0-4.9-.2-4.9-2.5 0-6.4 4.7-10.5 12-10.5h4V0l-4.2.1c-2.4.1-6.2.5-8.5.9zM117 17.5V26h-11v13h43V26h-17V9h-15v8.5zM57.8 25.7c-1.5.4-1.8 1.6-1.8 7.3v6.8l3.7-1c7.8-2.1 16.2 1.3 18.9 7.8C79.7 49.1 80 55.4 80 72v22h14V46.3l-3.1-6.2c-3.4-6.8-7.3-10.3-14.9-13.2-4.7-1.8-13.8-2.4-18.2-1.2zM181.4 27.1c-7.6 2.3-14.8 8.5-18.9 16.1-2.6 4.6-3 6.5-3.3 15.3-.5 13 1.7 19.6 9.2 27.1 7.2 7.1 14.1 9.7 26.6 9.7 8.3.1 10.3-.3 15.6-2.7 3.4-1.5 7.6-4.2 9.4-6.1l3.1-3.2-5.6-3.2c-5.2-2.9-5.9-3.1-7.4-1.7-4.8 4.3-17.4 6-24.9 3.3-5.6-2.1-12.2-9.9-12.2-14.7 0-.7 9.1-1 27-1h27v-7c0-16.5-10.8-30.1-26.7-33.5l-3.3-.7v6.6c0 5.5.3 6.6 1.7 6.6 5.3 0 14.3 9.3 14.3 14.9 0 2.1-.3 2.1-20 2.1-15.3 0-20-.3-20-1.3 0-.6.9-3.1 1.9-5.3 2.2-4.8 7.3-9.1 11.9-10 3.2-.6 3.2-.7 3.2-7 0-7.3.3-7.2-8.6-4.3zM262.5 27.5c-5.3 5.2-1.6 14.5 5.8 14.5 5.5 0 9.6-5.2 8.3-10.5-1.6-6.4-9.6-8.6-14.1-4zM495.1 26.6c-7.1 1.9-11 4.4-16.5 10.5-5.9 6.6-8.1 13.1-8.1 23.9.1 7 .5 9.5 2.7 14.1 3.5 7.6 8.8 13.3 15.6 16.6 4.8 2.3 7.2 2.8 15.8 3.1 6.2.3 11.7 0 14.1-.8 4.4-1.4 13.9-7.5 14.7-9.5.3-.9-1.3-2.5-4.7-4.4-4.4-2.5-5.4-2.8-6.7-1.7-8.2 7.2-25.5 6.3-32.8-1.7-1.3-1.4-3-4.2-3.7-6.4l-1.3-3.8 27.5-.3 27.6-.2-.6-7.9c-1.1-16.5-10.8-28.6-25.5-31.9l-4.2-1v11.6l5.3 2.6c5.6 2.7 9.3 7.1 10.3 12.4l.7 3.2h-41.4l.6-2.3c2.3-7.5 7.7-12.7 15.8-15.1 1.4-.4 1.7-1.7 1.7-6.6 0-3.3-.3-6-.7-5.9-.5 0-3.2.7-6.2 1.5zM3 60v34h14V26H3v34zM239 60v34h14V26h-14v34zM337 49.2c0 12.3.5 24 1 26 1.6 5.7 7.1 13 12 16 5.5 3.4 14.9 5.2 20.5 4.1l4-.9.3-6.5.3-6.6-5 1c-6.3 1.3-13-1-16.3-5.6-2.2-3.1-2.3-4.1-2.6-26.5l-.3-23.2H337v22.2zM382 59.1v32l2.8-1.9c4.1-3 5.9-5.3 8.4-10.7 2.1-4.7 2.3-6.5 2.6-28.3l.4-23.2H382v32.1zM408 33v6h11.8l11.7-.1 3.8-5.4c2-2.9 3.7-5.6 3.7-5.9 0-.3-7-.6-15.5-.6H408v6zM426.2 58.9C414 76.5 404 91.6 404 92.5c0 1.3 1.1 1.5 6.7 1.3l6.7-.3 21.8-31.3C451.2 45 461 30 461 29c0-1.8-.7-2-6.3-2h-6.4l-22.1 31.9zM43 34.8c-6.5 6.8-7 9.2-7 36.1V94h14V62c0-24-.3-32-1.2-32-.6 0-3.2 2.1-5.8 4.8zM117.2 62.7c.3 16.1.6 18.2 2.6 22 3.9 7.4 13.3 11.8 23.7 11.1l5-.3.3-6.3.3-6.2h-4.2c-5.2 0-10.3-2.4-11.8-5.6-.7-1.5-1.1-8.4-1.1-17.4V45h-15.2l.4 17.7zM295 70v24h14V46h-14v24zM546.9 77.9c-5.8 5.8-2.9 15.9 5.1 17.6 4.5 1 9.8-1.8 11.6-6.1 2-4.7 1.1-8.7-2.8-11.9-4.3-3.6-10-3.5-13.9.4zM431.7 85.2c-1.3 1.8-3.2 4.5-4.2 6.1l-1.7 2.7H462V82h-27.9l-2.4 3.2z"/>
</svg>
