<svg height="124" viewBox="0 0 601 124" width="601"
    xmlns="http://www.w3.org/2000/svg"
    xmlns:xlink="http://www.w3.org/1999/xlink">
    <path d="m205.8 14.1h-78.5v14.6h31.6v80.3h15.3v-80.3h31.6zm2.7 32.8-1.4-8.2h-13.7v70.3h15.3v-46.7c2.3-3.2 5.5-5.7 9.6-7.3 4.3-1.8 8.9-3 13.7-3h2.7v-14.8h-2.7c-9.2.1-17.1 3.3-23.5 9.7zm33.9-35.3h16.2v16.2h-16.2zm.5 27.1h15.3v70.3h-15.3zm193.4-1.4c-8.4 0-16.2 3.2-23 9.8l-1.4-8.4h-13.6v70.3h15.3v-45.8c6.1-7.5 13-11.4 19.8-11.4 8.6 0 12.7 4.6 12.7 14.3v42.8h15.3v-44.2c0-7.7-2.3-14.3-6.6-19.6-4.6-5-10.7-7.8-18.5-7.8zm56.9-15.4-27.8 27.3v3.2h12.5v38.9c0 12.5 7.3 19.1 20.9 19.1 4.6 0 8.6-1.1 12.5-3.2l.9-.5v-12.5h-3l-.2.2c-5.9 2.5-10.9 2.3-13.7 1.1-1.4-.7-2-2.3-2-5.2v-38h19.1v-13.7h-19.1zm28-10.3h16.2v16.2h-16.2zm.5 27.1h15.3v70.3h-15.3zm73.5 37.3c-3-3.4-6.4-5.5-10.7-6.6l-11.6-3c-3.6-.9-7.1-2-9.6-3.4-3-1.4-3.2-3-3.2-4.3 0-1.8 1.1-3.4 3.2-4.8 2.3-1.4 6.1-2.3 11.6-2.3 5.2 0 10.9 1.1 16.6 3.6l.2.2h3v-13.9l-1.1-.5c-6.8-2.5-14.1-3.9-21.9-3.9-8 0-14.3 2-19.1 6.1s-7.3 9.6-7.3 16.2c0 4.8 1.6 8.9 4.6 12.3 3 3.2 6.6 5.2 10.7 6.4l11.6 3.2c3.6.9 6.8 2 9.6 3.4 3.2 1.4 3.2 3 3.2 3.4 0 3.2-1.4 7.7-12.7 7.7-8.2 0-15.7-2-22.5-6.1l-.5-.2h-2.7v14.1l.9.5c7.3 4.1 15.7 6.1 24.6 6.1 9.1 0 16.2-2 20.7-5.9 4.8-4.1 7.3-8.9 7.3-14.8-.6-5.5-1.9-10.3-4.9-13.5zm-236-38.7c-4.1 0-8.4.7-12.3 2.3-4.1 1.6-7.5 3.9-10.7 6.8-3.2 3-5.7 6.8-7.5 11.4s-2.7 10-2.7 16.2c0 5.2.7 10 2.3 14.3 1.4 4.3 3.6 8.2 6.8 11.4 3 3.2 6.8 5.7 11.6 7.5 4.6 1.8 10.2 2.7 16.6 2.7 2.5 0 5-.2 7.3-.5 2.3-.2 4.6-.7 6.6-.9 2-.5 3.9-.9 5.5-1.4s2.7-.9 3.6-1.4l-2-12.7c-1.8.7-4.6 1.6-7.7 2-3.4.7-7.1 1.1-11.2 1.1-7.1 0-12.3-1.6-15.9-4.8s-5.7-7.5-6.4-13.2v-.2h47.8c0-.9.2-1.8.2-2.7 0-1.1 0-2 0-3 0-11.8-2.7-20.7-8.2-26.6-6.2-5.3-13.9-8.3-23.7-8.3zm15.2 29.9h-31.6v-.2c.2-2 .9-4.1 1.6-6.1s1.8-3.9 3.2-5.2c1.4-1.6 3-2.7 5-3.6s4.3-1.4 6.8-1.4 4.8.5 6.6 1.4 3.4 2 4.6 3.6c1.4 1.6 2.3 3.2 3 5.2s.8 4 .8 6.3zm-67.8-30.3c-22.5 0-40.1 15.9-40.1 36.4v.2c0 20.3 17.5 36.2 40.1 36.2 8.2 0 15.3-1.6 21.4-5 0 0 0 0-.2-.2s-.5-.5-.7-.7c-2.7-3-5-6.4-6.6-10.2-4.1 2-8.2 3.2-12.7 3.2-13.7 0-24.1-10-24.1-23.4v-.2c0-13 10.2-23.2 23.2-23.2 5.2 0 9.8 1.1 13.9 3.6 2-4.6 4.8-8.6 7.7-11.8-6.4-3.3-13.5-4.9-21.9-4.9zm-291.3 63-15.3-15.3 23-23-22.8-22.8 15.3-15.3 38 38.2zm23.4 23.5-15.3-15.3 38.2-38.2 38.2 38-15.3 15.3-23-22.8zm23-69.9-38.2-38 15.5-15.3 22.8 22.8 23-23 15.3 15.3z" fill="#000000"/>
</svg>
