<svg width="744" height="128" viewBox="0 0 744 128" fill="none"
    xmlns="http://www.w3.org/2000/svg">
    <g clip-path="url(#clip0_182_225)" fill="#000000">
        <path d="M0.000488281 128H42.663V85.3313H0.000488281V128ZM85.3318 42.6625C85.3318 19.0996 66.2322 0 42.6692 0V85.3313C66.2322 85.3313 85.3318 66.2317 85.3318 42.6625Z" />
        <path d="M121.752 69.635C130.189 69.635 135.18 73.6893 135.18 80.9795C135.18 88.2696 130.195 92.2681 121.752 92.2681H113.042V106.898H106.577V69.635H121.758H121.752ZM113.042 75.2266V86.6765H121.752C126.135 86.6765 128.602 84.8663 128.602 80.9795C128.602 77.0926 126.135 75.2266 121.752 75.2266H113.042Z" />
        <path d="M156.108 106.898V103.718C154.242 106.13 151.341 107.555 147.944 107.555C142.408 107.555 138.354 103.83 138.354 96.6511V79.498H144.603V96.3783C144.603 99.9924 146.686 101.914 149.915 101.914C153.641 101.914 156.108 99.3415 156.108 95.8328V79.5042H162.301V106.904H156.108V106.898Z" />
        <path d="M174.798 79.498V83.4965C176.335 80.9238 178.741 79.498 182.144 79.498H184.115V85.3624H181.648C177.377 85.3624 174.798 88.2636 174.798 92.8696V106.898H168.549V79.498H174.798Z" />
        <path d="M215.949 93.1982C215.949 101.803 210.358 107.555 203.179 107.555C199.565 107.555 196.217 106.074 194.134 103.557V115.67H187.886V79.5043H194.134V82.8456C196.217 80.3226 199.559 78.8472 203.179 78.8472C210.358 78.8472 215.949 84.6 215.949 93.2044V93.1982ZM193.973 93.1982C193.973 98.5667 197.098 102.075 201.809 102.075C206.52 102.075 209.645 98.5667 209.645 93.1982C209.645 87.8297 206.52 84.321 201.809 84.321C197.098 84.321 193.973 87.8297 193.973 93.1982Z" />
        <path d="M226.797 69.635V106.898H220.548V69.635H226.797Z" />
        <path d="M237.645 95.1756C238.358 99.8869 241.427 102.466 245.754 102.466C249.095 102.466 251.451 100.879 252.108 98.9013H258.301C256.714 104.053 251.947 107.506 245.531 107.506C237.038 107.506 231.285 101.48 231.285 93.2043C231.285 84.9284 237.094 78.9028 245.314 78.9028C253.534 78.9028 258.518 84.9842 258.518 93.0431V95.1818H237.639L237.645 95.1756ZM237.813 90.5138H252.282C252.009 87.1167 249.759 83.9923 245.32 83.9923C241.706 83.9923 238.687 86.2364 237.813 90.5138Z" />
        <path d="M100.464 21.759H131.59V27.4003H119.26V59.0159H112.794V27.4003H100.464V21.759Z" />
        <path d="M135.26 47.2933C135.973 52.0046 139.042 54.5835 143.369 54.5835C146.71 54.5835 149.066 52.9965 149.723 51.019H155.916C154.329 56.1705 149.562 59.6234 143.146 59.6234C134.653 59.6234 128.9 53.5978 128.9 45.3219C128.9 37.0461 134.709 31.0205 142.929 31.0205C151.149 31.0205 156.133 37.1019 156.133 45.1608V47.2995H135.254L135.26 47.2933ZM135.428 42.6377H149.896C149.624 39.2406 147.373 36.1162 142.935 36.1162C139.321 36.1162 136.302 38.3603 135.428 42.6377Z" />
        <path d="M166.931 21.759V59.0221H160.683V21.759H166.931Z" />
        <path d="M183.483 54.9121C186.663 54.9121 189.019 53.7094 189.019 51.3475C189.019 49.7606 187.978 48.7191 185.293 48.3348L179.981 47.4607C174.445 46.5866 171.761 44.0078 171.761 39.7365C171.761 34.0395 176.912 30.9709 183.161 30.9709C188.802 30.9709 194.394 33.5436 194.778 39.3026H188.257C188.04 37.1639 186.285 35.7381 183.105 35.7381C179.925 35.7381 177.898 37.0523 177.898 39.0794C177.898 40.778 179.051 41.7079 181.84 42.148L187.153 43.0221C192.137 43.8466 195.262 46.0349 195.262 50.802C195.262 56.8276 189.998 59.6792 183.372 59.6792C175.976 59.6792 171.153 56.499 171.042 50.802H177.619C177.786 53.1577 179.646 54.9121 183.483 54.9121Z" />
        <path d="M215.21 59.0221H210.332C205.782 59.0221 202.552 57.5963 202.552 52.3891V36.4449H196.743V31.5661H202.552V23.5134H208.801V31.5661H215.105V36.4449H208.801V51.4592C208.801 53.2693 209.786 53.9822 211.541 53.9822H215.21V59.0221Z" />
        <path d="M226.716 31.6218V35.6203C228.253 33.0476 230.659 31.6218 234.062 31.6218H236.033V37.4862H233.566C229.295 37.4862 226.716 40.3874 226.716 44.9934V59.0221H220.467V31.6218H226.716Z" />
        <path d="M255.702 55.6808C253.892 58.148 250.718 59.6792 246.937 59.6792C241.345 59.6792 237.787 56.499 237.787 51.298C237.787 46.0969 241.68 43.7908 247.104 42.9167L255.541 41.6583V39.8481C255.541 37.1081 254.115 35.6823 250.39 35.6823C246.881 35.6823 245.126 37.0523 245.021 39.4638H238.667C238.778 35.0252 241.624 30.9709 250.445 30.9709C258.448 30.9709 261.79 34.0395 261.79 39.6808V59.0221H255.708V55.6808H255.702ZM248.468 54.8563C252.522 54.8563 255.535 52.0604 255.535 48.7191V46.0907L248.524 47.2437C245.839 47.6838 244.029 48.7253 244.029 51.1368C244.029 53.5482 245.56 54.8625 248.468 54.8625V54.8563Z" />
    </g>
    <line x1="311.488" y1="2.06104" x2="311.488" y2="125.939" stroke="#000000" stroke-width="1.52936"/>
    <g clip-path="url(#clip1_182_225)" fill="#000000">
        <path d="M498.642 52.7865L484.313 96.406H481.502L467.128 52.7865H470.633L482.902 90.5689L495.142 52.7865H498.642ZM535.482 96.4003H509.004V52.7808H535.482V55.7165H512.327V72.9432H532.045V75.8789H512.327V93.4703H535.482V96.4003ZM578.314 96.4003H574.45L564.043 76.3002H552.041V96.4003H548.723V52.7808H565.328C567.747 52.7808 569.898 53.2358 571.782 54.1463C573.665 55.0506 575.15 56.3875 576.226 58.1515C577.301 59.9205 577.841 62.0315 577.841 64.4836C577.841 67.6754 576.949 70.2921 575.161 72.3465C573.375 74.4053 570.917 75.7029 567.787 76.2379L578.32 96.4003H578.314ZM574.507 64.5402C574.507 61.6445 573.637 59.4541 571.895 57.9583C570.142 56.4619 567.821 55.7108 564.908 55.7108H552.041V73.3645H564.908C566.324 73.3645 567.622 73.177 568.794 72.8129C569.966 72.4431 570.973 71.8966 571.815 71.1798C572.652 70.4631 573.312 69.5468 573.79 68.4322C574.274 67.317 574.507 66.0195 574.507 64.5465M617.613 84.7032C617.613 86.4951 617.277 88.1511 616.605 89.6532C615.953 91.1416 614.959 92.4552 613.703 93.4875C612.44 94.5289 610.881 95.3423 609.037 95.911C607.188 96.4747 605.151 96.7587 602.914 96.7587C600.837 96.7587 598.948 96.5598 597.235 96.1614C595.522 95.763 593.946 95.1377 592.506 94.2786C591.072 93.4252 589.695 92.3329 588.381 91.0182L590.708 88.6804C592.028 89.9945 593.292 91.0296 594.504 91.7864C595.713 92.5242 597.036 93.0585 598.418 93.368C599.813 93.6698 601.366 93.8287 603.079 93.8287C605.373 93.8287 607.353 93.476 609.026 92.7707C610.693 92.0539 611.996 91.0182 612.912 89.6532C613.823 88.2877 614.289 86.6775 614.289 84.8227C614.289 82.1545 613.493 80.1122 611.9 78.6901C611.175 78.0637 610.345 77.5721 609.447 77.2387C608.548 76.9147 607.267 76.6192 605.594 76.3631L600.513 75.5834C597.206 75.0884 594.617 74.019 592.74 72.3859C590.446 70.4745 589.302 67.7949 589.302 64.3699C589.302 62.5322 589.627 60.8712 590.276 59.3919C590.918 57.9069 591.823 56.6436 592.979 55.6256C594.134 54.5962 595.562 53.8108 597.252 53.2644C598.948 52.7128 600.814 52.4338 602.84 52.4338C605.492 52.4338 607.779 52.8151 609.692 53.5605C611.603 54.3109 613.504 55.5005 615.399 57.1386L613.237 59.2896C611.7 57.9126 610.152 56.894 608.588 56.2395C607.022 55.5799 605.048 55.2558 602.658 55.2558C599.511 55.2558 597.042 56.0635 595.249 57.6794C593.457 59.2953 592.557 61.4856 592.557 64.2676C592.557 66.7991 593.303 68.6877 594.794 69.9509C595.607 70.6111 596.615 71.1798 597.798 71.6691C598.982 72.1584 600.154 72.4825 601.304 72.642L605.999 73.3931C608.013 73.6892 609.594 74.0476 610.733 74.4682C611.877 74.8895 612.896 75.4868 613.788 76.2665C615.012 77.2553 615.984 78.5206 616.622 79.9584C617.277 81.4034 617.595 82.9964 617.595 84.7318M657.514 96.4003H631.031V52.7808H657.514V55.7165H634.348V72.9432H654.071V75.8789H634.348V93.4703H657.514V96.4003ZM702.554 96.4003H699.237L674.068 58.4698V96.4003H670.75V52.7808H674.068L699.237 90.5632V52.7808H702.554V96.4003ZM743.531 55.7165H730.489V96.4003H727.166V55.7165H714.18V52.7865H743.531V55.7165Z" />
        <path d="M400.474 109.116L456.355 18.884C437.491 39.9913 421.108 58.0148 391.512 58.3109C400.389 62.0314 409.01 61.6279 416.988 60.3933L400.821 87.4057C394.118 75.8789 388.075 64.3412 381.378 52.8208C392.537 54.5504 409.933 53.9982 423.396 44.3205C400.122 52.1892 374.828 45.9136 359.674 37.9433L400.486 109.122L400.474 109.116Z" />
    </g>
    <defs>
        <clipPath id="clip0_182_225">
            <rect width="261.784" height="128" fill="#000000"/>
        </clipPath>
        <clipPath id="clip1_182_225">
            <rect width="383.868" height="90.232" fill="#000000" transform="translate(359.663 18.884)"/>
        </clipPath>
    </defs>
</svg>
