<?xml version="1.0" encoding="UTF-8"?>
<svg width="711px" height="838px" viewBox="0 0 711 838" version="1.1" xmlns="http://www.w3.org/2000/svg" xmlns:xlink="http://www.w3.org/1999/xlink">
    <title>d-green</title>
    <defs>
        <linearGradient x1="50%" y1="0%" x2="50%" y2="100%" id="linearGradient-1">
            <stop stop-color="#00BA8D" offset="0%"></stop>
            <stop stop-color="#008454" offset="100%"></stop>
        </linearGradient>
        <linearGradient x1="52.1389877%" y1="9.07689521%" x2="50%" y2="85.7624925%" id="linearGradient-2">
            <stop stop-color="#008454" stop-opacity="0.61" offset="0%"></stop>
            <stop stop-color="#0C0C3B" stop-opacity="0" offset="100%"></stop>
        </linearGradient>
        <linearGradient x1="56.6925528%" y1="31.2457235%" x2="44.4919524%" y2="73.8277319%" id="linearGradient-3">
            <stop stop-color="#008454" stop-opacity="0.7" offset="0%"></stop>
            <stop stop-color="#0C0C3B" stop-opacity="0" offset="100%"></stop>
        </linearGradient>
        <linearGradient x1="50%" y1="0%" x2="50%" y2="100%" id="linearGradient-4">
            <stop stop-color="#0AFFA6" offset="0%"></stop>
            <stop stop-color="#008454" stop-opacity="0" offset="100%"></stop>
        </linearGradient>
        <radialGradient cx="38.4893486%" cy="100%" fx="38.4893486%" fy="100%" r="164.200699%" gradientTransform="translate(0.3849, 1), scale(0.3712, 1), translate(-0.3849, -1)" id="radialGradient-5">
            <stop stop-color="#0AFFA6" offset="0%"></stop>
            <stop stop-color="#008454" stop-opacity="0" offset="100%"></stop>
        </radialGradient>
    </defs>
    <g id="Page-1" stroke="none" stroke-width="1" fill="none" fill-rule="evenodd">
        <g id="d-green">
            <path d="M0,0.00452919775 L237.357967,0.00452919775 C278.043974,-0.103898981 322.307132,3.60146804 367.050266,10.8635616 C410.502777,17.8770262 453.553653,27.6738026 494.045908,39.763041 C534.505758,51.8935529 571.591034,66.1566328 603.343209,81.799027 C635.845233,97.6962701 661.914772,114.795974 679.978146,132.065164 C698.078362,149.201571 708.008575,166.171388 709.185934,181.980548 C710.602725,197.679159 703.726006,212.004554 688.92292,224.191911 C674.066276,236.373129 651.687756,246.234112 622.94043,253.266766 C593.236313,260.556398 556.485138,264.26183 515.262458,264.123383 L277.963067,264.123383 L0,0.00452919775 Z" id="Path" fill="url(#linearGradient-1)" fill-rule="nonzero"></path>
            <path d="M275.607779,817.482238 L515.279481,817.482238 C551.791585,820.931726 587.685392,817.319526 622.960901,806.645641 C645.872946,799.71277 671.315765,795.523549 688.956041,777.552793 C700.716225,765.572289 707.745294,751.514 710.043246,735.377927 L709.185934,181.980548 C710.602725,197.679159 703.726006,212.004554 688.92292,224.191911 C674.066276,236.373129 651.687756,246.234112 622.94043,253.266766 C593.236313,260.556398 556.485138,264.26183 515.262458,264.123383 L277.963067,264.123383 L275.607779,817.482238 Z" id="Path" fill="url(#linearGradient-2)" fill-rule="nonzero"></path>
            <polygon id="Path" fill="url(#linearGradient-3)" fill-rule="nonzero" points="1.44802615e-12 0.00452919775 2.25512562 573.40119 275.607779 837.482238 277.963067 264.123383"></polygon>
            <line x1="278.5" y1="264.5" x2="278.5" y2="745.5" id="Line" stroke="url(#linearGradient-4)" stroke-linecap="square"></line>
            <polyline id="Line-2" stroke="url(#radialGradient-5)" stroke-linecap="square" points="167.5 158.328125 278.5 264.5 453.554688 264.5"></polyline>
        </g>
    </g>
</svg>