<svg height="937" viewBox="0 0 712 937" width="712" xmlns="http://www.w3.org/2000/svg" xmlns:xlink="http://www.w3.org/1999/xlink"><linearGradient id="a" x1="50%" x2="50%" y1="0%" y2="100%"><stop offset="0" stop-color="#ef79cb"/><stop offset="1" stop-color="#da449c"/></linearGradient><linearGradient id="b" x1="54.59533%" x2="54.59533%" y1="9.076895%" y2="76.521748%"><stop offset="0" stop-color="#a73682"/><stop offset="1" stop-color="#0e0e43"/></linearGradient><linearGradient id="c" x1="51.527916%" x2="48.085935%" y1="19.164556%" y2="70.216784%"><stop offset="0" stop-color="#a73682"/><stop offset="1" stop-color="#0e0e43" stop-opacity="0"/></linearGradient><linearGradient id="d"><stop offset="0" stop-color="#ff88ce"/><stop offset="1" stop-color="#da449c" stop-opacity="0"/></linearGradient><linearGradient id="e" x1="50%" x2="50%" xlink:href="#d" y1="0%" y2="100%"/><radialGradient id="f" cx="38.489349%" cy="100%" gradientTransform="matrix(.3712 0 0 1 .242025 0)" r="164.200699%" xlink:href="#d"/><g fill="none" fill-rule="evenodd" transform="translate(.9784 .627)"><g fill-rule="nonzero"><path d="m0 .0045292h237.357967c40.686007-.10842818 84.949165 3.59693884 129.692299 10.8590324 43.452511 7.0134646 86.503387 16.810241 126.995642 28.8994794 40.45985 12.1305119 77.545126 26.3935918 109.297301 42.035986 32.502024 15.8972431 58.571563 32.996947 76.634937 50.266137 18.100216 17.136407 28.030429 34.106224 29.207788 49.915384 1.416791 15.698611-5.459928 30.024006-20.263014 42.211363-14.856644 12.181218-37.235164 22.042201-65.98249 29.074855-29.704117 7.289632-66.455292 10.995064-107.677972 10.856617h-237.299391z" fill="url(#a)"/><path d="m275.785423 936.109243h434.257823l-.857312-754.128695c1.416791 15.698611-5.459928 30.024006-20.263014 42.211363-14.856644 12.181218-37.235164 22.042201-65.98249 29.074855-29.704117 7.289632-66.455292 10.995064-107.677972 10.856617h-239.477035z" fill="url(#b)"/><path d="m-0 .0045292v936.1047138h278.992345v-671.98586z" fill="url(#c)"/></g><path d="m278.021623 264.54487v481" stroke="url(#e)" stroke-linecap="square"/><path d="m167.021623 158.372995 111 106.171875h175.054688" stroke="url(#f)" stroke-linecap="square"/></g></svg>