<svg height="839" viewBox="0 0 711 839" width="711" xmlns="http://www.w3.org/2000/svg" xmlns:xlink="http://www.w3.org/1999/xlink"><linearGradient id="a" x1="50%" x2="50%" y1="0%" y2="100%"><stop offset="0" stop-color="#acacff"/><stop offset="1" stop-color="#8282fb"/></linearGradient><linearGradient id="b" x1="54.59533%" x2="54.59533%" y1="9.076895%" y2="75.874901%"><stop offset="0" stop-color="#5d5db9"/><stop offset="1" stop-color="#0e0e43"/></linearGradient><linearGradient id="c" x1="52.601694%" x2="46.298967%" y1="21.050393%" y2="66.905195%"><stop offset="0" stop-color="#5d5db9"/><stop offset="1" stop-color="#0e0e43" stop-opacity="0"/></linearGradient><linearGradient id="d"><stop offset="0" stop-color="#c5c5ff"/><stop offset="1" stop-color="#8282fb" stop-opacity="0"/></linearGradient><linearGradient id="e" x1="50%" x2="50%" xlink:href="#d" y1="0%" y2="100%"/><radialGradient id="f" cx="39.240169%" cy="100%" gradientTransform="matrix(.3712 0 0 1 .246741 0)" r="162.177794%" xlink:href="#d"/><g fill="none" fill-rule="evenodd" transform="translate(.9568 .254)"><g fill-rule="nonzero"><path d="m0 .0045292h237.357967c40.686007-.10842818 84.949165 3.59693884 129.692299 10.8590324 43.452511 7.0134646 86.503387 16.810241 126.995642 28.8994794 40.45985 12.1305119 77.545126 26.3935918 109.297301 42.035986 32.502024 15.8972431 58.571563 32.996947 76.634937 50.266137 18.100216 17.136407 28.030429 34.106224 29.207788 49.915384 1.416791 15.698611-5.459928 30.024006-20.263014 42.211363-14.856644 12.181218-37.235164 22.042201-65.98249 29.074855-29.704117 7.289632-66.455292 10.995064-107.677972 10.856617h-237.299391z" fill="url(#a)"/><path d="m275.825513 838.482238h434.217733l-.857312-656.50169c1.416791 15.698611-5.459928 30.024006-20.263014 42.211363-14.856644 12.181218-37.235164 22.042201-65.98249 29.074855-29.704117 7.289632-66.455292 10.995064-107.677972 10.856617l-239.436945-.205518c-.149586.358499-.149586 191.879956 0 574.564373z" fill="url(#b)"/><path d="m.06486913 0 2.25512561 838.482238h275.46542826v-574.358855z" fill="url(#c)"/></g><path d="m278.043246 263.917865v316.898438" stroke="url(#e)" stroke-linecap="square"/><path d="m167.043246 157.74599 111 106.171875h175.054688" stroke="url(#f)" stroke-linecap="square"/></g></svg>