<svg height="27" viewBox="0 0 59 27" width="59" xmlns="http://www.w3.org/2000/svg"><g fill="none" transform="translate(0 0)"><path d="m35.5535215 0h10.18202c1.7502157-.0110841 3.4817044.367698 5.0732115 1.11006738 1.5473721.7169447 2.9518568 1.71842371 4.1430808 2.95425668 1.1879768 1.24004469 2.1349168 2.69809169 2.7908107 4.29713945.6765551 1.62509975 1.0228878 3.37312139 1.0181258 5.13846869.0028243 1.7517748-.3373135 3.4865209-1.0005367 5.102613-.6474966 1.604506-1.5886444 3.068765-2.7732215 4.3146405-1.1872417 1.2452281-2.5924026 2.2532697-4.1430808 2.9721845-1.6033279.7451713-3.3471367 1.1239595-5.1092274 1.1098205h-10.1811824z" fill="#ff0030"/><path d="m17.7378134 0h10.18202c1.7502156-.0110841 3.4817044.367698 5.0732114 1.11006738 1.5473674.71695321 2.9518507 1.71843119 4.1430808 2.95425668 1.1879689 1.24005118 2.1349079 2.69809656 2.7908108 4.29713945.6765551 1.62509975 1.0228877 3.37312139 1.0181258 5.13846869.002813 1.7517736-.3373243 3.4865176-1.0005367 5.102613-.6474875 1.6045109-1.5886365 3.0687716-2.7732216 4.3146405-1.1872416 1.2452281-2.5924025 2.2532697-4.1430808 2.9721845-1.6033193.7451977-3.3471339 1.123987-5.1092273 1.1098205h-10.1811824z" fill="#fdfc00"/><path d="m0 0h10.18202c1.7502156-.0110841 3.4817044.367698 5.0732114 1.11006738 1.5473674.71695321 2.9518507 1.71843119 4.1430809 2.95425668 1.1879767 1.24004469 2.1349167 2.69809169 2.7908107 4.29713945.6765551 1.62509975 1.0228877 3.37312139 1.0181258 5.13846869.002813 1.7517736-.3373243 3.4865176-1.0005367 5.102613-.6479505 1.6047945-1.5896755 3.0692116-2.7748967 4.3150673-1.1872416 1.2452282-2.5924025 2.2532697-4.1430808 2.9721846-1.6033236.7451845-3.3471353 1.1239732-5.1092273 1.1098204h-10.1795073z" fill="#4f535b"/></g></svg>